G75*
%MOIN*%
%OFA0B0*%
%FSLAX25Y25*%
%IPPOS*%
%LPD*%
%AMOC8*
5,1,8,0,0,1.08239X$1,22.5*
%
%ADD10R,0.05118X0.06299*%
%ADD11R,0.05118X0.12992*%
%ADD12R,0.05906X0.05118*%
%ADD13R,0.01100X0.05800*%
%ADD14R,0.05800X0.01100*%
%ADD15R,0.13800X0.13800*%
%ADD16R,0.06299X0.05118*%
%ADD17R,0.04724X0.03150*%
%ADD18R,0.06299X0.01575*%
%ADD19R,0.05200X0.02200*%
%ADD20R,0.06299X0.08661*%
%ADD21R,0.05118X0.05906*%
%ADD22C,0.01496*%
%ADD23R,0.06299X0.07098*%
%ADD24R,0.06299X0.07087*%
%ADD25R,0.07800X0.02200*%
%ADD26R,0.02200X0.07800*%
%ADD27R,0.01181X0.10236*%
%ADD28R,0.03150X0.04724*%
%ADD29R,0.03937X0.05512*%
%ADD30R,0.03900X0.01200*%
%ADD31R,0.03150X0.06299*%
%ADD32R,0.07098X0.06299*%
%ADD33R,0.06299X0.03150*%
%ADD34R,0.03800X0.07600*%
%ADD35R,0.07600X0.15000*%
%ADD36R,0.06299X0.01378*%
%ADD37R,0.08000X0.02600*%
%ADD38R,0.04724X0.04724*%
D10*
X0209201Y0228567D03*
X0216681Y0228567D03*
X0216681Y0257767D03*
X0209201Y0257767D03*
X0255801Y0257767D03*
X0263281Y0257767D03*
X0263281Y0228567D03*
X0255801Y0228567D03*
X0193078Y0356667D03*
X0185204Y0356667D03*
X0035281Y0507367D03*
X0027801Y0507367D03*
X0027901Y0516567D03*
X0035381Y0516567D03*
X0035381Y0526567D03*
X0027901Y0526567D03*
X0027901Y0536567D03*
X0035381Y0536567D03*
X0035381Y0546567D03*
X0027901Y0546567D03*
X0027901Y0556567D03*
X0035381Y0556567D03*
X0072001Y0571567D03*
X0079481Y0571567D03*
X0079106Y0557593D03*
X0086586Y0557593D03*
X0104101Y0571567D03*
X0111581Y0571567D03*
X0111581Y0593367D03*
X0104101Y0593367D03*
X0079481Y0593367D03*
X0072001Y0593367D03*
X0455904Y0374267D03*
X0463778Y0374267D03*
X0463778Y0312867D03*
X0455904Y0312867D03*
X0455904Y0246467D03*
X0463778Y0246467D03*
X0463778Y0185667D03*
X0455904Y0185667D03*
X0603401Y0179767D03*
X0610881Y0179767D03*
X0610881Y0194767D03*
X0603401Y0194767D03*
X0603401Y0207567D03*
X0610881Y0207567D03*
X0610881Y0220367D03*
X0603401Y0220367D03*
X0603401Y0233167D03*
X0610881Y0233167D03*
X0610881Y0164767D03*
X0603401Y0164767D03*
X0557478Y0471667D03*
X0549604Y0471667D03*
X0549604Y0485267D03*
X0557478Y0485267D03*
X0557478Y0498867D03*
X0549604Y0498867D03*
X0549604Y0512467D03*
X0557478Y0512467D03*
X0616004Y0568467D03*
X0623878Y0568467D03*
X0623878Y0583767D03*
X0616004Y0583767D03*
X0616004Y0599067D03*
X0623878Y0599067D03*
X0623778Y0614367D03*
X0615904Y0614367D03*
X0575578Y0614367D03*
X0567704Y0614367D03*
X0567704Y0599067D03*
X0575578Y0599067D03*
X0502678Y0623967D03*
X0494804Y0623967D03*
X0634401Y0500967D03*
X0641881Y0500967D03*
X0653901Y0500967D03*
X0661381Y0500967D03*
X0661381Y0488167D03*
X0653901Y0488167D03*
D11*
X0288759Y0623336D03*
X0268759Y0623336D03*
X0268759Y0658100D03*
X0288759Y0658100D03*
D12*
X0241761Y0632507D03*
X0241761Y0625027D03*
X0209983Y0625027D03*
X0209983Y0632507D03*
X0199799Y0632507D03*
X0199799Y0625027D03*
X0188283Y0625027D03*
X0188283Y0632507D03*
X0176483Y0632507D03*
X0176483Y0625027D03*
X0164299Y0675227D03*
X0164299Y0682707D03*
X0152283Y0682707D03*
X0152283Y0675227D03*
X0105641Y0673227D03*
X0105641Y0680707D03*
X0105641Y0658707D03*
X0105641Y0651227D03*
X0106141Y0634207D03*
X0106141Y0626727D03*
X0091841Y0614307D03*
X0091841Y0606827D03*
X0079141Y0606527D03*
X0079141Y0614007D03*
X0039641Y0626727D03*
X0039641Y0634207D03*
X0026041Y0643027D03*
X0026041Y0650507D03*
X0039641Y0650541D03*
X0039641Y0658022D03*
X0039641Y0672075D03*
X0039641Y0679555D03*
X0026041Y0674207D03*
X0026041Y0666727D03*
X0101100Y0539669D03*
X0101100Y0532189D03*
X0214541Y0675227D03*
X0214541Y0682707D03*
X0225841Y0682707D03*
X0225841Y0675227D03*
X0143504Y0294707D03*
X0143504Y0287227D03*
X0128804Y0287227D03*
X0128804Y0294707D03*
X0113404Y0294707D03*
X0113404Y0287227D03*
X0097004Y0287227D03*
X0097004Y0294707D03*
X0082204Y0294707D03*
X0082204Y0287227D03*
X0066004Y0287227D03*
X0066004Y0294707D03*
X0050004Y0294707D03*
X0050004Y0287227D03*
X0034404Y0287227D03*
X0034404Y0294707D03*
X0192741Y0261507D03*
X0192741Y0254027D03*
X0192741Y0232307D03*
X0192741Y0224827D03*
X0231841Y0224827D03*
X0231841Y0232307D03*
X0231841Y0254027D03*
X0231841Y0261507D03*
D13*
X0164578Y0584056D03*
X0162678Y0584056D03*
X0160678Y0584056D03*
X0158678Y0584056D03*
X0156778Y0584056D03*
X0154778Y0584056D03*
X0152778Y0584056D03*
X0150778Y0584056D03*
X0148878Y0584056D03*
X0146878Y0584056D03*
X0144878Y0584056D03*
X0142978Y0584056D03*
X0142978Y0616456D03*
X0144878Y0616456D03*
X0146878Y0616456D03*
X0148878Y0616456D03*
X0150778Y0616456D03*
X0152778Y0616456D03*
X0154778Y0616456D03*
X0156778Y0616456D03*
X0158678Y0616456D03*
X0160678Y0616456D03*
X0162678Y0616456D03*
X0164578Y0616456D03*
D14*
X0169978Y0611056D03*
X0169978Y0609156D03*
X0169978Y0607156D03*
X0169978Y0605156D03*
X0169978Y0603256D03*
X0169978Y0601256D03*
X0169978Y0599256D03*
X0169978Y0597256D03*
X0169978Y0595356D03*
X0169978Y0593356D03*
X0169978Y0591356D03*
X0169978Y0589456D03*
X0137578Y0589456D03*
X0137578Y0591356D03*
X0137578Y0593356D03*
X0137578Y0595356D03*
X0137578Y0597256D03*
X0137578Y0599256D03*
X0137578Y0601256D03*
X0137578Y0603256D03*
X0137578Y0605156D03*
X0137578Y0607156D03*
X0137578Y0609156D03*
X0137578Y0611056D03*
D15*
X0153778Y0600256D03*
D16*
X0140699Y0675227D03*
X0140699Y0682707D03*
X0176483Y0682707D03*
X0176483Y0675227D03*
X0188883Y0675227D03*
X0188883Y0682707D03*
X0201183Y0682707D03*
X0201183Y0675227D03*
X0360141Y0636707D03*
X0360141Y0629227D03*
X0374141Y0629327D03*
X0374141Y0636807D03*
X0387641Y0636807D03*
X0387641Y0629327D03*
X0510741Y0697627D03*
X0510741Y0705107D03*
X0633441Y0705107D03*
X0633441Y0697627D03*
X0247841Y0247507D03*
X0247841Y0240027D03*
X0168941Y0287227D03*
X0168941Y0294707D03*
X0156541Y0294707D03*
X0156541Y0287227D03*
X0023641Y0287227D03*
X0023641Y0294707D03*
D17*
X0151791Y0310967D03*
X0151791Y0315967D03*
X0151791Y0320967D03*
X0151791Y0325967D03*
X0159291Y0325967D03*
X0159291Y0320967D03*
X0159291Y0315967D03*
X0159291Y0310967D03*
X0159491Y0340167D03*
X0159491Y0345167D03*
X0159491Y0350167D03*
X0159491Y0355167D03*
X0151991Y0355167D03*
X0151991Y0350167D03*
X0151991Y0345167D03*
X0151991Y0340167D03*
X0261791Y0342167D03*
X0261791Y0347167D03*
X0261791Y0352167D03*
X0269291Y0352167D03*
X0269291Y0347167D03*
X0269291Y0342167D03*
X0269291Y0337167D03*
X0261791Y0337167D03*
X0261791Y0320067D03*
X0261791Y0315067D03*
X0261791Y0310067D03*
X0261791Y0305067D03*
X0269291Y0305067D03*
X0269291Y0310067D03*
X0269291Y0315067D03*
X0269291Y0320067D03*
X0398696Y0321650D03*
X0398696Y0316650D03*
X0398696Y0311650D03*
X0398696Y0306650D03*
X0406196Y0306650D03*
X0406196Y0311650D03*
X0406196Y0316650D03*
X0406196Y0321650D03*
X0406196Y0334209D03*
X0406196Y0339209D03*
X0406196Y0344209D03*
X0406196Y0349209D03*
X0398696Y0349209D03*
X0398696Y0344209D03*
X0398696Y0339209D03*
X0398696Y0334209D03*
X0398696Y0361768D03*
X0398696Y0366768D03*
X0398696Y0371768D03*
X0398696Y0376768D03*
X0406196Y0376768D03*
X0406196Y0371768D03*
X0406196Y0366768D03*
X0406196Y0361768D03*
X0406481Y0408132D03*
X0406481Y0413132D03*
X0406481Y0418132D03*
X0406481Y0423132D03*
X0398981Y0423132D03*
X0398981Y0418132D03*
X0398981Y0413132D03*
X0398981Y0408132D03*
X0398981Y0432132D03*
X0398981Y0437132D03*
X0398981Y0442132D03*
X0398981Y0447132D03*
X0406481Y0447132D03*
X0406481Y0442132D03*
X0406481Y0437132D03*
X0406481Y0432132D03*
X0406481Y0455732D03*
X0406481Y0460732D03*
X0406481Y0465732D03*
X0406481Y0470732D03*
X0398981Y0470732D03*
X0398981Y0465732D03*
X0398981Y0460732D03*
X0398981Y0455732D03*
X0398981Y0479332D03*
X0398981Y0484332D03*
X0398981Y0489332D03*
X0398981Y0494332D03*
X0406481Y0494332D03*
X0406481Y0489332D03*
X0406481Y0484332D03*
X0406481Y0479332D03*
X0406481Y0502932D03*
X0406481Y0507932D03*
X0406481Y0512932D03*
X0406481Y0517932D03*
X0398981Y0517932D03*
X0398981Y0512932D03*
X0398981Y0507932D03*
X0398981Y0502932D03*
X0398981Y0526132D03*
X0398981Y0531132D03*
X0398981Y0536132D03*
X0398981Y0541132D03*
X0406481Y0541132D03*
X0406481Y0536132D03*
X0406481Y0531132D03*
X0406481Y0526132D03*
X0406481Y0549332D03*
X0406481Y0554332D03*
X0406481Y0559332D03*
X0406481Y0564332D03*
X0398981Y0564332D03*
X0398981Y0559332D03*
X0398981Y0554332D03*
X0398981Y0549332D03*
X0398981Y0572532D03*
X0398981Y0577532D03*
X0398981Y0582532D03*
X0398981Y0587532D03*
X0406481Y0587532D03*
X0406481Y0582532D03*
X0406481Y0577532D03*
X0406481Y0572532D03*
X0406481Y0595732D03*
X0406481Y0600732D03*
X0406481Y0605732D03*
X0406481Y0610732D03*
X0398981Y0610732D03*
X0398981Y0605732D03*
X0398981Y0600732D03*
X0398981Y0595732D03*
X0458391Y0642767D03*
X0458391Y0647767D03*
X0458391Y0652767D03*
X0458391Y0657767D03*
X0465891Y0657767D03*
X0465891Y0652767D03*
X0465891Y0647767D03*
X0465891Y0642767D03*
X0470636Y0610732D03*
X0470636Y0605732D03*
X0470636Y0600732D03*
X0470636Y0595732D03*
X0478136Y0595732D03*
X0478136Y0600732D03*
X0478136Y0605732D03*
X0478136Y0610732D03*
X0478136Y0587532D03*
X0478136Y0582532D03*
X0478136Y0577532D03*
X0478136Y0572532D03*
X0470636Y0572532D03*
X0470636Y0577532D03*
X0470636Y0582532D03*
X0470636Y0587532D03*
X0470636Y0564332D03*
X0470636Y0559332D03*
X0470636Y0554332D03*
X0470636Y0549332D03*
X0478136Y0549332D03*
X0478136Y0554332D03*
X0478136Y0559332D03*
X0478136Y0564332D03*
X0478136Y0541132D03*
X0478136Y0536132D03*
X0478136Y0531132D03*
X0478136Y0526132D03*
X0470636Y0526132D03*
X0470636Y0531132D03*
X0470636Y0536132D03*
X0470636Y0541132D03*
X0470636Y0517932D03*
X0470636Y0512932D03*
X0470636Y0507932D03*
X0470636Y0502932D03*
X0478136Y0502932D03*
X0478136Y0507932D03*
X0478136Y0512932D03*
X0478136Y0517932D03*
X0478136Y0494332D03*
X0478136Y0489332D03*
X0478136Y0484332D03*
X0478136Y0479332D03*
X0470636Y0479332D03*
X0470636Y0484332D03*
X0470636Y0489332D03*
X0470636Y0494332D03*
X0470636Y0470732D03*
X0470636Y0465732D03*
X0470636Y0460732D03*
X0470636Y0455732D03*
X0478136Y0455732D03*
X0478136Y0460732D03*
X0478136Y0465732D03*
X0478136Y0470732D03*
X0545291Y0582167D03*
X0545291Y0587167D03*
X0545291Y0592167D03*
X0545291Y0597167D03*
X0552791Y0597167D03*
X0552791Y0592167D03*
X0552791Y0587167D03*
X0552791Y0582167D03*
X0552891Y0642767D03*
X0552891Y0647767D03*
X0552891Y0652767D03*
X0552891Y0657767D03*
X0560391Y0657767D03*
X0560391Y0652767D03*
X0560391Y0647767D03*
X0560391Y0642767D03*
X0406196Y0294091D03*
X0406196Y0289091D03*
X0406196Y0284091D03*
X0406196Y0279091D03*
X0398696Y0279091D03*
X0398696Y0284091D03*
X0398696Y0289091D03*
X0398696Y0294091D03*
X0398696Y0266532D03*
X0398696Y0261532D03*
X0398696Y0256532D03*
X0398696Y0251532D03*
X0406196Y0251532D03*
X0406196Y0256532D03*
X0406196Y0261532D03*
X0406196Y0266532D03*
X0406196Y0238973D03*
X0406196Y0233973D03*
X0406196Y0228973D03*
X0406196Y0223973D03*
X0398696Y0223973D03*
X0398696Y0228973D03*
X0398696Y0233973D03*
X0398696Y0238973D03*
X0398696Y0211414D03*
X0398696Y0206414D03*
X0398696Y0201414D03*
X0398696Y0196414D03*
X0406196Y0196414D03*
X0406196Y0201414D03*
X0406196Y0206414D03*
X0406196Y0211414D03*
X0406196Y0183855D03*
X0406196Y0178855D03*
X0406196Y0173855D03*
X0406196Y0168855D03*
X0398696Y0168855D03*
X0398696Y0173855D03*
X0398696Y0178855D03*
X0398696Y0183855D03*
X0398696Y0156296D03*
X0398696Y0151296D03*
X0398696Y0146296D03*
X0398696Y0141296D03*
X0406196Y0141296D03*
X0406196Y0146296D03*
X0406196Y0151296D03*
X0406196Y0156296D03*
D18*
X0099353Y0334591D03*
X0099353Y0337741D03*
X0099353Y0340890D03*
X0099353Y0344040D03*
X0099353Y0347189D03*
X0099353Y0350339D03*
X0099353Y0353489D03*
X0099353Y0356638D03*
X0099353Y0359788D03*
X0099353Y0362938D03*
X0099353Y0366087D03*
X0099353Y0369237D03*
X0099353Y0372386D03*
X0099353Y0375536D03*
X0099353Y0378686D03*
X0099353Y0381835D03*
X0099353Y0384985D03*
X0099353Y0388134D03*
X0099353Y0391284D03*
X0099353Y0394434D03*
X0099353Y0397583D03*
X0099353Y0400733D03*
X0099353Y0403882D03*
X0099353Y0407032D03*
X0099353Y0410182D03*
X0099353Y0413331D03*
X0099353Y0416481D03*
X0056440Y0416481D03*
X0056440Y0413331D03*
X0056440Y0410182D03*
X0056440Y0407032D03*
X0056440Y0403882D03*
X0056440Y0400733D03*
X0056440Y0397583D03*
X0056440Y0394434D03*
X0056440Y0391284D03*
X0056440Y0388134D03*
X0056440Y0384985D03*
X0056440Y0381835D03*
X0056440Y0378686D03*
X0056440Y0375536D03*
X0056440Y0372386D03*
X0056440Y0369237D03*
X0056440Y0366087D03*
X0056440Y0362938D03*
X0056440Y0359788D03*
X0056440Y0356638D03*
X0056440Y0353489D03*
X0056440Y0350339D03*
X0056440Y0347189D03*
X0056440Y0344040D03*
X0056440Y0340890D03*
X0056440Y0337741D03*
X0056440Y0334591D03*
D19*
X0055041Y0578967D03*
X0055041Y0582667D03*
X0055041Y0586367D03*
X0064241Y0586367D03*
X0064241Y0578967D03*
X0064241Y0626767D03*
X0064241Y0634167D03*
X0055041Y0634167D03*
X0055041Y0630467D03*
X0055041Y0626767D03*
X0055041Y0651267D03*
X0055041Y0654967D03*
X0055041Y0658667D03*
X0064241Y0658667D03*
X0064241Y0651267D03*
X0064241Y0673267D03*
X0064241Y0680667D03*
X0055041Y0680667D03*
X0055041Y0676967D03*
X0055041Y0673267D03*
D20*
X0079629Y0676967D03*
X0090653Y0676967D03*
X0090653Y0654967D03*
X0079629Y0654967D03*
X0079629Y0630467D03*
X0090653Y0630467D03*
D21*
X0063381Y0610267D03*
X0055901Y0610267D03*
X0042481Y0571567D03*
X0035001Y0571567D03*
X0062001Y0557567D03*
X0069481Y0557567D03*
X0017381Y0646767D03*
X0009901Y0646767D03*
X0009901Y0670467D03*
X0017381Y0670467D03*
X0027401Y0398567D03*
X0034881Y0398567D03*
X0034881Y0374567D03*
X0027401Y0374567D03*
X0027401Y0350567D03*
X0034881Y0350567D03*
X0072375Y0321634D03*
X0079855Y0321634D03*
X0616201Y0537867D03*
X0623681Y0537867D03*
X0623681Y0553167D03*
X0616201Y0553167D03*
D22*
X0228180Y0534605D03*
X0228180Y0530668D03*
X0228180Y0526731D03*
X0228180Y0522794D03*
X0228180Y0518857D03*
X0228180Y0514920D03*
X0228180Y0510983D03*
X0228180Y0507046D03*
X0228180Y0503109D03*
X0228180Y0499172D03*
X0228180Y0495235D03*
X0228180Y0491298D03*
X0228180Y0487361D03*
X0228180Y0483424D03*
X0228180Y0479487D03*
X0228180Y0475550D03*
X0228180Y0471613D03*
X0228180Y0467676D03*
X0228180Y0463739D03*
X0228180Y0459802D03*
X0228180Y0455865D03*
X0228180Y0451928D03*
X0224243Y0451928D03*
X0224243Y0455865D03*
X0224243Y0459802D03*
X0224243Y0463739D03*
X0224243Y0467676D03*
X0224243Y0471613D03*
X0224243Y0475550D03*
X0224243Y0479487D03*
X0224243Y0483424D03*
X0224243Y0487361D03*
X0224243Y0491298D03*
X0224243Y0495235D03*
X0224243Y0499172D03*
X0224243Y0503109D03*
X0224243Y0507046D03*
X0224243Y0510983D03*
X0224243Y0514920D03*
X0224243Y0518857D03*
X0224243Y0522794D03*
X0224243Y0526731D03*
X0224243Y0530668D03*
X0224243Y0534605D03*
X0220306Y0534605D03*
X0220306Y0530668D03*
X0220306Y0526731D03*
X0220306Y0522794D03*
X0220306Y0518857D03*
X0220306Y0514920D03*
X0220306Y0510983D03*
X0220306Y0507046D03*
X0220306Y0503109D03*
X0220306Y0499172D03*
X0220306Y0495235D03*
X0220306Y0491298D03*
X0220306Y0487361D03*
X0220306Y0483424D03*
X0220306Y0479487D03*
X0220306Y0475550D03*
X0220306Y0471613D03*
X0220306Y0467676D03*
X0220306Y0463739D03*
X0220306Y0459802D03*
X0220306Y0455865D03*
X0220306Y0451928D03*
X0216369Y0451928D03*
X0216369Y0455865D03*
X0216369Y0459802D03*
X0216369Y0463739D03*
X0216369Y0467676D03*
X0216369Y0471613D03*
X0216369Y0475550D03*
X0216369Y0479487D03*
X0216369Y0483424D03*
X0216369Y0487361D03*
X0216369Y0491298D03*
X0216369Y0495235D03*
X0216369Y0499172D03*
X0216369Y0503109D03*
X0216369Y0507046D03*
X0216369Y0510983D03*
X0216369Y0514920D03*
X0216369Y0518857D03*
X0216369Y0522794D03*
X0216369Y0526731D03*
X0216369Y0530668D03*
X0216369Y0534605D03*
X0212432Y0534605D03*
X0212432Y0530668D03*
X0212432Y0526731D03*
X0212432Y0522794D03*
X0212432Y0518857D03*
X0212432Y0514920D03*
X0212432Y0510983D03*
X0212432Y0507046D03*
X0212432Y0503109D03*
X0212432Y0499172D03*
X0212432Y0495235D03*
X0212432Y0491298D03*
X0212432Y0487361D03*
X0212432Y0483424D03*
X0212432Y0479487D03*
X0212432Y0475550D03*
X0212432Y0471613D03*
X0212432Y0467676D03*
X0212432Y0463739D03*
X0212432Y0459802D03*
X0212432Y0455865D03*
X0212432Y0451928D03*
X0208495Y0451928D03*
X0208495Y0455865D03*
X0208495Y0459802D03*
X0208495Y0463739D03*
X0208495Y0467676D03*
X0208495Y0471613D03*
X0208495Y0475550D03*
X0208495Y0479487D03*
X0208495Y0483424D03*
X0208495Y0487361D03*
X0208495Y0491298D03*
X0208495Y0495235D03*
X0208495Y0499172D03*
X0208495Y0503109D03*
X0208495Y0507046D03*
X0208495Y0510983D03*
X0208495Y0514920D03*
X0208495Y0518857D03*
X0208495Y0522794D03*
X0208495Y0526731D03*
X0208495Y0530668D03*
X0208495Y0534605D03*
X0204558Y0534605D03*
X0204558Y0530668D03*
X0204558Y0526731D03*
X0204558Y0522794D03*
X0204558Y0518857D03*
X0204558Y0514920D03*
X0204558Y0510983D03*
X0204558Y0507046D03*
X0204558Y0503109D03*
X0204558Y0499172D03*
X0204558Y0495235D03*
X0204558Y0491298D03*
X0204558Y0487361D03*
X0204558Y0483424D03*
X0204558Y0479487D03*
X0204558Y0475550D03*
X0204558Y0471613D03*
X0204558Y0467676D03*
X0204558Y0463739D03*
X0204558Y0459802D03*
X0204558Y0455865D03*
X0204558Y0451928D03*
X0200621Y0451928D03*
X0200621Y0455865D03*
X0200621Y0459802D03*
X0200621Y0463739D03*
X0200621Y0467676D03*
X0200621Y0471613D03*
X0200621Y0475550D03*
X0200621Y0479487D03*
X0200621Y0483424D03*
X0200621Y0487361D03*
X0200621Y0491298D03*
X0200621Y0495235D03*
X0200621Y0499172D03*
X0200621Y0503109D03*
X0200621Y0507046D03*
X0200621Y0510983D03*
X0200621Y0514920D03*
X0200621Y0518857D03*
X0200621Y0522794D03*
X0200621Y0526731D03*
X0200621Y0530668D03*
X0200621Y0534605D03*
X0196684Y0534605D03*
X0196684Y0530668D03*
X0196684Y0526731D03*
X0196684Y0522794D03*
X0196684Y0518857D03*
X0196684Y0514920D03*
X0196684Y0510983D03*
X0196684Y0507046D03*
X0196684Y0503109D03*
X0196684Y0499172D03*
X0196684Y0495235D03*
X0196684Y0491298D03*
X0196684Y0487361D03*
X0196684Y0483424D03*
X0196684Y0479487D03*
X0196684Y0475550D03*
X0196684Y0471613D03*
X0196684Y0467676D03*
X0196684Y0463739D03*
X0196684Y0459802D03*
X0196684Y0455865D03*
X0196684Y0451928D03*
X0192747Y0451928D03*
X0192747Y0455865D03*
X0192747Y0459802D03*
X0192747Y0463739D03*
X0192747Y0467676D03*
X0192747Y0471613D03*
X0192747Y0475550D03*
X0192747Y0479487D03*
X0192747Y0483424D03*
X0192747Y0487361D03*
X0192747Y0491298D03*
X0192747Y0495235D03*
X0192747Y0499172D03*
X0192747Y0503109D03*
X0192747Y0507046D03*
X0192747Y0510983D03*
X0192747Y0514920D03*
X0192747Y0518857D03*
X0192747Y0522794D03*
X0192747Y0526731D03*
X0192747Y0530668D03*
X0192747Y0534605D03*
X0188810Y0534605D03*
X0188810Y0530668D03*
X0188810Y0526731D03*
X0188810Y0522794D03*
X0188810Y0518857D03*
X0188810Y0514920D03*
X0188810Y0510983D03*
X0188810Y0507046D03*
X0188810Y0503109D03*
X0188810Y0499172D03*
X0188810Y0495235D03*
X0188810Y0491298D03*
X0188810Y0487361D03*
X0188810Y0483424D03*
X0188810Y0479487D03*
X0188810Y0475550D03*
X0188810Y0471613D03*
X0188810Y0467676D03*
X0188810Y0463739D03*
X0188810Y0459802D03*
X0188810Y0455865D03*
X0188810Y0451928D03*
X0184873Y0451928D03*
X0184873Y0455865D03*
X0184873Y0459802D03*
X0184873Y0463739D03*
X0184873Y0467676D03*
X0184873Y0471613D03*
X0184873Y0475550D03*
X0184873Y0479487D03*
X0184873Y0483424D03*
X0184873Y0487361D03*
X0184873Y0491298D03*
X0184873Y0495235D03*
X0184873Y0499172D03*
X0184873Y0503109D03*
X0184873Y0507046D03*
X0184873Y0510983D03*
X0184873Y0514920D03*
X0184873Y0518857D03*
X0184873Y0522794D03*
X0184873Y0526731D03*
X0184873Y0530668D03*
X0184873Y0534605D03*
X0180936Y0534605D03*
X0180936Y0530668D03*
X0180936Y0526731D03*
X0180936Y0522794D03*
X0180936Y0518857D03*
X0180936Y0514920D03*
X0180936Y0510983D03*
X0180936Y0507046D03*
X0180936Y0503109D03*
X0180936Y0499172D03*
X0180936Y0495235D03*
X0180936Y0491298D03*
X0180936Y0487361D03*
X0180936Y0483424D03*
X0180936Y0479487D03*
X0180936Y0475550D03*
X0180936Y0471613D03*
X0180936Y0467676D03*
X0180936Y0463739D03*
X0180936Y0459802D03*
X0180936Y0455865D03*
X0180936Y0451928D03*
X0176999Y0451928D03*
X0176999Y0455865D03*
X0176999Y0459802D03*
X0176999Y0463739D03*
X0176999Y0467676D03*
X0176999Y0471613D03*
X0176999Y0475550D03*
X0176999Y0479487D03*
X0176999Y0483424D03*
X0176999Y0487361D03*
X0176999Y0491298D03*
X0176999Y0495235D03*
X0176999Y0499172D03*
X0176999Y0503109D03*
X0176999Y0507046D03*
X0176999Y0510983D03*
X0176999Y0514920D03*
X0176999Y0518857D03*
X0176999Y0522794D03*
X0176999Y0526731D03*
X0176999Y0530668D03*
X0176999Y0534605D03*
X0173062Y0534605D03*
X0173062Y0530668D03*
X0173062Y0526731D03*
X0173062Y0522794D03*
X0173062Y0518857D03*
X0173062Y0514920D03*
X0173062Y0510983D03*
X0173062Y0507046D03*
X0173062Y0503109D03*
X0173062Y0499172D03*
X0173062Y0495235D03*
X0173062Y0491298D03*
X0173062Y0487361D03*
X0173062Y0483424D03*
X0173062Y0479487D03*
X0173062Y0475550D03*
X0173062Y0471613D03*
X0173062Y0467676D03*
X0173062Y0463739D03*
X0173062Y0459802D03*
X0173062Y0455865D03*
X0173062Y0451928D03*
X0169125Y0451928D03*
X0169125Y0455865D03*
X0169125Y0459802D03*
X0169125Y0463739D03*
X0169125Y0467676D03*
X0169125Y0471613D03*
X0169125Y0475550D03*
X0169125Y0479487D03*
X0169125Y0483424D03*
X0169125Y0487361D03*
X0169125Y0491298D03*
X0169125Y0495235D03*
X0169125Y0499172D03*
X0169125Y0503109D03*
X0169125Y0507046D03*
X0169125Y0510983D03*
X0169125Y0514920D03*
X0169125Y0518857D03*
X0169125Y0522794D03*
X0169125Y0526731D03*
X0169125Y0530668D03*
X0169125Y0534605D03*
X0165188Y0534605D03*
X0165188Y0530668D03*
X0165188Y0526731D03*
X0165188Y0522794D03*
X0165188Y0518857D03*
X0165188Y0514920D03*
X0165188Y0510983D03*
X0165188Y0507046D03*
X0165188Y0503109D03*
X0165188Y0499172D03*
X0165188Y0495235D03*
X0165188Y0491298D03*
X0165188Y0487361D03*
X0165188Y0483424D03*
X0165188Y0479487D03*
X0165188Y0475550D03*
X0165188Y0471613D03*
X0165188Y0467676D03*
X0165188Y0463739D03*
X0165188Y0459802D03*
X0165188Y0455865D03*
X0165188Y0451928D03*
X0161251Y0451928D03*
X0161251Y0455865D03*
X0161251Y0459802D03*
X0161251Y0463739D03*
X0161251Y0467676D03*
X0161251Y0471613D03*
X0161251Y0475550D03*
X0161251Y0479487D03*
X0161251Y0483424D03*
X0161251Y0487361D03*
X0161251Y0491298D03*
X0161251Y0495235D03*
X0161251Y0499172D03*
X0161251Y0503109D03*
X0161251Y0507046D03*
X0161251Y0510983D03*
X0161251Y0514920D03*
X0161251Y0518857D03*
X0161251Y0522794D03*
X0161251Y0526731D03*
X0161251Y0530668D03*
X0161251Y0534605D03*
X0157314Y0534605D03*
X0157314Y0530668D03*
X0157314Y0526731D03*
X0157314Y0522794D03*
X0157314Y0518857D03*
X0157314Y0514920D03*
X0157314Y0510983D03*
X0157314Y0507046D03*
X0157314Y0503109D03*
X0157314Y0499172D03*
X0157314Y0495235D03*
X0157314Y0491298D03*
X0157314Y0487361D03*
X0157314Y0483424D03*
X0157314Y0479487D03*
X0157314Y0475550D03*
X0157314Y0471613D03*
X0157314Y0467676D03*
X0157314Y0463739D03*
X0157314Y0459802D03*
X0157314Y0455865D03*
X0157314Y0451928D03*
X0153377Y0451928D03*
X0153377Y0455865D03*
X0153377Y0459802D03*
X0153377Y0463739D03*
X0153377Y0467676D03*
X0153377Y0471613D03*
X0153377Y0475550D03*
X0153377Y0479487D03*
X0153377Y0483424D03*
X0153377Y0487361D03*
X0153377Y0491298D03*
X0153377Y0495235D03*
X0153377Y0499172D03*
X0153377Y0503109D03*
X0153377Y0507046D03*
X0153377Y0510983D03*
X0153377Y0514920D03*
X0153377Y0518857D03*
X0153377Y0522794D03*
X0153377Y0526731D03*
X0153377Y0530668D03*
X0153377Y0534605D03*
X0149440Y0534605D03*
X0149440Y0530668D03*
X0149440Y0526731D03*
X0149440Y0522794D03*
X0149440Y0518857D03*
X0149440Y0514920D03*
X0149440Y0510983D03*
X0149440Y0507046D03*
X0149440Y0503109D03*
X0149440Y0499172D03*
X0149440Y0495235D03*
X0149440Y0491298D03*
X0149440Y0487361D03*
X0149440Y0483424D03*
X0149440Y0479487D03*
X0149440Y0475550D03*
X0149440Y0471613D03*
X0149440Y0467676D03*
X0149440Y0463739D03*
X0149440Y0459802D03*
X0149440Y0455865D03*
X0149440Y0451928D03*
X0145503Y0451928D03*
X0145503Y0455865D03*
X0145503Y0459802D03*
X0145503Y0463739D03*
X0145503Y0467676D03*
X0145503Y0471613D03*
X0145503Y0475550D03*
X0145503Y0479487D03*
X0145503Y0483424D03*
X0145503Y0487361D03*
X0145503Y0491298D03*
X0145503Y0495235D03*
X0145503Y0499172D03*
X0145503Y0503109D03*
X0145503Y0507046D03*
X0145503Y0510983D03*
X0145503Y0514920D03*
X0145503Y0518857D03*
X0145503Y0522794D03*
X0145503Y0526731D03*
X0145503Y0530668D03*
X0145503Y0534605D03*
D23*
X0031655Y0688660D03*
X0020458Y0688660D03*
X0020043Y0261467D03*
X0031240Y0261467D03*
X0448543Y0697767D03*
X0459740Y0697767D03*
D24*
X0165429Y0228567D03*
X0176453Y0228567D03*
X0176453Y0257767D03*
X0165429Y0257767D03*
D25*
X0078541Y0520567D03*
X0078541Y0525567D03*
X0078541Y0530567D03*
X0078541Y0535567D03*
X0059141Y0535567D03*
X0059141Y0530567D03*
X0059141Y0525567D03*
X0059141Y0520567D03*
D26*
X0061203Y0511492D03*
X0056203Y0511492D03*
X0051203Y0511492D03*
X0066203Y0511492D03*
X0071203Y0511492D03*
X0076203Y0511492D03*
X0081203Y0511492D03*
X0086203Y0511492D03*
X0086203Y0544641D03*
X0081203Y0544641D03*
X0076203Y0544641D03*
X0071203Y0544641D03*
X0066203Y0544641D03*
X0061203Y0544641D03*
X0056203Y0544641D03*
X0051203Y0544641D03*
D27*
X0066440Y0737719D03*
X0068409Y0737719D03*
X0070377Y0737719D03*
X0072346Y0737719D03*
X0074314Y0737719D03*
X0076283Y0737719D03*
X0078251Y0737719D03*
X0080220Y0737719D03*
X0082188Y0737719D03*
X0084157Y0737719D03*
X0086125Y0737719D03*
X0088094Y0737719D03*
X0090062Y0737719D03*
X0092031Y0737719D03*
X0093999Y0737719D03*
X0095968Y0737719D03*
X0097936Y0737719D03*
X0099905Y0737719D03*
X0101873Y0737719D03*
D28*
X0103366Y0719417D03*
X0098366Y0719417D03*
X0093366Y0719417D03*
X0088366Y0719417D03*
X0088366Y0711917D03*
X0093366Y0711917D03*
X0098366Y0711917D03*
X0103366Y0711917D03*
X0076507Y0711917D03*
X0071507Y0711917D03*
X0066507Y0711917D03*
X0061507Y0711917D03*
X0061507Y0719417D03*
X0066507Y0719417D03*
X0071507Y0719417D03*
X0076507Y0719417D03*
X0487041Y0654017D03*
X0492041Y0654017D03*
X0497041Y0654017D03*
X0502041Y0654017D03*
X0502041Y0646517D03*
X0497041Y0646517D03*
X0492041Y0646517D03*
X0487041Y0646517D03*
X0520641Y0646517D03*
X0525641Y0646517D03*
X0530641Y0646517D03*
X0535641Y0646517D03*
X0535641Y0654017D03*
X0530641Y0654017D03*
X0525641Y0654017D03*
X0520641Y0654017D03*
X0583341Y0654017D03*
X0588341Y0654017D03*
X0593341Y0654017D03*
X0598341Y0654017D03*
X0598341Y0646517D03*
X0593341Y0646517D03*
X0588341Y0646517D03*
X0583341Y0646517D03*
D29*
X0183741Y0295297D03*
X0180001Y0286636D03*
X0187481Y0286636D03*
X0034881Y0331236D03*
X0027401Y0331236D03*
X0031141Y0339897D03*
D30*
X0177654Y0339423D03*
X0177654Y0336864D03*
X0177654Y0334305D03*
X0177654Y0331746D03*
X0177654Y0329187D03*
X0177654Y0326628D03*
X0177654Y0324069D03*
X0177654Y0321510D03*
X0177654Y0318951D03*
X0177654Y0316392D03*
X0200629Y0316392D03*
X0200629Y0318951D03*
X0200629Y0321510D03*
X0200629Y0324069D03*
X0200629Y0326628D03*
X0200629Y0329187D03*
X0200629Y0331746D03*
X0200629Y0334305D03*
X0200629Y0336864D03*
X0200629Y0339423D03*
X0200629Y0341982D03*
X0200629Y0344541D03*
X0177654Y0344541D03*
X0177654Y0341982D03*
X0448354Y0340951D03*
X0448354Y0343510D03*
X0448354Y0346069D03*
X0448354Y0348628D03*
X0448354Y0351187D03*
X0448354Y0353746D03*
X0448354Y0356305D03*
X0448354Y0358864D03*
X0448354Y0361423D03*
X0448354Y0363982D03*
X0448354Y0366541D03*
X0471329Y0366541D03*
X0471329Y0363982D03*
X0471329Y0361423D03*
X0471329Y0358864D03*
X0471329Y0356305D03*
X0471329Y0353746D03*
X0471329Y0351187D03*
X0471329Y0348628D03*
X0471329Y0346069D03*
X0471329Y0343510D03*
X0471329Y0340951D03*
X0471329Y0338392D03*
X0448354Y0338392D03*
X0448354Y0305541D03*
X0448354Y0302982D03*
X0448354Y0300423D03*
X0448354Y0297864D03*
X0448354Y0295305D03*
X0448354Y0292746D03*
X0448354Y0290187D03*
X0448354Y0287628D03*
X0448354Y0285069D03*
X0448354Y0282510D03*
X0448354Y0279951D03*
X0448354Y0277392D03*
X0471329Y0277392D03*
X0471329Y0279951D03*
X0471329Y0282510D03*
X0471329Y0285069D03*
X0471329Y0287628D03*
X0471329Y0290187D03*
X0471329Y0292746D03*
X0471329Y0295305D03*
X0471329Y0297864D03*
X0471329Y0300423D03*
X0471329Y0302982D03*
X0471329Y0305541D03*
X0471329Y0239341D03*
X0471329Y0236782D03*
X0471329Y0234223D03*
X0471329Y0231664D03*
X0471329Y0229105D03*
X0471329Y0226546D03*
X0471329Y0223987D03*
X0471329Y0221428D03*
X0471329Y0218869D03*
X0471329Y0216310D03*
X0471329Y0213751D03*
X0471329Y0211192D03*
X0448354Y0211192D03*
X0448354Y0213751D03*
X0448354Y0216310D03*
X0448354Y0218869D03*
X0448354Y0221428D03*
X0448354Y0223987D03*
X0448354Y0226546D03*
X0448354Y0229105D03*
X0448354Y0231664D03*
X0448354Y0234223D03*
X0448354Y0236782D03*
X0448354Y0239341D03*
X0448354Y0178541D03*
X0448354Y0175982D03*
X0448354Y0173423D03*
X0448354Y0170864D03*
X0448354Y0168305D03*
X0448354Y0165746D03*
X0448354Y0163187D03*
X0448354Y0160628D03*
X0448354Y0158069D03*
X0448354Y0155510D03*
X0448354Y0152951D03*
X0448354Y0150392D03*
X0471329Y0150392D03*
X0471329Y0152951D03*
X0471329Y0155510D03*
X0471329Y0158069D03*
X0471329Y0160628D03*
X0471329Y0163187D03*
X0471329Y0165746D03*
X0471329Y0168305D03*
X0471329Y0170864D03*
X0471329Y0173423D03*
X0471329Y0175982D03*
X0471329Y0178541D03*
X0494954Y0585157D03*
X0494954Y0587716D03*
X0494954Y0590275D03*
X0494954Y0592834D03*
X0494954Y0595393D03*
X0494954Y0597952D03*
X0494954Y0600512D03*
X0494954Y0603071D03*
X0494954Y0605630D03*
X0494954Y0608189D03*
X0494954Y0610748D03*
X0494954Y0613307D03*
X0517929Y0613307D03*
X0517929Y0610748D03*
X0517929Y0608189D03*
X0517929Y0605630D03*
X0517929Y0603071D03*
X0517929Y0600512D03*
X0517929Y0597952D03*
X0517929Y0595393D03*
X0517929Y0592834D03*
X0517929Y0590275D03*
X0517929Y0587716D03*
X0517929Y0585157D03*
D31*
X0437541Y0676474D03*
X0437541Y0689860D03*
X0212141Y0299260D03*
X0212141Y0285874D03*
D32*
X0199141Y0286968D03*
X0199141Y0298165D03*
D33*
X0395753Y0125967D03*
X0409139Y0125967D03*
D34*
X0409495Y0655217D03*
X0402802Y0655217D03*
X0392959Y0655217D03*
X0383117Y0655217D03*
X0373274Y0655217D03*
X0366581Y0655217D03*
X0359298Y0655217D03*
X0353392Y0655217D03*
X0343156Y0655217D03*
X0333510Y0655217D03*
X0422093Y0655217D03*
D35*
X0425589Y0687894D03*
X0312692Y0687894D03*
D36*
X0495418Y0554047D03*
X0495418Y0551488D03*
X0495418Y0548929D03*
X0495418Y0546370D03*
X0495418Y0543811D03*
X0495418Y0541252D03*
X0495418Y0538693D03*
X0517465Y0538889D03*
X0517465Y0541449D03*
X0517465Y0544008D03*
X0517465Y0546567D03*
X0517465Y0549126D03*
X0517465Y0551685D03*
X0517465Y0554244D03*
D37*
X0556041Y0551867D03*
X0556041Y0556867D03*
X0556041Y0561867D03*
X0556041Y0566867D03*
X0556041Y0546867D03*
X0556041Y0541867D03*
X0556041Y0536867D03*
X0580241Y0536867D03*
X0580241Y0541867D03*
X0580241Y0546867D03*
X0580241Y0551867D03*
X0580241Y0556867D03*
X0580241Y0561867D03*
X0580241Y0566867D03*
X0579641Y0501567D03*
X0579641Y0496567D03*
X0579641Y0491567D03*
X0579641Y0486567D03*
X0579641Y0481567D03*
X0579641Y0476567D03*
X0579641Y0471567D03*
X0579641Y0466567D03*
X0618241Y0466567D03*
X0618241Y0471567D03*
X0618241Y0476567D03*
X0618241Y0481567D03*
X0618241Y0486567D03*
X0618241Y0491567D03*
X0618241Y0496567D03*
X0618241Y0501567D03*
D38*
X0634007Y0512467D03*
X0642275Y0512467D03*
X0653007Y0512467D03*
X0661275Y0512467D03*
X0035275Y0410567D03*
X0027007Y0410567D03*
X0027007Y0386567D03*
X0035275Y0386567D03*
X0035275Y0362567D03*
X0027007Y0362567D03*
M02*
