G75*
%MOIN*%
%OFA0B0*%
%FSLAX25Y25*%
%IPPOS*%
%LPD*%
%AMOC8*
5,1,8,0,0,1.08239X$1,22.5*
%
%ADD10C,0.01100*%
%ADD11R,0.00250X0.00050*%
%ADD12R,0.01300X0.00050*%
%ADD13R,0.00200X0.00050*%
%ADD14R,0.00450X0.00050*%
%ADD15R,0.00650X0.00050*%
%ADD16R,0.00600X0.00050*%
%ADD17R,0.00850X0.00050*%
%ADD18R,0.00800X0.00050*%
%ADD19R,0.00950X0.00050*%
%ADD20R,0.01100X0.00050*%
%ADD21R,0.01250X0.00050*%
%ADD22R,0.01350X0.00050*%
%ADD23R,0.01450X0.00050*%
%ADD24R,0.01600X0.00050*%
%ADD25R,0.01650X0.00050*%
%ADD26R,0.01750X0.00050*%
%ADD27R,0.01850X0.00050*%
%ADD28R,0.01950X0.00050*%
%ADD29R,0.02050X0.00050*%
%ADD30R,0.02150X0.00050*%
%ADD31R,0.02100X0.00050*%
%ADD32R,0.02200X0.00050*%
%ADD33R,0.02300X0.00050*%
%ADD34R,0.02350X0.00050*%
%ADD35R,0.02450X0.00050*%
%ADD36R,0.02400X0.00050*%
%ADD37R,0.02500X0.00050*%
%ADD38R,0.02550X0.00050*%
%ADD39R,0.02650X0.00050*%
%ADD40R,0.02700X0.00050*%
%ADD41R,0.02750X0.00050*%
%ADD42R,0.02850X0.00050*%
%ADD43R,0.02950X0.00050*%
%ADD44R,0.02900X0.00050*%
%ADD45R,0.02250X0.00050*%
%ADD46R,0.02000X0.00050*%
%ADD47R,0.01900X0.00050*%
%ADD48R,0.01800X0.00050*%
%ADD49R,0.01700X0.00050*%
%ADD50R,0.01550X0.00050*%
%ADD51R,0.01500X0.00050*%
%ADD52R,0.01400X0.00050*%
%ADD53R,0.01200X0.00050*%
%ADD54R,0.01150X0.00050*%
%ADD55R,0.01050X0.00050*%
%ADD56R,0.01000X0.00050*%
%ADD57R,0.00900X0.00050*%
%ADD58R,0.00750X0.00050*%
%ADD59R,0.00700X0.00050*%
%ADD60R,0.05918X0.07099*%
%ADD61R,0.05918X0.13792*%
%ADD62R,0.06706X0.05918*%
%ADD63C,0.08200*%
%ADD64C,0.20800*%
%ADD65R,0.01900X0.06600*%
%ADD66R,0.06600X0.01900*%
%ADD67R,0.14600X0.14600*%
%ADD68R,0.07099X0.05918*%
%ADD69R,0.05524X0.03950*%
%ADD70R,0.07099X0.02375*%
%ADD71R,0.06000X0.03000*%
%ADD72R,0.07099X0.09461*%
%ADD73R,0.05918X0.06706*%
%ADD74C,0.02296*%
%ADD75C,0.01200*%
%ADD76R,0.07099X0.07898*%
%ADD77R,0.07099X0.07887*%
%ADD78OC8,0.06115*%
%ADD79C,0.13461*%
%ADD80OC8,0.04639*%
%ADD81R,0.08600X0.03000*%
%ADD82R,0.03000X0.08600*%
%ADD83C,0.08477*%
%ADD84R,0.01981X0.11036*%
%ADD85R,0.03950X0.05524*%
%ADD86C,0.06200*%
%ADD87C,0.23800*%
%ADD88OC8,0.11430*%
%ADD89R,0.04737X0.06312*%
%ADD90R,0.04700X0.02000*%
%ADD91R,0.03950X0.07099*%
%ADD92R,0.07898X0.07099*%
%ADD93R,0.07099X0.03950*%
%ADD94R,0.04600X0.08400*%
%ADD95R,0.08400X0.15800*%
%ADD96OC8,0.06800*%
%ADD97R,0.07099X0.02178*%
%ADD98R,0.08800X0.03400*%
%ADD99C,0.13800*%
%ADD100OC8,0.10249*%
%ADD101C,0.06200*%
%ADD102C,0.13900*%
%ADD103OC8,0.06200*%
%ADD104R,0.05524X0.05524*%
%ADD105C,0.06800*%
%ADD106OC8,0.02600*%
%ADD107OC8,0.03753*%
%ADD108OC8,0.04343*%
%ADD109OC8,0.03800*%
%ADD110OC8,0.03100*%
D10*
X0189860Y0112358D02*
X0191829Y0110390D01*
X0193797Y0112358D01*
X0193797Y0116295D01*
X0196306Y0113342D02*
X0196306Y0111374D01*
X0197290Y0110390D01*
X0199259Y0110390D01*
X0200243Y0112358D02*
X0196306Y0112358D01*
X0196306Y0113342D02*
X0197290Y0114327D01*
X0199259Y0114327D01*
X0200243Y0113342D01*
X0200243Y0112358D01*
X0202751Y0112358D02*
X0204720Y0114327D01*
X0205704Y0114327D01*
X0208123Y0113342D02*
X0209107Y0114327D01*
X0212059Y0114327D01*
X0211075Y0112358D02*
X0209107Y0112358D01*
X0208123Y0113342D01*
X0208123Y0110390D02*
X0211075Y0110390D01*
X0212059Y0111374D01*
X0211075Y0112358D01*
X0214568Y0110390D02*
X0216537Y0110390D01*
X0215552Y0110390D02*
X0215552Y0114327D01*
X0214568Y0114327D01*
X0215552Y0116295D02*
X0215552Y0117279D01*
X0215642Y0120890D02*
X0215642Y0126795D01*
X0218595Y0124827D02*
X0215642Y0122858D01*
X0218595Y0120890D01*
X0221014Y0120890D02*
X0223966Y0120890D01*
X0224950Y0121874D01*
X0223966Y0122858D01*
X0221998Y0122858D01*
X0221014Y0123842D01*
X0221998Y0124827D01*
X0224950Y0124827D01*
X0225040Y0131390D02*
X0223072Y0131390D01*
X0222088Y0132374D01*
X0222088Y0134342D01*
X0223072Y0135327D01*
X0225040Y0135327D01*
X0226025Y0134342D01*
X0226025Y0133358D01*
X0222088Y0133358D01*
X0219579Y0134342D02*
X0218595Y0133358D01*
X0215642Y0133358D01*
X0215642Y0131390D02*
X0215642Y0137295D01*
X0218595Y0137295D01*
X0219579Y0136311D01*
X0219579Y0134342D01*
X0217611Y0133358D02*
X0219579Y0131390D01*
X0228533Y0131390D02*
X0228533Y0135327D01*
X0228533Y0133358D02*
X0230502Y0135327D01*
X0231486Y0135327D01*
X0233905Y0134342D02*
X0233905Y0132374D01*
X0234889Y0131390D01*
X0236857Y0131390D01*
X0237841Y0132374D01*
X0237841Y0134342D01*
X0236857Y0135327D01*
X0234889Y0135327D01*
X0233905Y0134342D01*
X0240350Y0135327D02*
X0240350Y0132374D01*
X0241334Y0131390D01*
X0244287Y0131390D01*
X0244287Y0135327D01*
X0246796Y0135327D02*
X0248764Y0135327D01*
X0247780Y0136311D02*
X0247780Y0132374D01*
X0248764Y0131390D01*
X0251093Y0132374D02*
X0251093Y0134342D01*
X0252077Y0135327D01*
X0254045Y0135327D01*
X0255029Y0134342D01*
X0255029Y0133358D01*
X0251093Y0133358D01*
X0251093Y0132374D02*
X0252077Y0131390D01*
X0254045Y0131390D01*
X0255029Y0126795D02*
X0255029Y0120890D01*
X0257538Y0121874D02*
X0258522Y0122858D01*
X0261475Y0122858D01*
X0261475Y0123842D02*
X0261475Y0120890D01*
X0258522Y0120890D01*
X0257538Y0121874D01*
X0258522Y0124827D02*
X0260491Y0124827D01*
X0261475Y0123842D01*
X0263984Y0124827D02*
X0265952Y0124827D01*
X0264968Y0125811D02*
X0264968Y0121874D01*
X0265952Y0120890D01*
X0269265Y0121874D02*
X0270249Y0120890D01*
X0269265Y0121874D02*
X0269265Y0125811D01*
X0268281Y0124827D02*
X0270249Y0124827D01*
X0272578Y0123842D02*
X0273562Y0124827D01*
X0275530Y0124827D01*
X0276514Y0123842D01*
X0276514Y0120890D01*
X0279023Y0120890D02*
X0280992Y0120890D01*
X0280007Y0120890D02*
X0280007Y0124827D01*
X0279023Y0124827D01*
X0280007Y0126795D02*
X0280007Y0127779D01*
X0283320Y0131390D02*
X0283320Y0137295D01*
X0286273Y0137295D01*
X0287257Y0136311D01*
X0287257Y0134342D01*
X0286273Y0133358D01*
X0283320Y0133358D01*
X0289766Y0132374D02*
X0290750Y0133358D01*
X0293702Y0133358D01*
X0293702Y0134342D02*
X0293702Y0131390D01*
X0290750Y0131390D01*
X0289766Y0132374D01*
X0290750Y0135327D02*
X0292718Y0135327D01*
X0293702Y0134342D01*
X0296211Y0135327D02*
X0299164Y0135327D01*
X0300148Y0134342D01*
X0300148Y0131390D01*
X0302657Y0132374D02*
X0303641Y0131390D01*
X0305609Y0131390D01*
X0306593Y0132374D01*
X0306593Y0134342D01*
X0305609Y0135327D01*
X0303641Y0135327D01*
X0302657Y0134342D01*
X0302657Y0132374D01*
X0302657Y0126795D02*
X0305609Y0126795D01*
X0306593Y0125811D01*
X0306593Y0123842D01*
X0305609Y0122858D01*
X0302657Y0122858D01*
X0304625Y0122858D02*
X0306593Y0120890D01*
X0309102Y0121874D02*
X0310086Y0120890D01*
X0312055Y0120890D01*
X0313039Y0122858D02*
X0309102Y0122858D01*
X0309102Y0121874D02*
X0309102Y0123842D01*
X0310086Y0124827D01*
X0312055Y0124827D01*
X0313039Y0123842D01*
X0313039Y0122858D01*
X0315548Y0120890D02*
X0317516Y0120890D01*
X0316532Y0120890D02*
X0316532Y0124827D01*
X0315548Y0124827D01*
X0316532Y0126795D02*
X0316532Y0127779D01*
X0319845Y0123842D02*
X0319845Y0121874D01*
X0320829Y0120890D01*
X0323781Y0120890D01*
X0326290Y0120890D02*
X0326290Y0126795D01*
X0327274Y0124827D02*
X0329243Y0124827D01*
X0330227Y0123842D01*
X0330227Y0120890D01*
X0332736Y0120890D02*
X0334704Y0120890D01*
X0333720Y0120890D02*
X0333720Y0126795D01*
X0332736Y0126795D01*
X0332375Y0131390D02*
X0329423Y0131390D01*
X0328439Y0132374D01*
X0329423Y0133358D01*
X0332375Y0133358D01*
X0332375Y0134342D02*
X0332375Y0131390D01*
X0334884Y0131390D02*
X0334884Y0135327D01*
X0337837Y0135327D01*
X0338821Y0134342D01*
X0338821Y0131390D01*
X0342314Y0132374D02*
X0343298Y0131390D01*
X0342314Y0132374D02*
X0342314Y0136311D01*
X0341330Y0135327D02*
X0343298Y0135327D01*
X0345627Y0134342D02*
X0345627Y0132374D01*
X0346611Y0131390D01*
X0348579Y0131390D01*
X0349563Y0132374D01*
X0349563Y0134342D01*
X0348579Y0135327D01*
X0346611Y0135327D01*
X0345627Y0134342D01*
X0352072Y0134342D02*
X0353056Y0135327D01*
X0356009Y0135327D01*
X0355025Y0133358D02*
X0353056Y0133358D01*
X0352072Y0134342D01*
X0352072Y0131390D02*
X0355025Y0131390D01*
X0356009Y0132374D01*
X0355025Y0133358D01*
X0354221Y0152390D02*
X0354221Y0156327D01*
X0356189Y0156327D02*
X0357173Y0156327D01*
X0356189Y0156327D02*
X0354221Y0154358D01*
X0351712Y0154358D02*
X0348759Y0154358D01*
X0347775Y0153374D01*
X0348759Y0152390D01*
X0351712Y0152390D01*
X0351712Y0155342D01*
X0350728Y0156327D01*
X0348759Y0156327D01*
X0345266Y0156327D02*
X0345266Y0153374D01*
X0344282Y0152390D01*
X0343298Y0153374D01*
X0342314Y0152390D01*
X0341330Y0153374D01*
X0341330Y0156327D01*
X0338821Y0156327D02*
X0335868Y0156327D01*
X0334884Y0155342D01*
X0334884Y0153374D01*
X0335868Y0152390D01*
X0338821Y0152390D01*
X0338821Y0158295D01*
X0332465Y0156327D02*
X0331481Y0156327D01*
X0329513Y0154358D01*
X0329513Y0152390D02*
X0329513Y0156327D01*
X0327004Y0155342D02*
X0327004Y0152390D01*
X0324052Y0152390D01*
X0323067Y0153374D01*
X0324052Y0154358D01*
X0327004Y0154358D01*
X0327004Y0155342D02*
X0326020Y0156327D01*
X0324052Y0156327D01*
X0320559Y0155342D02*
X0316622Y0155342D01*
X0316622Y0152390D02*
X0316622Y0158295D01*
X0320559Y0158295D02*
X0320559Y0152390D01*
X0319574Y0145827D02*
X0320559Y0144842D01*
X0320559Y0141890D01*
X0316622Y0141890D02*
X0316622Y0145827D01*
X0319574Y0145827D01*
X0314113Y0144842D02*
X0313129Y0145827D01*
X0311161Y0145827D01*
X0310176Y0144842D01*
X0310176Y0142874D01*
X0311161Y0141890D01*
X0313129Y0141890D01*
X0314113Y0142874D01*
X0314113Y0144842D01*
X0307668Y0145827D02*
X0304715Y0145827D01*
X0303731Y0144842D01*
X0304715Y0143858D01*
X0306683Y0143858D01*
X0307668Y0142874D01*
X0306683Y0141890D01*
X0303731Y0141890D01*
X0301402Y0141890D02*
X0300418Y0142874D01*
X0300418Y0146811D01*
X0299434Y0145827D02*
X0301402Y0145827D01*
X0296925Y0144842D02*
X0296925Y0141890D01*
X0293973Y0141890D01*
X0292988Y0142874D01*
X0293973Y0143858D01*
X0296925Y0143858D01*
X0296925Y0144842D02*
X0295941Y0145827D01*
X0293973Y0145827D01*
X0290480Y0147795D02*
X0290480Y0141890D01*
X0288511Y0143858D01*
X0286543Y0141890D01*
X0286543Y0147795D01*
X0285198Y0152390D02*
X0286183Y0153374D01*
X0286183Y0155342D01*
X0285198Y0156327D01*
X0282246Y0156327D01*
X0282246Y0158295D02*
X0282246Y0152390D01*
X0285198Y0152390D01*
X0288691Y0152390D02*
X0290660Y0152390D01*
X0289676Y0152390D02*
X0289676Y0156327D01*
X0288691Y0156327D01*
X0289676Y0158295D02*
X0289676Y0159279D01*
X0292988Y0156327D02*
X0294957Y0156327D01*
X0293973Y0157311D02*
X0293973Y0153374D01*
X0294957Y0152390D01*
X0279737Y0155342D02*
X0275800Y0155342D01*
X0273292Y0154358D02*
X0273292Y0153374D01*
X0272307Y0152390D01*
X0270339Y0152390D01*
X0269355Y0153374D01*
X0269355Y0154358D01*
X0270339Y0155342D01*
X0272307Y0155342D01*
X0273292Y0154358D01*
X0272307Y0155342D02*
X0273292Y0156327D01*
X0273292Y0157311D01*
X0272307Y0158295D01*
X0270339Y0158295D01*
X0269355Y0157311D01*
X0269355Y0156327D01*
X0270339Y0155342D01*
X0274726Y0147795D02*
X0274726Y0141890D01*
X0274726Y0143858D02*
X0277679Y0145827D01*
X0274726Y0143858D02*
X0277679Y0141890D01*
X0272307Y0145827D02*
X0271323Y0145827D01*
X0269355Y0143858D01*
X0269355Y0141890D02*
X0269355Y0145827D01*
X0266846Y0144842D02*
X0265862Y0145827D01*
X0263894Y0145827D01*
X0263894Y0143858D02*
X0262909Y0142874D01*
X0263894Y0141890D01*
X0266846Y0141890D01*
X0266846Y0144842D01*
X0266846Y0143858D02*
X0263894Y0143858D01*
X0260401Y0141890D02*
X0260401Y0147795D01*
X0258432Y0145827D01*
X0256464Y0147795D01*
X0256464Y0141890D01*
X0247510Y0141890D02*
X0244557Y0141890D01*
X0243573Y0142874D01*
X0243573Y0145827D01*
X0241064Y0144842D02*
X0240080Y0145827D01*
X0237127Y0145827D01*
X0237127Y0147795D02*
X0237127Y0141890D01*
X0240080Y0141890D01*
X0241064Y0142874D01*
X0241064Y0144842D01*
X0247510Y0145827D02*
X0247510Y0140906D01*
X0246525Y0139922D01*
X0245541Y0139922D01*
X0246706Y0152390D02*
X0245721Y0153374D01*
X0245721Y0155342D01*
X0246706Y0156327D01*
X0248674Y0156327D01*
X0249658Y0155342D01*
X0249658Y0154358D01*
X0245721Y0154358D01*
X0246706Y0152390D02*
X0248674Y0152390D01*
X0253151Y0153374D02*
X0254135Y0152390D01*
X0253151Y0153374D02*
X0253151Y0157311D01*
X0252167Y0156327D02*
X0254135Y0156327D01*
X0256464Y0155342D02*
X0257448Y0156327D01*
X0259416Y0156327D01*
X0260401Y0155342D01*
X0260401Y0154358D01*
X0256464Y0154358D01*
X0256464Y0153374D02*
X0256464Y0155342D01*
X0256464Y0153374D02*
X0257448Y0152390D01*
X0259416Y0152390D01*
X0263984Y0137295D02*
X0263984Y0131390D01*
X0266936Y0131390D01*
X0267920Y0132374D01*
X0267920Y0134342D01*
X0266936Y0135327D01*
X0263984Y0135327D01*
X0270429Y0135327D02*
X0270429Y0132374D01*
X0271413Y0131390D01*
X0274366Y0131390D01*
X0274366Y0130406D02*
X0273382Y0129422D01*
X0272398Y0129422D01*
X0274366Y0130406D02*
X0274366Y0135327D01*
X0272578Y0126795D02*
X0272578Y0120890D01*
X0283320Y0121874D02*
X0284304Y0122858D01*
X0287257Y0122858D01*
X0287257Y0123842D02*
X0287257Y0120890D01*
X0284304Y0120890D01*
X0283320Y0121874D01*
X0284304Y0124827D02*
X0286273Y0124827D01*
X0287257Y0123842D01*
X0289766Y0123842D02*
X0290750Y0124827D01*
X0293702Y0124827D01*
X0292718Y0122858D02*
X0290750Y0122858D01*
X0289766Y0123842D01*
X0289766Y0120890D02*
X0292718Y0120890D01*
X0293702Y0121874D01*
X0292718Y0122858D01*
X0296211Y0131390D02*
X0296211Y0135327D01*
X0302657Y0126795D02*
X0302657Y0120890D01*
X0309102Y0131390D02*
X0312055Y0131390D01*
X0313039Y0132374D01*
X0312055Y0133358D01*
X0310086Y0133358D01*
X0309102Y0134342D01*
X0310086Y0135327D01*
X0313039Y0135327D01*
X0321993Y0135327D02*
X0322977Y0134342D01*
X0324946Y0134342D01*
X0325930Y0133358D01*
X0325930Y0132374D01*
X0324946Y0131390D01*
X0322977Y0131390D01*
X0321993Y0132374D01*
X0321993Y0135327D02*
X0321993Y0136311D01*
X0322977Y0137295D01*
X0324946Y0137295D01*
X0325930Y0136311D01*
X0329423Y0135327D02*
X0331391Y0135327D01*
X0332375Y0134342D01*
X0327274Y0124827D02*
X0326290Y0123842D01*
X0323781Y0124827D02*
X0320829Y0124827D01*
X0319845Y0123842D01*
X0359592Y0153374D02*
X0360576Y0152390D01*
X0362544Y0152390D01*
X0363529Y0154358D02*
X0359592Y0154358D01*
X0359592Y0153374D02*
X0359592Y0155342D01*
X0360576Y0156327D01*
X0362544Y0156327D01*
X0363529Y0155342D01*
X0363529Y0154358D01*
X0255029Y0126795D02*
X0253061Y0124827D01*
X0251093Y0126795D01*
X0251093Y0120890D01*
X0250822Y0116295D02*
X0251807Y0115311D01*
X0247870Y0111374D01*
X0248854Y0110390D01*
X0250822Y0110390D01*
X0251807Y0111374D01*
X0251807Y0115311D01*
X0250822Y0116295D02*
X0248854Y0116295D01*
X0247870Y0115311D01*
X0247870Y0111374D01*
X0245631Y0111374D02*
X0245631Y0110390D01*
X0244647Y0110390D01*
X0244647Y0111374D01*
X0245631Y0111374D01*
X0242138Y0110390D02*
X0238202Y0110390D01*
X0240170Y0110390D02*
X0240170Y0116295D01*
X0238202Y0114327D01*
X0239186Y0120890D02*
X0238202Y0121874D01*
X0238202Y0123842D01*
X0239186Y0124827D01*
X0241154Y0124827D01*
X0242138Y0123842D01*
X0242138Y0121874D01*
X0241154Y0120890D01*
X0239186Y0120890D01*
X0235873Y0120890D02*
X0234889Y0121874D01*
X0234889Y0125811D01*
X0233905Y0124827D02*
X0235873Y0124827D01*
X0228263Y0114327D02*
X0229247Y0113342D01*
X0229247Y0110390D01*
X0225311Y0110390D02*
X0225311Y0114327D01*
X0228263Y0114327D01*
X0222802Y0113342D02*
X0221818Y0114327D01*
X0219849Y0114327D01*
X0218865Y0113342D01*
X0218865Y0111374D01*
X0219849Y0110390D01*
X0221818Y0110390D01*
X0222802Y0111374D01*
X0222802Y0113342D01*
X0213134Y0120890D02*
X0213134Y0123842D01*
X0212149Y0124827D01*
X0209197Y0124827D01*
X0209197Y0120890D01*
X0206688Y0120890D02*
X0203736Y0120890D01*
X0202751Y0121874D01*
X0203736Y0122858D01*
X0206688Y0122858D01*
X0206688Y0123842D02*
X0206688Y0120890D01*
X0206688Y0123842D02*
X0205704Y0124827D01*
X0203736Y0124827D01*
X0200243Y0123842D02*
X0200243Y0120890D01*
X0200243Y0123842D02*
X0199259Y0124827D01*
X0197290Y0124827D01*
X0196306Y0123842D01*
X0196306Y0120890D02*
X0196306Y0126795D01*
X0193797Y0126795D02*
X0189860Y0126795D01*
X0191829Y0126795D02*
X0191829Y0120890D01*
X0189860Y0116295D02*
X0189860Y0112358D01*
X0202751Y0110390D02*
X0202751Y0114327D01*
X0202751Y0131390D02*
X0205704Y0131390D01*
X0206688Y0132374D01*
X0206688Y0133358D01*
X0205704Y0134342D01*
X0202751Y0134342D01*
X0202751Y0131390D02*
X0202751Y0137295D01*
X0205704Y0137295D01*
X0206688Y0136311D01*
X0206688Y0135327D01*
X0205704Y0134342D01*
X0200243Y0132374D02*
X0199259Y0131390D01*
X0197290Y0131390D01*
X0196306Y0132374D01*
X0196306Y0136311D01*
X0197290Y0137295D01*
X0199259Y0137295D01*
X0200243Y0136311D01*
X0200603Y0141890D02*
X0202571Y0143858D01*
X0202571Y0145827D01*
X0200603Y0147795D01*
X0198094Y0145827D02*
X0195142Y0145827D01*
X0194157Y0144842D01*
X0194157Y0142874D01*
X0195142Y0141890D01*
X0198094Y0141890D01*
X0191829Y0141890D02*
X0189860Y0143858D01*
X0189860Y0145827D01*
X0191829Y0147795D01*
X0191829Y0152390D02*
X0191829Y0158295D01*
X0193797Y0158295D02*
X0189860Y0158295D01*
X0190845Y0162890D02*
X0189860Y0163874D01*
X0189860Y0165842D01*
X0190845Y0166827D01*
X0192813Y0166827D01*
X0193797Y0165842D01*
X0193797Y0164858D01*
X0189860Y0164858D01*
X0190845Y0162890D02*
X0192813Y0162890D01*
X0196306Y0163874D02*
X0197290Y0162890D01*
X0200243Y0162890D01*
X0202751Y0162890D02*
X0204720Y0162890D01*
X0203736Y0162890D02*
X0203736Y0168795D01*
X0202751Y0168795D01*
X0200243Y0166827D02*
X0197290Y0166827D01*
X0196306Y0165842D01*
X0196306Y0163874D01*
X0196306Y0158295D02*
X0196306Y0152390D01*
X0196306Y0155342D02*
X0197290Y0156327D01*
X0199259Y0156327D01*
X0200243Y0155342D01*
X0200243Y0152390D01*
X0202751Y0153374D02*
X0202751Y0155342D01*
X0203736Y0156327D01*
X0205704Y0156327D01*
X0206688Y0155342D01*
X0206688Y0154358D01*
X0202751Y0154358D01*
X0202751Y0153374D02*
X0203736Y0152390D01*
X0205704Y0152390D01*
X0205884Y0147795D02*
X0204900Y0146811D01*
X0205884Y0147795D02*
X0207852Y0147795D01*
X0208837Y0146811D01*
X0208837Y0145827D01*
X0204900Y0141890D01*
X0208837Y0141890D01*
X0211345Y0142874D02*
X0215282Y0146811D01*
X0215282Y0142874D01*
X0214298Y0141890D01*
X0212330Y0141890D01*
X0211345Y0142874D01*
X0211345Y0146811D01*
X0212330Y0147795D01*
X0214298Y0147795D01*
X0215282Y0146811D01*
X0217791Y0145827D02*
X0219759Y0147795D01*
X0219759Y0141890D01*
X0217791Y0141890D02*
X0221728Y0141890D01*
X0224236Y0142874D02*
X0225221Y0141890D01*
X0227189Y0141890D01*
X0228173Y0142874D01*
X0228173Y0143858D01*
X0227189Y0144842D01*
X0224236Y0144842D01*
X0224236Y0142874D01*
X0224236Y0144842D02*
X0226205Y0146811D01*
X0228173Y0147795D01*
X0228533Y0152390D02*
X0228533Y0156327D01*
X0229518Y0156327D01*
X0230502Y0155342D01*
X0231486Y0156327D01*
X0232470Y0155342D01*
X0232470Y0152390D01*
X0230502Y0152390D02*
X0230502Y0155342D01*
X0226025Y0155342D02*
X0225040Y0156327D01*
X0223072Y0156327D01*
X0222088Y0155342D01*
X0222088Y0153374D01*
X0223072Y0152390D01*
X0225040Y0152390D01*
X0226025Y0153374D01*
X0226025Y0155342D01*
X0219579Y0153374D02*
X0218595Y0152390D01*
X0216627Y0152390D01*
X0215642Y0153374D01*
X0215642Y0157311D01*
X0216627Y0158295D01*
X0218595Y0158295D01*
X0219579Y0157311D01*
X0217791Y0162890D02*
X0217791Y0166827D01*
X0219759Y0166827D02*
X0220743Y0166827D01*
X0219759Y0166827D02*
X0217791Y0164858D01*
X0215462Y0162890D02*
X0213494Y0162890D01*
X0214478Y0162890D02*
X0214478Y0166827D01*
X0213494Y0166827D01*
X0214478Y0168795D02*
X0214478Y0169779D01*
X0210985Y0165842D02*
X0210985Y0162890D01*
X0208033Y0162890D01*
X0207048Y0163874D01*
X0208033Y0164858D01*
X0210985Y0164858D01*
X0210985Y0165842D02*
X0210001Y0166827D01*
X0208033Y0166827D01*
X0192813Y0169779D02*
X0190845Y0168795D01*
X0189860Y0137295D02*
X0192813Y0137295D01*
X0193797Y0136311D01*
X0193797Y0134342D01*
X0192813Y0133358D01*
X0189860Y0133358D01*
X0189860Y0131390D02*
X0189860Y0137295D01*
X0223162Y0163874D02*
X0223162Y0165842D01*
X0224146Y0166827D01*
X0226115Y0166827D01*
X0227099Y0165842D01*
X0227099Y0164858D01*
X0223162Y0164858D01*
X0223162Y0163874D02*
X0224146Y0162890D01*
X0226115Y0162890D01*
X0236053Y0162890D02*
X0239990Y0168795D01*
X0242499Y0168795D02*
X0242499Y0162890D01*
X0246435Y0162890D01*
X0242409Y0158295D02*
X0242409Y0152390D01*
X0243393Y0152390D02*
X0241424Y0152390D01*
X0238916Y0153374D02*
X0237931Y0152390D01*
X0234979Y0152390D01*
X0234979Y0150422D02*
X0234979Y0156327D01*
X0237931Y0156327D01*
X0238916Y0155342D01*
X0238916Y0153374D01*
X0241424Y0158295D02*
X0242409Y0158295D01*
X0239990Y0162890D02*
X0236053Y0168795D01*
D11*
X0300391Y0151967D03*
D12*
X0303966Y0155317D03*
X0304016Y0155367D03*
X0304016Y0155417D03*
X0306016Y0155417D03*
X0306016Y0155467D03*
X0306016Y0155517D03*
X0306016Y0155567D03*
X0306016Y0155617D03*
X0306016Y0155667D03*
X0306016Y0155717D03*
X0306016Y0155767D03*
X0306016Y0155817D03*
X0306016Y0155867D03*
X0306016Y0155917D03*
X0306016Y0155967D03*
X0306016Y0156017D03*
X0306016Y0156067D03*
X0306016Y0156117D03*
X0306016Y0156167D03*
X0306016Y0156217D03*
X0306016Y0156267D03*
X0306016Y0156317D03*
X0306016Y0156367D03*
X0306016Y0156417D03*
X0306016Y0156467D03*
X0306016Y0156517D03*
X0306016Y0156567D03*
X0306016Y0156617D03*
X0306016Y0156667D03*
X0306016Y0156717D03*
X0306016Y0156767D03*
X0306016Y0156817D03*
X0306016Y0156867D03*
X0306016Y0156917D03*
X0306016Y0156967D03*
X0306016Y0157017D03*
X0306016Y0157067D03*
X0306016Y0157117D03*
X0306016Y0157167D03*
X0306016Y0157217D03*
X0306016Y0157267D03*
X0306016Y0157317D03*
X0306016Y0157367D03*
X0306016Y0157417D03*
X0306016Y0157467D03*
X0306016Y0157517D03*
X0306016Y0157567D03*
X0306016Y0157617D03*
X0306016Y0157667D03*
X0306016Y0157717D03*
X0306016Y0157767D03*
X0306016Y0157817D03*
X0306016Y0157867D03*
X0306016Y0157917D03*
X0306016Y0157967D03*
X0306016Y0158017D03*
X0306016Y0158067D03*
X0306016Y0158117D03*
X0306016Y0158167D03*
X0306016Y0158217D03*
X0306016Y0158267D03*
X0306016Y0158317D03*
X0306016Y0158367D03*
X0306016Y0158417D03*
X0306016Y0158467D03*
X0306016Y0158517D03*
X0306016Y0158567D03*
X0306016Y0158617D03*
X0306016Y0158667D03*
X0306016Y0158717D03*
X0306016Y0158767D03*
X0306016Y0158817D03*
X0306016Y0158867D03*
X0306016Y0158917D03*
X0306016Y0158967D03*
X0306016Y0159017D03*
X0306016Y0159067D03*
X0306016Y0159117D03*
X0306016Y0159167D03*
X0306016Y0159217D03*
X0306016Y0159267D03*
X0306016Y0159317D03*
X0306016Y0159367D03*
X0306016Y0159417D03*
X0306016Y0159467D03*
X0306016Y0159517D03*
X0306016Y0159567D03*
X0306016Y0159617D03*
X0306016Y0159667D03*
X0306016Y0159717D03*
X0306016Y0159767D03*
X0306016Y0159817D03*
X0306016Y0159867D03*
X0306016Y0159917D03*
X0306016Y0159967D03*
X0306016Y0160017D03*
X0306016Y0160067D03*
X0306016Y0160117D03*
X0306016Y0160167D03*
X0306016Y0160217D03*
X0306016Y0160267D03*
X0306016Y0160317D03*
X0306016Y0160367D03*
X0306016Y0160417D03*
X0306016Y0160467D03*
X0306016Y0160517D03*
X0306016Y0160567D03*
X0306016Y0160617D03*
X0306016Y0160667D03*
X0306016Y0160717D03*
X0306016Y0160767D03*
X0306016Y0160817D03*
X0306016Y0160867D03*
X0306016Y0160917D03*
X0306016Y0160967D03*
X0306016Y0161017D03*
X0306016Y0161067D03*
X0306016Y0155367D03*
X0306016Y0155317D03*
X0306016Y0155267D03*
X0306016Y0155217D03*
X0306016Y0155167D03*
X0306016Y0155117D03*
X0306016Y0155067D03*
X0306016Y0155017D03*
X0306016Y0154967D03*
X0306016Y0154917D03*
X0306016Y0154867D03*
X0306016Y0154817D03*
X0306016Y0154767D03*
X0306016Y0154717D03*
X0306016Y0154667D03*
X0306016Y0154617D03*
X0306016Y0154567D03*
X0306016Y0154517D03*
X0306016Y0154467D03*
X0306016Y0154417D03*
X0306016Y0154367D03*
X0306016Y0154317D03*
X0306016Y0154267D03*
X0306016Y0154217D03*
X0306016Y0154167D03*
X0306016Y0154117D03*
X0306016Y0154067D03*
X0306016Y0154017D03*
X0306016Y0153967D03*
X0306016Y0153917D03*
X0306016Y0153867D03*
X0306016Y0153817D03*
X0306016Y0153767D03*
X0306016Y0153717D03*
X0306016Y0153667D03*
X0306016Y0153617D03*
X0306016Y0153567D03*
X0306016Y0153517D03*
X0306016Y0153467D03*
X0306016Y0153417D03*
X0306016Y0153367D03*
X0306016Y0153317D03*
X0306016Y0153267D03*
X0306016Y0153217D03*
X0306016Y0153167D03*
X0306016Y0153117D03*
X0306016Y0153067D03*
X0306016Y0153017D03*
X0306016Y0152967D03*
X0306016Y0152917D03*
X0306016Y0152867D03*
X0306016Y0152817D03*
X0306016Y0152767D03*
X0306016Y0152717D03*
X0306016Y0152667D03*
X0306016Y0152617D03*
X0306016Y0152567D03*
X0306016Y0152517D03*
X0306016Y0152467D03*
X0306016Y0152417D03*
X0306016Y0152367D03*
X0306016Y0152317D03*
X0306016Y0152267D03*
X0306016Y0152217D03*
X0306016Y0152167D03*
X0306016Y0152117D03*
X0306016Y0152067D03*
X0306016Y0152017D03*
X0306016Y0151967D03*
X0308066Y0155317D03*
X0308016Y0155417D03*
D13*
X0311666Y0151967D03*
D14*
X0311491Y0152017D03*
X0300541Y0152017D03*
D15*
X0300641Y0152067D03*
X0304741Y0160417D03*
X0304741Y0160467D03*
X0304741Y0160517D03*
X0304741Y0160567D03*
X0304741Y0160617D03*
X0304741Y0160667D03*
X0304741Y0160717D03*
X0304741Y0160767D03*
X0304741Y0160817D03*
X0304741Y0160867D03*
X0307291Y0160867D03*
X0307291Y0160917D03*
X0307291Y0160967D03*
X0307291Y0160817D03*
X0307291Y0160767D03*
X0307291Y0160717D03*
X0307291Y0160667D03*
X0307291Y0160617D03*
X0307291Y0160567D03*
X0307291Y0160517D03*
X0307291Y0160467D03*
X0307291Y0160417D03*
X0307291Y0160367D03*
X0307341Y0159467D03*
X0307341Y0159417D03*
X0307341Y0159367D03*
D16*
X0311416Y0152067D03*
D17*
X0307491Y0157317D03*
X0307491Y0157367D03*
X0307491Y0157417D03*
X0307491Y0157467D03*
X0307491Y0157517D03*
X0307441Y0157567D03*
X0307441Y0157617D03*
X0307441Y0157667D03*
X0307441Y0157717D03*
X0307441Y0157767D03*
X0307441Y0157817D03*
X0307441Y0157867D03*
X0304591Y0157767D03*
X0304591Y0157717D03*
X0304591Y0157667D03*
X0304591Y0157617D03*
X0304541Y0157517D03*
X0304541Y0157467D03*
X0304541Y0157417D03*
X0304541Y0157367D03*
X0304541Y0157317D03*
X0304541Y0157267D03*
X0300741Y0152117D03*
D18*
X0304566Y0157567D03*
X0304616Y0157817D03*
X0304616Y0157867D03*
X0304616Y0157917D03*
X0304616Y0157967D03*
X0304616Y0158017D03*
X0304616Y0158067D03*
X0304616Y0158117D03*
X0307416Y0158117D03*
X0307416Y0158167D03*
X0307416Y0158067D03*
X0307416Y0158017D03*
X0307416Y0157967D03*
X0307416Y0157917D03*
X0311316Y0152117D03*
D19*
X0311241Y0152167D03*
X0307591Y0156717D03*
X0307591Y0156767D03*
X0307591Y0156817D03*
X0307541Y0157017D03*
X0304491Y0157017D03*
X0304491Y0156967D03*
X0304491Y0156917D03*
X0304491Y0156867D03*
X0304441Y0156817D03*
X0304441Y0156767D03*
X0304441Y0156717D03*
X0304441Y0156667D03*
X0300791Y0152167D03*
D20*
X0300866Y0152217D03*
X0304216Y0155867D03*
X0304266Y0155967D03*
X0304266Y0156017D03*
X0304266Y0156067D03*
X0307716Y0156167D03*
X0307716Y0156217D03*
X0307766Y0156067D03*
X0307766Y0156017D03*
X0307816Y0155917D03*
X0311166Y0152217D03*
D21*
X0311091Y0152267D03*
X0308041Y0155367D03*
X0307991Y0155467D03*
X0307941Y0155517D03*
X0307941Y0155567D03*
X0304091Y0155567D03*
X0304041Y0155467D03*
X0300941Y0152267D03*
D22*
X0300991Y0152317D03*
X0303891Y0155167D03*
X0303891Y0155217D03*
X0303941Y0155267D03*
X0308091Y0155267D03*
X0308141Y0155217D03*
X0308141Y0155167D03*
X0311041Y0152317D03*
D23*
X0310991Y0152367D03*
X0308291Y0154917D03*
X0308291Y0154967D03*
X0308241Y0155017D03*
X0303791Y0155017D03*
X0303741Y0154917D03*
X0301041Y0152367D03*
D24*
X0301116Y0152417D03*
X0303516Y0154617D03*
X0303566Y0154667D03*
X0308466Y0154667D03*
X0308516Y0154617D03*
X0310916Y0152417D03*
D25*
X0310891Y0152467D03*
X0308641Y0154467D03*
X0308591Y0154517D03*
X0308541Y0154567D03*
X0303491Y0154567D03*
X0303441Y0154517D03*
X0301141Y0152467D03*
D26*
X0301191Y0152517D03*
X0303241Y0154267D03*
X0303291Y0154317D03*
X0308741Y0154317D03*
X0308791Y0154267D03*
X0308841Y0154217D03*
X0310841Y0152517D03*
D27*
X0310791Y0152567D03*
X0308991Y0154067D03*
X0308941Y0154117D03*
X0308891Y0154167D03*
X0303141Y0154167D03*
X0303091Y0154117D03*
X0303041Y0154067D03*
X0301241Y0152567D03*
D28*
X0301291Y0152617D03*
X0302941Y0153967D03*
X0302991Y0154017D03*
X0309091Y0153967D03*
X0310741Y0152617D03*
D29*
X0310691Y0152667D03*
X0309291Y0153817D03*
X0302741Y0153817D03*
X0301341Y0152667D03*
D30*
X0301391Y0152717D03*
X0302541Y0153667D03*
X0302591Y0153717D03*
X0309441Y0153717D03*
X0309491Y0153667D03*
D31*
X0309366Y0153767D03*
X0310666Y0152717D03*
X0302666Y0153767D03*
D32*
X0301416Y0152767D03*
X0310616Y0152767D03*
D33*
X0310566Y0152817D03*
X0309666Y0153567D03*
X0302366Y0153567D03*
X0301466Y0152817D03*
D34*
X0301491Y0152867D03*
X0302291Y0153517D03*
X0310541Y0152867D03*
D35*
X0301541Y0152917D03*
D36*
X0309766Y0153517D03*
X0310516Y0152917D03*
D37*
X0310466Y0152967D03*
X0309866Y0153467D03*
X0302166Y0153467D03*
X0301566Y0152967D03*
D38*
X0301591Y0153017D03*
X0302091Y0153417D03*
X0309941Y0153417D03*
X0310441Y0153017D03*
D39*
X0310391Y0153067D03*
X0301641Y0153067D03*
D40*
X0301666Y0153117D03*
X0301966Y0153367D03*
X0310366Y0153117D03*
D41*
X0310341Y0153167D03*
X0310091Y0153367D03*
X0301691Y0153167D03*
D42*
X0301741Y0153217D03*
X0310291Y0153217D03*
D43*
X0310241Y0153317D03*
X0301791Y0153317D03*
X0301741Y0153267D03*
D44*
X0310266Y0153267D03*
D45*
X0309591Y0153617D03*
X0302441Y0153617D03*
D46*
X0302816Y0153867D03*
X0302866Y0153917D03*
X0309166Y0153917D03*
X0309216Y0153867D03*
D47*
X0309066Y0154017D03*
D48*
X0303216Y0154217D03*
D49*
X0303316Y0154367D03*
X0303366Y0154417D03*
X0303416Y0154467D03*
X0308666Y0154417D03*
X0308716Y0154367D03*
D50*
X0308441Y0154717D03*
X0308391Y0154767D03*
X0303641Y0154767D03*
X0303591Y0154717D03*
D51*
X0303666Y0154817D03*
X0303716Y0154867D03*
X0303766Y0154967D03*
X0308316Y0154867D03*
X0308366Y0154817D03*
D52*
X0308216Y0155067D03*
X0308166Y0155117D03*
X0303866Y0155117D03*
X0303816Y0155067D03*
D53*
X0304066Y0155517D03*
X0304116Y0155617D03*
X0304166Y0155717D03*
X0307866Y0155717D03*
X0307916Y0155667D03*
X0307916Y0155617D03*
D54*
X0307841Y0155767D03*
X0307841Y0155817D03*
X0307841Y0155867D03*
X0307791Y0155967D03*
X0304241Y0155917D03*
X0304191Y0155817D03*
X0304191Y0155767D03*
X0304141Y0155667D03*
D55*
X0304291Y0156117D03*
X0304291Y0156167D03*
X0304341Y0156217D03*
X0304341Y0156267D03*
X0304341Y0156317D03*
X0304391Y0156467D03*
X0307691Y0156317D03*
X0307691Y0156267D03*
X0307741Y0156117D03*
D56*
X0307666Y0156367D03*
X0307666Y0156417D03*
X0307666Y0156467D03*
X0307616Y0156517D03*
X0307616Y0156567D03*
X0307616Y0156617D03*
X0307616Y0156667D03*
X0304416Y0156617D03*
X0304416Y0156567D03*
X0304416Y0156517D03*
X0304366Y0156417D03*
X0304366Y0156367D03*
D57*
X0304516Y0157067D03*
X0304516Y0157117D03*
X0304516Y0157167D03*
X0304516Y0157217D03*
X0307516Y0157217D03*
X0307516Y0157267D03*
X0307516Y0157167D03*
X0307516Y0157117D03*
X0307516Y0157067D03*
X0307566Y0156967D03*
X0307566Y0156917D03*
X0307566Y0156867D03*
D58*
X0307391Y0158217D03*
X0307391Y0158267D03*
X0307391Y0158317D03*
X0307391Y0158367D03*
X0307391Y0158417D03*
X0307391Y0158467D03*
X0307391Y0158517D03*
X0307391Y0158567D03*
X0307391Y0158617D03*
X0304691Y0158667D03*
X0304691Y0158717D03*
X0304691Y0158767D03*
X0304691Y0158817D03*
X0304691Y0158867D03*
X0304691Y0158917D03*
X0304691Y0158967D03*
X0304691Y0159017D03*
X0304691Y0159067D03*
X0304641Y0158617D03*
X0304641Y0158567D03*
X0304641Y0158517D03*
X0304641Y0158467D03*
X0304641Y0158417D03*
X0304641Y0158367D03*
X0304641Y0158317D03*
X0304641Y0158267D03*
X0304641Y0158217D03*
X0304641Y0158167D03*
D59*
X0304716Y0159117D03*
X0304716Y0159167D03*
X0304716Y0159217D03*
X0304716Y0159267D03*
X0304716Y0159317D03*
X0304716Y0159367D03*
X0304716Y0159417D03*
X0304716Y0159467D03*
X0304716Y0159517D03*
X0304716Y0159567D03*
X0304716Y0159617D03*
X0304716Y0159667D03*
X0304716Y0159717D03*
X0304716Y0159767D03*
X0304716Y0159817D03*
X0304716Y0159867D03*
X0304716Y0159917D03*
X0304716Y0159967D03*
X0304716Y0160017D03*
X0304716Y0160067D03*
X0304716Y0160117D03*
X0304716Y0160167D03*
X0304716Y0160217D03*
X0304716Y0160267D03*
X0304716Y0160317D03*
X0304716Y0160367D03*
X0304716Y0160917D03*
X0304716Y0160967D03*
X0304716Y0161017D03*
X0304716Y0161067D03*
X0307316Y0161067D03*
X0307316Y0161017D03*
X0307316Y0160317D03*
X0307316Y0160267D03*
X0307316Y0160217D03*
X0307316Y0160167D03*
X0307316Y0160117D03*
X0307316Y0160067D03*
X0307316Y0160017D03*
X0307316Y0159967D03*
X0307316Y0159917D03*
X0307316Y0159867D03*
X0307316Y0159817D03*
X0307316Y0159767D03*
X0307316Y0159717D03*
X0307316Y0159667D03*
X0307316Y0159617D03*
X0307316Y0159567D03*
X0307316Y0159517D03*
X0307366Y0159317D03*
X0307366Y0159267D03*
X0307366Y0159217D03*
X0307366Y0159167D03*
X0307366Y0159117D03*
X0307366Y0159067D03*
X0307366Y0159017D03*
X0307366Y0158967D03*
X0307366Y0158917D03*
X0307366Y0158867D03*
X0307366Y0158817D03*
X0307366Y0158767D03*
X0307366Y0158717D03*
X0307366Y0158667D03*
D60*
X0263281Y0228567D03*
X0255801Y0228567D03*
X0255801Y0257767D03*
X0263281Y0257767D03*
X0216681Y0257767D03*
X0209201Y0257767D03*
X0209201Y0228567D03*
X0216681Y0228567D03*
X0193078Y0356667D03*
X0185204Y0356667D03*
X0035281Y0507367D03*
X0027801Y0507367D03*
X0027901Y0516567D03*
X0035381Y0516567D03*
X0035381Y0526567D03*
X0027901Y0526567D03*
X0027901Y0536567D03*
X0035381Y0536567D03*
X0035381Y0546567D03*
X0027901Y0546567D03*
X0027901Y0556567D03*
X0035381Y0556567D03*
X0072001Y0571567D03*
X0079481Y0571567D03*
X0079106Y0557593D03*
X0086586Y0557593D03*
X0104101Y0571567D03*
X0111581Y0571567D03*
X0111581Y0593367D03*
X0104101Y0593367D03*
X0079481Y0593367D03*
X0072001Y0593367D03*
X0455904Y0374267D03*
X0463778Y0374267D03*
X0463778Y0312867D03*
X0455904Y0312867D03*
X0455904Y0246467D03*
X0463778Y0246467D03*
X0463778Y0185667D03*
X0455904Y0185667D03*
X0603401Y0179767D03*
X0610881Y0179767D03*
X0610881Y0194767D03*
X0603401Y0194767D03*
X0603401Y0207567D03*
X0610881Y0207567D03*
X0610881Y0220367D03*
X0603401Y0220367D03*
X0603401Y0233167D03*
X0610881Y0233167D03*
X0610881Y0164767D03*
X0603401Y0164767D03*
X0557478Y0471667D03*
X0549604Y0471667D03*
X0549604Y0485267D03*
X0557478Y0485267D03*
X0557478Y0498867D03*
X0549604Y0498867D03*
X0549604Y0512467D03*
X0557478Y0512467D03*
X0616004Y0568467D03*
X0623878Y0568467D03*
X0623878Y0583767D03*
X0616004Y0583767D03*
X0616004Y0599067D03*
X0623878Y0599067D03*
X0623778Y0614367D03*
X0615904Y0614367D03*
X0575578Y0614367D03*
X0567704Y0614367D03*
X0567704Y0599067D03*
X0575578Y0599067D03*
X0502678Y0623967D03*
X0494804Y0623967D03*
X0634401Y0500967D03*
X0641881Y0500967D03*
X0653901Y0500967D03*
X0661381Y0500967D03*
X0661381Y0488167D03*
X0653901Y0488167D03*
D61*
X0288759Y0623336D03*
X0268759Y0623336D03*
X0268759Y0658100D03*
X0288759Y0658100D03*
D62*
X0241761Y0632507D03*
X0241761Y0625027D03*
X0209983Y0625027D03*
X0209983Y0632507D03*
X0199799Y0632507D03*
X0199799Y0625027D03*
X0188283Y0625027D03*
X0188283Y0632507D03*
X0176483Y0632507D03*
X0176483Y0625027D03*
X0164299Y0675227D03*
X0164299Y0682707D03*
X0152283Y0682707D03*
X0152283Y0675227D03*
X0105641Y0673227D03*
X0105641Y0680707D03*
X0105641Y0658707D03*
X0105641Y0651227D03*
X0106141Y0634207D03*
X0106141Y0626727D03*
X0091841Y0614307D03*
X0091841Y0606827D03*
X0079141Y0606527D03*
X0079141Y0614007D03*
X0039641Y0626727D03*
X0039641Y0634207D03*
X0026041Y0643027D03*
X0026041Y0650507D03*
X0039641Y0650541D03*
X0039641Y0658022D03*
X0039641Y0672075D03*
X0039641Y0679555D03*
X0026041Y0674207D03*
X0026041Y0666727D03*
X0101100Y0539669D03*
X0101100Y0532189D03*
X0214541Y0675227D03*
X0214541Y0682707D03*
X0225841Y0682707D03*
X0225841Y0675227D03*
X0143504Y0294707D03*
X0143504Y0287227D03*
X0128804Y0287227D03*
X0128804Y0294707D03*
X0113404Y0294707D03*
X0113404Y0287227D03*
X0097004Y0287227D03*
X0097004Y0294707D03*
X0082204Y0294707D03*
X0082204Y0287227D03*
X0066004Y0287227D03*
X0066004Y0294707D03*
X0050004Y0294707D03*
X0050004Y0287227D03*
X0034404Y0287227D03*
X0034404Y0294707D03*
X0192741Y0261507D03*
X0192741Y0254027D03*
X0192741Y0232307D03*
X0192741Y0224827D03*
X0231841Y0224827D03*
X0231841Y0232307D03*
X0231841Y0254027D03*
X0231841Y0261507D03*
D63*
X0201696Y0708167D03*
X0192681Y0708167D03*
X0183665Y0708167D03*
X0174649Y0708167D03*
X0165633Y0708167D03*
X0161145Y0718167D03*
X0165633Y0728167D03*
X0174649Y0728167D03*
X0170161Y0718167D03*
X0179177Y0718167D03*
X0188192Y0718167D03*
X0192681Y0728167D03*
X0201696Y0728167D03*
X0197208Y0718167D03*
X0183665Y0728167D03*
D64*
X0231854Y0718167D03*
X0133429Y0718167D03*
X0439141Y0722967D03*
X0537741Y0722967D03*
X0562341Y0722967D03*
X0660941Y0722967D03*
D65*
X0164578Y0616456D03*
X0162678Y0616456D03*
X0160678Y0616456D03*
X0158678Y0616456D03*
X0156778Y0616456D03*
X0154778Y0616456D03*
X0152778Y0616456D03*
X0150778Y0616456D03*
X0148878Y0616456D03*
X0146878Y0616456D03*
X0144878Y0616456D03*
X0142978Y0616456D03*
X0142978Y0584056D03*
X0144878Y0584056D03*
X0146878Y0584056D03*
X0148878Y0584056D03*
X0150778Y0584056D03*
X0152778Y0584056D03*
X0154778Y0584056D03*
X0156778Y0584056D03*
X0158678Y0584056D03*
X0160678Y0584056D03*
X0162678Y0584056D03*
X0164578Y0584056D03*
D66*
X0169978Y0589456D03*
X0169978Y0591356D03*
X0169978Y0593356D03*
X0169978Y0595356D03*
X0169978Y0597256D03*
X0169978Y0599256D03*
X0169978Y0601256D03*
X0169978Y0603256D03*
X0169978Y0605156D03*
X0169978Y0607156D03*
X0169978Y0609156D03*
X0169978Y0611056D03*
X0137578Y0611056D03*
X0137578Y0609156D03*
X0137578Y0607156D03*
X0137578Y0605156D03*
X0137578Y0603256D03*
X0137578Y0601256D03*
X0137578Y0599256D03*
X0137578Y0597256D03*
X0137578Y0595356D03*
X0137578Y0593356D03*
X0137578Y0591356D03*
X0137578Y0589456D03*
D67*
X0153778Y0600256D03*
D68*
X0140699Y0675227D03*
X0140699Y0682707D03*
X0176483Y0682707D03*
X0176483Y0675227D03*
X0188883Y0675227D03*
X0188883Y0682707D03*
X0201183Y0682707D03*
X0201183Y0675227D03*
X0360141Y0636707D03*
X0360141Y0629227D03*
X0374141Y0629327D03*
X0374141Y0636807D03*
X0387641Y0636807D03*
X0387641Y0629327D03*
X0510741Y0697627D03*
X0510741Y0705107D03*
X0633441Y0705107D03*
X0633441Y0697627D03*
X0247841Y0247507D03*
X0247841Y0240027D03*
X0168941Y0287227D03*
X0168941Y0294707D03*
X0156541Y0294707D03*
X0156541Y0287227D03*
X0023641Y0287227D03*
X0023641Y0294707D03*
D69*
X0151791Y0310967D03*
X0151791Y0315967D03*
X0151791Y0320967D03*
X0151791Y0325967D03*
X0159291Y0325967D03*
X0159291Y0320967D03*
X0159291Y0315967D03*
X0159291Y0310967D03*
X0159491Y0340167D03*
X0159491Y0345167D03*
X0159491Y0350167D03*
X0159491Y0355167D03*
X0151991Y0355167D03*
X0151991Y0350167D03*
X0151991Y0345167D03*
X0151991Y0340167D03*
X0261791Y0342167D03*
X0261791Y0347167D03*
X0261791Y0352167D03*
X0269291Y0352167D03*
X0269291Y0347167D03*
X0269291Y0342167D03*
X0269291Y0337167D03*
X0261791Y0337167D03*
X0261791Y0320067D03*
X0261791Y0315067D03*
X0261791Y0310067D03*
X0261791Y0305067D03*
X0269291Y0305067D03*
X0269291Y0310067D03*
X0269291Y0315067D03*
X0269291Y0320067D03*
X0398696Y0321650D03*
X0398696Y0316650D03*
X0398696Y0311650D03*
X0398696Y0306650D03*
X0406196Y0306650D03*
X0406196Y0311650D03*
X0406196Y0316650D03*
X0406196Y0321650D03*
X0406196Y0334209D03*
X0406196Y0339209D03*
X0406196Y0344209D03*
X0406196Y0349209D03*
X0398696Y0349209D03*
X0398696Y0344209D03*
X0398696Y0339209D03*
X0398696Y0334209D03*
X0398696Y0361768D03*
X0398696Y0366768D03*
X0398696Y0371768D03*
X0398696Y0376768D03*
X0406196Y0376768D03*
X0406196Y0371768D03*
X0406196Y0366768D03*
X0406196Y0361768D03*
X0406481Y0408132D03*
X0406481Y0413132D03*
X0406481Y0418132D03*
X0406481Y0423132D03*
X0398981Y0423132D03*
X0398981Y0418132D03*
X0398981Y0413132D03*
X0398981Y0408132D03*
X0398981Y0432132D03*
X0398981Y0437132D03*
X0398981Y0442132D03*
X0398981Y0447132D03*
X0406481Y0447132D03*
X0406481Y0442132D03*
X0406481Y0437132D03*
X0406481Y0432132D03*
X0406481Y0455732D03*
X0406481Y0460732D03*
X0406481Y0465732D03*
X0406481Y0470732D03*
X0398981Y0470732D03*
X0398981Y0465732D03*
X0398981Y0460732D03*
X0398981Y0455732D03*
X0398981Y0479332D03*
X0398981Y0484332D03*
X0398981Y0489332D03*
X0398981Y0494332D03*
X0406481Y0494332D03*
X0406481Y0489332D03*
X0406481Y0484332D03*
X0406481Y0479332D03*
X0406481Y0502932D03*
X0406481Y0507932D03*
X0406481Y0512932D03*
X0406481Y0517932D03*
X0398981Y0517932D03*
X0398981Y0512932D03*
X0398981Y0507932D03*
X0398981Y0502932D03*
X0398981Y0526132D03*
X0398981Y0531132D03*
X0398981Y0536132D03*
X0398981Y0541132D03*
X0406481Y0541132D03*
X0406481Y0536132D03*
X0406481Y0531132D03*
X0406481Y0526132D03*
X0406481Y0549332D03*
X0406481Y0554332D03*
X0406481Y0559332D03*
X0406481Y0564332D03*
X0398981Y0564332D03*
X0398981Y0559332D03*
X0398981Y0554332D03*
X0398981Y0549332D03*
X0398981Y0572532D03*
X0398981Y0577532D03*
X0398981Y0582532D03*
X0398981Y0587532D03*
X0406481Y0587532D03*
X0406481Y0582532D03*
X0406481Y0577532D03*
X0406481Y0572532D03*
X0406481Y0595732D03*
X0406481Y0600732D03*
X0406481Y0605732D03*
X0406481Y0610732D03*
X0398981Y0610732D03*
X0398981Y0605732D03*
X0398981Y0600732D03*
X0398981Y0595732D03*
X0458391Y0642767D03*
X0458391Y0647767D03*
X0458391Y0652767D03*
X0458391Y0657767D03*
X0465891Y0657767D03*
X0465891Y0652767D03*
X0465891Y0647767D03*
X0465891Y0642767D03*
X0470636Y0610732D03*
X0470636Y0605732D03*
X0470636Y0600732D03*
X0470636Y0595732D03*
X0478136Y0595732D03*
X0478136Y0600732D03*
X0478136Y0605732D03*
X0478136Y0610732D03*
X0478136Y0587532D03*
X0478136Y0582532D03*
X0478136Y0577532D03*
X0478136Y0572532D03*
X0470636Y0572532D03*
X0470636Y0577532D03*
X0470636Y0582532D03*
X0470636Y0587532D03*
X0470636Y0564332D03*
X0470636Y0559332D03*
X0470636Y0554332D03*
X0470636Y0549332D03*
X0478136Y0549332D03*
X0478136Y0554332D03*
X0478136Y0559332D03*
X0478136Y0564332D03*
X0478136Y0541132D03*
X0478136Y0536132D03*
X0478136Y0531132D03*
X0478136Y0526132D03*
X0470636Y0526132D03*
X0470636Y0531132D03*
X0470636Y0536132D03*
X0470636Y0541132D03*
X0470636Y0517932D03*
X0470636Y0512932D03*
X0470636Y0507932D03*
X0470636Y0502932D03*
X0478136Y0502932D03*
X0478136Y0507932D03*
X0478136Y0512932D03*
X0478136Y0517932D03*
X0478136Y0494332D03*
X0478136Y0489332D03*
X0478136Y0484332D03*
X0478136Y0479332D03*
X0470636Y0479332D03*
X0470636Y0484332D03*
X0470636Y0489332D03*
X0470636Y0494332D03*
X0470636Y0470732D03*
X0470636Y0465732D03*
X0470636Y0460732D03*
X0470636Y0455732D03*
X0478136Y0455732D03*
X0478136Y0460732D03*
X0478136Y0465732D03*
X0478136Y0470732D03*
X0545291Y0582167D03*
X0545291Y0587167D03*
X0545291Y0592167D03*
X0545291Y0597167D03*
X0552791Y0597167D03*
X0552791Y0592167D03*
X0552791Y0587167D03*
X0552791Y0582167D03*
X0552891Y0642767D03*
X0552891Y0647767D03*
X0552891Y0652767D03*
X0552891Y0657767D03*
X0560391Y0657767D03*
X0560391Y0652767D03*
X0560391Y0647767D03*
X0560391Y0642767D03*
X0406196Y0294091D03*
X0406196Y0289091D03*
X0406196Y0284091D03*
X0406196Y0279091D03*
X0398696Y0279091D03*
X0398696Y0284091D03*
X0398696Y0289091D03*
X0398696Y0294091D03*
X0398696Y0266532D03*
X0398696Y0261532D03*
X0398696Y0256532D03*
X0398696Y0251532D03*
X0406196Y0251532D03*
X0406196Y0256532D03*
X0406196Y0261532D03*
X0406196Y0266532D03*
X0406196Y0238973D03*
X0406196Y0233973D03*
X0406196Y0228973D03*
X0406196Y0223973D03*
X0398696Y0223973D03*
X0398696Y0228973D03*
X0398696Y0233973D03*
X0398696Y0238973D03*
X0398696Y0211414D03*
X0398696Y0206414D03*
X0398696Y0201414D03*
X0398696Y0196414D03*
X0406196Y0196414D03*
X0406196Y0201414D03*
X0406196Y0206414D03*
X0406196Y0211414D03*
X0406196Y0183855D03*
X0406196Y0178855D03*
X0406196Y0173855D03*
X0406196Y0168855D03*
X0398696Y0168855D03*
X0398696Y0173855D03*
X0398696Y0178855D03*
X0398696Y0183855D03*
X0398696Y0156296D03*
X0398696Y0151296D03*
X0398696Y0146296D03*
X0398696Y0141296D03*
X0406196Y0141296D03*
X0406196Y0146296D03*
X0406196Y0151296D03*
X0406196Y0156296D03*
D70*
X0099353Y0334591D03*
X0099353Y0337741D03*
X0099353Y0340890D03*
X0099353Y0344040D03*
X0099353Y0347189D03*
X0099353Y0350339D03*
X0099353Y0353489D03*
X0099353Y0356638D03*
X0099353Y0359788D03*
X0099353Y0362938D03*
X0099353Y0366087D03*
X0099353Y0369237D03*
X0099353Y0372386D03*
X0099353Y0375536D03*
X0099353Y0378686D03*
X0099353Y0381835D03*
X0099353Y0384985D03*
X0099353Y0388134D03*
X0099353Y0391284D03*
X0099353Y0394434D03*
X0099353Y0397583D03*
X0099353Y0400733D03*
X0099353Y0403882D03*
X0099353Y0407032D03*
X0099353Y0410182D03*
X0099353Y0413331D03*
X0099353Y0416481D03*
X0056440Y0416481D03*
X0056440Y0413331D03*
X0056440Y0410182D03*
X0056440Y0407032D03*
X0056440Y0403882D03*
X0056440Y0400733D03*
X0056440Y0397583D03*
X0056440Y0394434D03*
X0056440Y0391284D03*
X0056440Y0388134D03*
X0056440Y0384985D03*
X0056440Y0381835D03*
X0056440Y0378686D03*
X0056440Y0375536D03*
X0056440Y0372386D03*
X0056440Y0369237D03*
X0056440Y0366087D03*
X0056440Y0362938D03*
X0056440Y0359788D03*
X0056440Y0356638D03*
X0056440Y0353489D03*
X0056440Y0350339D03*
X0056440Y0347189D03*
X0056440Y0344040D03*
X0056440Y0340890D03*
X0056440Y0337741D03*
X0056440Y0334591D03*
D71*
X0055041Y0578967D03*
X0055041Y0582667D03*
X0055041Y0586367D03*
X0064241Y0586367D03*
X0064241Y0578967D03*
X0064241Y0626767D03*
X0064241Y0634167D03*
X0055041Y0634167D03*
X0055041Y0630467D03*
X0055041Y0626767D03*
X0055041Y0651267D03*
X0055041Y0654967D03*
X0055041Y0658667D03*
X0064241Y0658667D03*
X0064241Y0651267D03*
X0064241Y0673267D03*
X0064241Y0680667D03*
X0055041Y0680667D03*
X0055041Y0676967D03*
X0055041Y0673267D03*
D72*
X0079629Y0676967D03*
X0090653Y0676967D03*
X0090653Y0654967D03*
X0079629Y0654967D03*
X0079629Y0630467D03*
X0090653Y0630467D03*
D73*
X0063381Y0610267D03*
X0055901Y0610267D03*
X0042481Y0571567D03*
X0035001Y0571567D03*
X0062001Y0557567D03*
X0069481Y0557567D03*
X0017381Y0646767D03*
X0009901Y0646767D03*
X0009901Y0670467D03*
X0017381Y0670467D03*
X0027401Y0398567D03*
X0034881Y0398567D03*
X0034881Y0374567D03*
X0027401Y0374567D03*
X0027401Y0350567D03*
X0034881Y0350567D03*
X0072375Y0321634D03*
X0079855Y0321634D03*
X0616201Y0537867D03*
X0623681Y0537867D03*
X0623681Y0553167D03*
X0616201Y0553167D03*
D74*
X0228180Y0534605D03*
X0228180Y0530668D03*
X0228180Y0526731D03*
X0228180Y0522794D03*
X0228180Y0518857D03*
X0228180Y0514920D03*
X0228180Y0510983D03*
X0228180Y0507046D03*
X0228180Y0503109D03*
X0228180Y0499172D03*
X0228180Y0495235D03*
X0228180Y0491298D03*
X0228180Y0487361D03*
X0228180Y0483424D03*
X0228180Y0479487D03*
X0228180Y0475550D03*
X0228180Y0471613D03*
X0228180Y0467676D03*
X0228180Y0463739D03*
X0228180Y0459802D03*
X0228180Y0455865D03*
X0228180Y0451928D03*
X0224243Y0451928D03*
X0224243Y0455865D03*
X0224243Y0459802D03*
X0224243Y0463739D03*
X0224243Y0467676D03*
X0224243Y0471613D03*
X0224243Y0475550D03*
X0224243Y0479487D03*
X0224243Y0483424D03*
X0224243Y0487361D03*
X0224243Y0491298D03*
X0224243Y0495235D03*
X0224243Y0499172D03*
X0224243Y0503109D03*
X0224243Y0507046D03*
X0224243Y0510983D03*
X0224243Y0514920D03*
X0224243Y0518857D03*
X0224243Y0522794D03*
X0224243Y0526731D03*
X0224243Y0530668D03*
X0224243Y0534605D03*
X0220306Y0534605D03*
X0220306Y0530668D03*
X0220306Y0526731D03*
X0220306Y0522794D03*
X0220306Y0518857D03*
X0220306Y0514920D03*
X0220306Y0510983D03*
X0220306Y0507046D03*
X0220306Y0503109D03*
X0220306Y0499172D03*
X0220306Y0495235D03*
X0220306Y0491298D03*
X0220306Y0487361D03*
X0220306Y0483424D03*
X0220306Y0479487D03*
X0220306Y0475550D03*
X0220306Y0471613D03*
X0220306Y0467676D03*
X0220306Y0463739D03*
X0220306Y0459802D03*
X0220306Y0455865D03*
X0220306Y0451928D03*
X0216369Y0451928D03*
X0216369Y0455865D03*
X0216369Y0459802D03*
X0216369Y0463739D03*
X0216369Y0467676D03*
X0216369Y0471613D03*
X0216369Y0475550D03*
X0216369Y0479487D03*
X0216369Y0483424D03*
X0216369Y0487361D03*
X0216369Y0491298D03*
X0216369Y0495235D03*
X0216369Y0499172D03*
X0216369Y0503109D03*
X0216369Y0507046D03*
X0216369Y0510983D03*
X0216369Y0514920D03*
X0216369Y0518857D03*
X0216369Y0522794D03*
X0216369Y0526731D03*
X0216369Y0530668D03*
X0216369Y0534605D03*
X0212432Y0534605D03*
X0212432Y0530668D03*
X0212432Y0526731D03*
X0212432Y0522794D03*
X0212432Y0518857D03*
X0212432Y0514920D03*
X0212432Y0510983D03*
X0212432Y0507046D03*
X0212432Y0503109D03*
X0212432Y0499172D03*
X0212432Y0495235D03*
X0212432Y0491298D03*
X0212432Y0487361D03*
X0212432Y0483424D03*
X0212432Y0479487D03*
X0212432Y0475550D03*
X0212432Y0471613D03*
X0212432Y0467676D03*
X0212432Y0463739D03*
X0212432Y0459802D03*
X0212432Y0455865D03*
X0212432Y0451928D03*
X0208495Y0451928D03*
X0208495Y0455865D03*
X0208495Y0459802D03*
X0208495Y0463739D03*
X0208495Y0467676D03*
X0208495Y0471613D03*
X0208495Y0475550D03*
X0208495Y0479487D03*
X0208495Y0483424D03*
X0208495Y0487361D03*
X0208495Y0491298D03*
X0208495Y0495235D03*
X0208495Y0499172D03*
X0208495Y0503109D03*
X0208495Y0507046D03*
X0208495Y0510983D03*
X0208495Y0514920D03*
X0208495Y0518857D03*
X0208495Y0522794D03*
X0208495Y0526731D03*
X0208495Y0530668D03*
X0208495Y0534605D03*
X0204558Y0534605D03*
X0204558Y0530668D03*
X0204558Y0526731D03*
X0204558Y0522794D03*
X0204558Y0518857D03*
X0204558Y0514920D03*
X0204558Y0510983D03*
X0204558Y0507046D03*
X0204558Y0503109D03*
X0204558Y0499172D03*
X0204558Y0495235D03*
X0204558Y0491298D03*
X0204558Y0487361D03*
X0204558Y0483424D03*
X0204558Y0479487D03*
X0204558Y0475550D03*
X0204558Y0471613D03*
X0204558Y0467676D03*
X0204558Y0463739D03*
X0204558Y0459802D03*
X0204558Y0455865D03*
X0204558Y0451928D03*
X0200621Y0451928D03*
X0200621Y0455865D03*
X0200621Y0459802D03*
X0200621Y0463739D03*
X0200621Y0467676D03*
X0200621Y0471613D03*
X0200621Y0475550D03*
X0200621Y0479487D03*
X0200621Y0483424D03*
X0200621Y0487361D03*
X0200621Y0491298D03*
X0200621Y0495235D03*
X0200621Y0499172D03*
X0200621Y0503109D03*
X0200621Y0507046D03*
X0200621Y0510983D03*
X0200621Y0514920D03*
X0200621Y0518857D03*
X0200621Y0522794D03*
X0200621Y0526731D03*
X0200621Y0530668D03*
X0200621Y0534605D03*
X0196684Y0534605D03*
X0196684Y0530668D03*
X0196684Y0526731D03*
X0196684Y0522794D03*
X0196684Y0518857D03*
X0196684Y0514920D03*
X0196684Y0510983D03*
X0196684Y0507046D03*
X0196684Y0503109D03*
X0196684Y0499172D03*
X0196684Y0495235D03*
X0196684Y0491298D03*
X0196684Y0487361D03*
X0196684Y0483424D03*
X0196684Y0479487D03*
X0196684Y0475550D03*
X0196684Y0471613D03*
X0196684Y0467676D03*
X0196684Y0463739D03*
X0196684Y0459802D03*
X0196684Y0455865D03*
X0196684Y0451928D03*
X0192747Y0451928D03*
X0192747Y0455865D03*
X0192747Y0459802D03*
X0192747Y0463739D03*
X0192747Y0467676D03*
X0192747Y0471613D03*
X0192747Y0475550D03*
X0192747Y0479487D03*
X0192747Y0483424D03*
X0192747Y0487361D03*
X0192747Y0491298D03*
X0192747Y0495235D03*
X0192747Y0499172D03*
X0192747Y0503109D03*
X0192747Y0507046D03*
X0192747Y0510983D03*
X0192747Y0514920D03*
X0192747Y0518857D03*
X0192747Y0522794D03*
X0192747Y0526731D03*
X0192747Y0530668D03*
X0192747Y0534605D03*
X0188810Y0534605D03*
X0188810Y0530668D03*
X0188810Y0526731D03*
X0188810Y0522794D03*
X0188810Y0518857D03*
X0188810Y0514920D03*
X0188810Y0510983D03*
X0188810Y0507046D03*
X0188810Y0503109D03*
X0188810Y0499172D03*
X0188810Y0495235D03*
X0188810Y0491298D03*
X0188810Y0487361D03*
X0188810Y0483424D03*
X0188810Y0479487D03*
X0188810Y0475550D03*
X0188810Y0471613D03*
X0188810Y0467676D03*
X0188810Y0463739D03*
X0188810Y0459802D03*
X0188810Y0455865D03*
X0188810Y0451928D03*
X0184873Y0451928D03*
X0184873Y0455865D03*
X0184873Y0459802D03*
X0184873Y0463739D03*
X0184873Y0467676D03*
X0184873Y0471613D03*
X0184873Y0475550D03*
X0184873Y0479487D03*
X0184873Y0483424D03*
X0184873Y0487361D03*
X0184873Y0491298D03*
X0184873Y0495235D03*
X0184873Y0499172D03*
X0184873Y0503109D03*
X0184873Y0507046D03*
X0184873Y0510983D03*
X0184873Y0514920D03*
X0184873Y0518857D03*
X0184873Y0522794D03*
X0184873Y0526731D03*
X0184873Y0530668D03*
X0184873Y0534605D03*
X0180936Y0534605D03*
X0180936Y0530668D03*
X0180936Y0526731D03*
X0180936Y0522794D03*
X0180936Y0518857D03*
X0180936Y0514920D03*
X0180936Y0510983D03*
X0180936Y0507046D03*
X0180936Y0503109D03*
X0180936Y0499172D03*
X0180936Y0495235D03*
X0180936Y0491298D03*
X0180936Y0487361D03*
X0180936Y0483424D03*
X0180936Y0479487D03*
X0180936Y0475550D03*
X0180936Y0471613D03*
X0180936Y0467676D03*
X0180936Y0463739D03*
X0180936Y0459802D03*
X0180936Y0455865D03*
X0180936Y0451928D03*
X0176999Y0451928D03*
X0176999Y0455865D03*
X0176999Y0459802D03*
X0176999Y0463739D03*
X0176999Y0467676D03*
X0176999Y0471613D03*
X0176999Y0475550D03*
X0176999Y0479487D03*
X0176999Y0483424D03*
X0176999Y0487361D03*
X0176999Y0491298D03*
X0176999Y0495235D03*
X0176999Y0499172D03*
X0176999Y0503109D03*
X0176999Y0507046D03*
X0176999Y0510983D03*
X0176999Y0514920D03*
X0176999Y0518857D03*
X0176999Y0522794D03*
X0176999Y0526731D03*
X0176999Y0530668D03*
X0176999Y0534605D03*
X0173062Y0534605D03*
X0173062Y0530668D03*
X0173062Y0526731D03*
X0173062Y0522794D03*
X0173062Y0518857D03*
X0173062Y0514920D03*
X0173062Y0510983D03*
X0173062Y0507046D03*
X0173062Y0503109D03*
X0173062Y0499172D03*
X0173062Y0495235D03*
X0173062Y0491298D03*
X0173062Y0487361D03*
X0173062Y0483424D03*
X0173062Y0479487D03*
X0173062Y0475550D03*
X0173062Y0471613D03*
X0173062Y0467676D03*
X0173062Y0463739D03*
X0173062Y0459802D03*
X0173062Y0455865D03*
X0173062Y0451928D03*
X0169125Y0451928D03*
X0169125Y0455865D03*
X0169125Y0459802D03*
X0169125Y0463739D03*
X0169125Y0467676D03*
X0169125Y0471613D03*
X0169125Y0475550D03*
X0169125Y0479487D03*
X0169125Y0483424D03*
X0169125Y0487361D03*
X0169125Y0491298D03*
X0169125Y0495235D03*
X0169125Y0499172D03*
X0169125Y0503109D03*
X0169125Y0507046D03*
X0169125Y0510983D03*
X0169125Y0514920D03*
X0169125Y0518857D03*
X0169125Y0522794D03*
X0169125Y0526731D03*
X0169125Y0530668D03*
X0169125Y0534605D03*
X0165188Y0534605D03*
X0165188Y0530668D03*
X0165188Y0526731D03*
X0165188Y0522794D03*
X0165188Y0518857D03*
X0165188Y0514920D03*
X0165188Y0510983D03*
X0165188Y0507046D03*
X0165188Y0503109D03*
X0165188Y0499172D03*
X0165188Y0495235D03*
X0165188Y0491298D03*
X0165188Y0487361D03*
X0165188Y0483424D03*
X0165188Y0479487D03*
X0165188Y0475550D03*
X0165188Y0471613D03*
X0165188Y0467676D03*
X0165188Y0463739D03*
X0165188Y0459802D03*
X0165188Y0455865D03*
X0165188Y0451928D03*
X0161251Y0451928D03*
X0161251Y0455865D03*
X0161251Y0459802D03*
X0161251Y0463739D03*
X0161251Y0467676D03*
X0161251Y0471613D03*
X0161251Y0475550D03*
X0161251Y0479487D03*
X0161251Y0483424D03*
X0161251Y0487361D03*
X0161251Y0491298D03*
X0161251Y0495235D03*
X0161251Y0499172D03*
X0161251Y0503109D03*
X0161251Y0507046D03*
X0161251Y0510983D03*
X0161251Y0514920D03*
X0161251Y0518857D03*
X0161251Y0522794D03*
X0161251Y0526731D03*
X0161251Y0530668D03*
X0161251Y0534605D03*
X0157314Y0534605D03*
X0157314Y0530668D03*
X0157314Y0526731D03*
X0157314Y0522794D03*
X0157314Y0518857D03*
X0157314Y0514920D03*
X0157314Y0510983D03*
X0157314Y0507046D03*
X0157314Y0503109D03*
X0157314Y0499172D03*
X0157314Y0495235D03*
X0157314Y0491298D03*
X0157314Y0487361D03*
X0157314Y0483424D03*
X0157314Y0479487D03*
X0157314Y0475550D03*
X0157314Y0471613D03*
X0157314Y0467676D03*
X0157314Y0463739D03*
X0157314Y0459802D03*
X0157314Y0455865D03*
X0157314Y0451928D03*
X0153377Y0451928D03*
X0153377Y0455865D03*
X0153377Y0459802D03*
X0153377Y0463739D03*
X0153377Y0467676D03*
X0153377Y0471613D03*
X0153377Y0475550D03*
X0153377Y0479487D03*
X0153377Y0483424D03*
X0153377Y0487361D03*
X0153377Y0491298D03*
X0153377Y0495235D03*
X0153377Y0499172D03*
X0153377Y0503109D03*
X0153377Y0507046D03*
X0153377Y0510983D03*
X0153377Y0514920D03*
X0153377Y0518857D03*
X0153377Y0522794D03*
X0153377Y0526731D03*
X0153377Y0530668D03*
X0153377Y0534605D03*
X0149440Y0534605D03*
X0149440Y0530668D03*
X0149440Y0526731D03*
X0149440Y0522794D03*
X0149440Y0518857D03*
X0149440Y0514920D03*
X0149440Y0510983D03*
X0149440Y0507046D03*
X0149440Y0503109D03*
X0149440Y0499172D03*
X0149440Y0495235D03*
X0149440Y0491298D03*
X0149440Y0487361D03*
X0149440Y0483424D03*
X0149440Y0479487D03*
X0149440Y0475550D03*
X0149440Y0471613D03*
X0149440Y0467676D03*
X0149440Y0463739D03*
X0149440Y0459802D03*
X0149440Y0455865D03*
X0149440Y0451928D03*
X0145503Y0451928D03*
X0145503Y0455865D03*
X0145503Y0459802D03*
X0145503Y0463739D03*
X0145503Y0467676D03*
X0145503Y0471613D03*
X0145503Y0475550D03*
X0145503Y0479487D03*
X0145503Y0483424D03*
X0145503Y0487361D03*
X0145503Y0491298D03*
X0145503Y0495235D03*
X0145503Y0499172D03*
X0145503Y0503109D03*
X0145503Y0507046D03*
X0145503Y0510983D03*
X0145503Y0514920D03*
X0145503Y0518857D03*
X0145503Y0522794D03*
X0145503Y0526731D03*
X0145503Y0530668D03*
X0145503Y0534605D03*
D75*
X0141841Y0538267D02*
X0136841Y0543267D01*
X0141841Y0448267D02*
X0136841Y0443267D01*
X0231841Y0448267D02*
X0236841Y0443267D01*
X0231841Y0538267D02*
X0236841Y0543267D01*
D76*
X0031655Y0688660D03*
X0020458Y0688660D03*
X0020043Y0261467D03*
X0031240Y0261467D03*
X0448543Y0697767D03*
X0459740Y0697767D03*
D77*
X0176453Y0257767D03*
X0165429Y0257767D03*
X0165429Y0228567D03*
X0176453Y0228567D03*
D78*
X0264255Y0726110D03*
X0264255Y0735952D03*
X0291027Y0735952D03*
X0291027Y0726110D03*
D79*
X0304177Y0747763D03*
X0277641Y0750873D03*
X0251106Y0747763D03*
D80*
X0387531Y0601153D03*
X0387531Y0595602D03*
X0387531Y0590051D03*
X0387531Y0584500D03*
X0387531Y0578949D03*
X0387531Y0573397D03*
X0387531Y0567846D03*
X0387531Y0562295D03*
X0387531Y0556744D03*
X0387531Y0551193D03*
X0387531Y0545641D03*
X0387531Y0540090D03*
X0387531Y0534539D03*
X0387531Y0528988D03*
X0387531Y0523437D03*
X0387531Y0517886D03*
X0387531Y0512334D03*
X0387531Y0506783D03*
X0387531Y0501232D03*
X0387531Y0495681D03*
X0387531Y0490130D03*
X0387531Y0484578D03*
X0387531Y0479027D03*
X0387531Y0473476D03*
X0387531Y0467925D03*
X0387531Y0462374D03*
X0387531Y0456823D03*
X0387531Y0451271D03*
X0387531Y0445720D03*
X0387531Y0440169D03*
X0387531Y0434618D03*
X0387531Y0429067D03*
X0387531Y0423515D03*
X0387531Y0417964D03*
X0387531Y0412413D03*
X0387531Y0406862D03*
D81*
X0078541Y0520567D03*
X0078541Y0525567D03*
X0078541Y0530567D03*
X0078541Y0535567D03*
X0059141Y0535567D03*
X0059141Y0530567D03*
X0059141Y0525567D03*
X0059141Y0520567D03*
D82*
X0061203Y0511492D03*
X0056203Y0511492D03*
X0051203Y0511492D03*
X0066203Y0511492D03*
X0071203Y0511492D03*
X0076203Y0511492D03*
X0081203Y0511492D03*
X0086203Y0511492D03*
X0086203Y0544641D03*
X0081203Y0544641D03*
X0076203Y0544641D03*
X0071203Y0544641D03*
X0066203Y0544641D03*
X0061203Y0544641D03*
X0056203Y0544641D03*
X0051203Y0544641D03*
D83*
X0056598Y0737817D02*
X0056598Y0745494D01*
X0054236Y0757108D02*
X0054236Y0764786D01*
X0113684Y0745494D02*
X0113684Y0737817D01*
X0116047Y0757108D02*
X0116047Y0764786D01*
D84*
X0101873Y0737719D03*
X0099905Y0737719D03*
X0097936Y0737719D03*
X0095968Y0737719D03*
X0093999Y0737719D03*
X0092031Y0737719D03*
X0090062Y0737719D03*
X0088094Y0737719D03*
X0086125Y0737719D03*
X0084157Y0737719D03*
X0082188Y0737719D03*
X0080220Y0737719D03*
X0078251Y0737719D03*
X0076283Y0737719D03*
X0074314Y0737719D03*
X0072346Y0737719D03*
X0070377Y0737719D03*
X0068409Y0737719D03*
X0066440Y0737719D03*
D85*
X0066507Y0719417D03*
X0061507Y0719417D03*
X0061507Y0711917D03*
X0066507Y0711917D03*
X0071507Y0711917D03*
X0076507Y0711917D03*
X0076507Y0719417D03*
X0071507Y0719417D03*
X0088366Y0719417D03*
X0093366Y0719417D03*
X0098366Y0719417D03*
X0103366Y0719417D03*
X0103366Y0711917D03*
X0098366Y0711917D03*
X0093366Y0711917D03*
X0088366Y0711917D03*
X0487041Y0654017D03*
X0492041Y0654017D03*
X0497041Y0654017D03*
X0502041Y0654017D03*
X0502041Y0646517D03*
X0497041Y0646517D03*
X0492041Y0646517D03*
X0487041Y0646517D03*
X0520641Y0646517D03*
X0525641Y0646517D03*
X0530641Y0646517D03*
X0535641Y0646517D03*
X0535641Y0654017D03*
X0530641Y0654017D03*
X0525641Y0654017D03*
X0520641Y0654017D03*
X0583341Y0654017D03*
X0588341Y0654017D03*
X0593341Y0654017D03*
X0598341Y0654017D03*
X0598341Y0646517D03*
X0593341Y0646517D03*
X0588341Y0646517D03*
X0583341Y0646517D03*
D86*
X0302441Y0697267D02*
X0302441Y0702667D01*
X0292441Y0702667D02*
X0292441Y0697267D01*
X0282441Y0697267D02*
X0282441Y0702667D01*
X0032841Y0244167D02*
X0032841Y0238767D01*
X0022841Y0238767D02*
X0022841Y0244167D01*
X0021841Y0222667D02*
X0021841Y0217267D01*
X0031841Y0217267D02*
X0031841Y0222667D01*
D87*
X0029141Y0121258D03*
X0266141Y0200367D03*
X0474386Y0414567D03*
X0649141Y0641258D03*
X0256041Y0679658D03*
X0029141Y0731258D03*
X0649141Y0121258D03*
D88*
X0033932Y0759567D03*
X0018341Y0759567D03*
D89*
X0031141Y0339897D03*
X0027401Y0331236D03*
X0034881Y0331236D03*
X0180001Y0286636D03*
X0187481Y0286636D03*
X0183741Y0295297D03*
D90*
X0177654Y0316392D03*
X0177654Y0318951D03*
X0177654Y0321510D03*
X0177654Y0324069D03*
X0177654Y0326628D03*
X0177654Y0329187D03*
X0177654Y0331746D03*
X0177654Y0334305D03*
X0177654Y0336864D03*
X0177654Y0339423D03*
X0177654Y0341982D03*
X0177654Y0344541D03*
X0200629Y0344541D03*
X0200629Y0341982D03*
X0200629Y0339423D03*
X0200629Y0336864D03*
X0200629Y0334305D03*
X0200629Y0331746D03*
X0200629Y0329187D03*
X0200629Y0326628D03*
X0200629Y0324069D03*
X0200629Y0321510D03*
X0200629Y0318951D03*
X0200629Y0316392D03*
X0448354Y0305541D03*
X0448354Y0302982D03*
X0448354Y0300423D03*
X0448354Y0297864D03*
X0448354Y0295305D03*
X0448354Y0292746D03*
X0448354Y0290187D03*
X0448354Y0287628D03*
X0448354Y0285069D03*
X0448354Y0282510D03*
X0448354Y0279951D03*
X0448354Y0277392D03*
X0471329Y0277392D03*
X0471329Y0279951D03*
X0471329Y0282510D03*
X0471329Y0285069D03*
X0471329Y0287628D03*
X0471329Y0290187D03*
X0471329Y0292746D03*
X0471329Y0295305D03*
X0471329Y0297864D03*
X0471329Y0300423D03*
X0471329Y0302982D03*
X0471329Y0305541D03*
X0471329Y0338392D03*
X0471329Y0340951D03*
X0471329Y0343510D03*
X0471329Y0346069D03*
X0471329Y0348628D03*
X0471329Y0351187D03*
X0471329Y0353746D03*
X0471329Y0356305D03*
X0471329Y0358864D03*
X0471329Y0361423D03*
X0471329Y0363982D03*
X0471329Y0366541D03*
X0448354Y0366541D03*
X0448354Y0363982D03*
X0448354Y0361423D03*
X0448354Y0358864D03*
X0448354Y0356305D03*
X0448354Y0353746D03*
X0448354Y0351187D03*
X0448354Y0348628D03*
X0448354Y0346069D03*
X0448354Y0343510D03*
X0448354Y0340951D03*
X0448354Y0338392D03*
X0448354Y0239341D03*
X0448354Y0236782D03*
X0448354Y0234223D03*
X0448354Y0231664D03*
X0448354Y0229105D03*
X0448354Y0226546D03*
X0448354Y0223987D03*
X0448354Y0221428D03*
X0448354Y0218869D03*
X0448354Y0216310D03*
X0448354Y0213751D03*
X0448354Y0211192D03*
X0471329Y0211192D03*
X0471329Y0213751D03*
X0471329Y0216310D03*
X0471329Y0218869D03*
X0471329Y0221428D03*
X0471329Y0223987D03*
X0471329Y0226546D03*
X0471329Y0229105D03*
X0471329Y0231664D03*
X0471329Y0234223D03*
X0471329Y0236782D03*
X0471329Y0239341D03*
X0471329Y0178541D03*
X0471329Y0175982D03*
X0471329Y0173423D03*
X0471329Y0170864D03*
X0471329Y0168305D03*
X0471329Y0165746D03*
X0471329Y0163187D03*
X0471329Y0160628D03*
X0471329Y0158069D03*
X0471329Y0155510D03*
X0471329Y0152951D03*
X0471329Y0150392D03*
X0448354Y0150392D03*
X0448354Y0152951D03*
X0448354Y0155510D03*
X0448354Y0158069D03*
X0448354Y0160628D03*
X0448354Y0163187D03*
X0448354Y0165746D03*
X0448354Y0168305D03*
X0448354Y0170864D03*
X0448354Y0173423D03*
X0448354Y0175982D03*
X0448354Y0178541D03*
X0494954Y0585157D03*
X0494954Y0587716D03*
X0494954Y0590275D03*
X0494954Y0592834D03*
X0494954Y0595393D03*
X0494954Y0597952D03*
X0494954Y0600512D03*
X0494954Y0603071D03*
X0494954Y0605630D03*
X0494954Y0608189D03*
X0494954Y0610748D03*
X0494954Y0613307D03*
X0517929Y0613307D03*
X0517929Y0610748D03*
X0517929Y0608189D03*
X0517929Y0605630D03*
X0517929Y0603071D03*
X0517929Y0600512D03*
X0517929Y0597952D03*
X0517929Y0595393D03*
X0517929Y0592834D03*
X0517929Y0590275D03*
X0517929Y0587716D03*
X0517929Y0585157D03*
D91*
X0437541Y0676474D03*
X0437541Y0689860D03*
X0212141Y0299260D03*
X0212141Y0285874D03*
D92*
X0199141Y0286968D03*
X0199141Y0298165D03*
D93*
X0395753Y0125967D03*
X0409139Y0125967D03*
D94*
X0409495Y0655217D03*
X0402802Y0655217D03*
X0392959Y0655217D03*
X0383117Y0655217D03*
X0373274Y0655217D03*
X0366581Y0655217D03*
X0359298Y0655217D03*
X0353392Y0655217D03*
X0343156Y0655217D03*
X0333510Y0655217D03*
X0422093Y0655217D03*
D95*
X0425589Y0687894D03*
X0312692Y0687894D03*
D96*
X0466841Y0717967D03*
X0477641Y0717967D03*
X0488441Y0717967D03*
X0499241Y0717967D03*
X0510041Y0717967D03*
X0504641Y0727967D03*
X0493841Y0727967D03*
X0483041Y0727967D03*
X0472241Y0727967D03*
X0590041Y0717967D03*
X0600841Y0717967D03*
X0611641Y0717967D03*
X0622441Y0717967D03*
X0633241Y0717967D03*
X0627841Y0727967D03*
X0617041Y0727967D03*
X0606241Y0727967D03*
X0595441Y0727967D03*
X0594241Y0425267D03*
X0605041Y0425267D03*
X0599641Y0414067D03*
X0588841Y0414067D03*
X0583441Y0425267D03*
X0610441Y0414067D03*
X0615841Y0425267D03*
X0626641Y0425267D03*
X0621241Y0414067D03*
D97*
X0517465Y0538889D03*
X0517465Y0541449D03*
X0517465Y0544008D03*
X0517465Y0546567D03*
X0517465Y0549126D03*
X0517465Y0551685D03*
X0517465Y0554244D03*
X0495418Y0554047D03*
X0495418Y0551488D03*
X0495418Y0548929D03*
X0495418Y0546370D03*
X0495418Y0543811D03*
X0495418Y0541252D03*
X0495418Y0538693D03*
D98*
X0556041Y0536867D03*
X0556041Y0541867D03*
X0556041Y0546867D03*
X0556041Y0551867D03*
X0556041Y0556867D03*
X0556041Y0561867D03*
X0556041Y0566867D03*
X0580241Y0566867D03*
X0580241Y0561867D03*
X0580241Y0556867D03*
X0580241Y0551867D03*
X0580241Y0546867D03*
X0580241Y0541867D03*
X0580241Y0536867D03*
X0579641Y0501567D03*
X0579641Y0496567D03*
X0579641Y0491567D03*
X0579641Y0486567D03*
X0579641Y0481567D03*
X0579641Y0476567D03*
X0579641Y0471567D03*
X0579641Y0466567D03*
X0618241Y0466567D03*
X0618241Y0471567D03*
X0618241Y0476567D03*
X0618241Y0481567D03*
X0618241Y0486567D03*
X0618241Y0491567D03*
X0618241Y0496567D03*
X0618241Y0501567D03*
D99*
X0654341Y0419667D03*
X0555741Y0419667D03*
D100*
X0067400Y0183386D03*
X0052833Y0191260D03*
X0045747Y0183386D03*
X0031180Y0191260D03*
X0021731Y0183386D03*
D101*
X0064791Y0151467D03*
X0074591Y0151467D03*
X0082491Y0151467D03*
X0092291Y0151467D03*
X0132391Y0151467D03*
X0142191Y0151467D03*
X0150091Y0151467D03*
X0159891Y0151467D03*
D102*
X0171991Y0140767D03*
X0120291Y0140767D03*
X0104391Y0140767D03*
X0052691Y0140767D03*
D103*
X0060141Y0222467D03*
X0060141Y0232467D03*
X0060141Y0242467D03*
X0060141Y0252467D03*
X0060141Y0262467D03*
X0070141Y0262467D03*
X0070141Y0252467D03*
X0070141Y0242467D03*
X0070141Y0232467D03*
X0070141Y0222467D03*
X0127741Y0222467D03*
X0127741Y0232467D03*
X0127741Y0242467D03*
X0127741Y0252467D03*
X0127741Y0262467D03*
X0137741Y0262467D03*
X0137741Y0252467D03*
X0137741Y0242467D03*
X0137741Y0232467D03*
X0137741Y0222467D03*
X0164941Y0191867D03*
X0174941Y0191867D03*
X0174941Y0181867D03*
X0164941Y0181867D03*
X0184941Y0181867D03*
X0184941Y0191867D03*
X0229941Y0304567D03*
X0229941Y0314567D03*
X0239941Y0314567D03*
X0239941Y0304567D03*
X0239941Y0324567D03*
X0239941Y0334567D03*
X0239941Y0344567D03*
X0229941Y0344567D03*
X0229941Y0334567D03*
X0229941Y0324567D03*
X0044162Y0442875D03*
X0034162Y0442875D03*
X0034162Y0452875D03*
X0034162Y0462875D03*
X0034162Y0472875D03*
X0034162Y0482875D03*
X0044162Y0482875D03*
X0044162Y0472875D03*
X0044162Y0462875D03*
X0044162Y0452875D03*
X0425221Y0455149D03*
X0425221Y0465149D03*
X0425221Y0475149D03*
X0435221Y0475149D03*
X0435221Y0465149D03*
X0435221Y0455149D03*
X0435221Y0445149D03*
X0425221Y0445149D03*
X0425221Y0435149D03*
X0435221Y0435149D03*
X0435221Y0425149D03*
X0425221Y0425149D03*
X0425221Y0485149D03*
X0425221Y0495149D03*
X0425221Y0505149D03*
X0425221Y0515149D03*
X0435221Y0515149D03*
X0435221Y0505149D03*
X0435221Y0495149D03*
X0435221Y0485149D03*
X0435221Y0525149D03*
X0435221Y0535149D03*
X0435221Y0545149D03*
X0435221Y0555149D03*
X0425221Y0555149D03*
X0425221Y0545149D03*
X0425221Y0535149D03*
X0425221Y0525149D03*
X0425221Y0565149D03*
X0425221Y0575149D03*
X0425221Y0585149D03*
X0425221Y0595149D03*
X0435221Y0595149D03*
X0435221Y0585149D03*
X0435221Y0575149D03*
X0435221Y0565149D03*
X0435221Y0605149D03*
X0435221Y0615149D03*
X0425221Y0615149D03*
X0425221Y0605149D03*
X0511641Y0486967D03*
X0511641Y0476967D03*
X0521641Y0476967D03*
X0521641Y0486967D03*
X0521641Y0466967D03*
X0521641Y0456967D03*
X0521641Y0446967D03*
X0521641Y0436967D03*
X0511641Y0436967D03*
X0511641Y0446967D03*
X0511641Y0456967D03*
X0511641Y0466967D03*
X0511641Y0426967D03*
X0521641Y0426967D03*
X0566441Y0352767D03*
X0566441Y0342767D03*
X0566441Y0332767D03*
X0566441Y0322767D03*
X0576441Y0322767D03*
X0576441Y0332767D03*
X0576441Y0342767D03*
X0576441Y0352767D03*
X0576441Y0312767D03*
X0576441Y0302767D03*
X0576441Y0292767D03*
X0576441Y0282767D03*
X0566441Y0282767D03*
X0566441Y0292767D03*
X0566441Y0302767D03*
X0566441Y0312767D03*
X0566441Y0272767D03*
X0566441Y0262767D03*
X0566441Y0252767D03*
X0566441Y0242767D03*
X0576441Y0242767D03*
X0576441Y0252767D03*
X0576441Y0262767D03*
X0576441Y0272767D03*
X0576441Y0232767D03*
X0576441Y0222767D03*
X0576441Y0212767D03*
X0576441Y0202767D03*
X0566441Y0202767D03*
X0566441Y0212767D03*
X0566441Y0222767D03*
X0566441Y0232767D03*
X0566441Y0192767D03*
X0566441Y0182767D03*
X0566441Y0172767D03*
X0566441Y0162767D03*
X0576441Y0162767D03*
X0576441Y0172767D03*
X0576441Y0182767D03*
X0576441Y0192767D03*
D104*
X0634007Y0512467D03*
X0642275Y0512467D03*
X0653007Y0512467D03*
X0661275Y0512467D03*
X0035275Y0410567D03*
X0027007Y0410567D03*
X0027007Y0386567D03*
X0035275Y0386567D03*
X0035275Y0362567D03*
X0027007Y0362567D03*
D105*
X0261741Y0573367D02*
X0261741Y0579367D01*
X0271741Y0579367D02*
X0271741Y0573367D01*
X0281741Y0573367D02*
X0281741Y0579367D01*
X0291741Y0579367D02*
X0291741Y0573367D01*
D106*
X0273455Y0557243D03*
X0271093Y0555275D03*
X0273455Y0553306D03*
X0271093Y0551338D03*
X0273455Y0549369D03*
X0271093Y0547401D03*
X0271093Y0543464D03*
X0273455Y0541495D03*
X0273455Y0533621D03*
X0271093Y0531652D03*
X0271093Y0527715D03*
X0273455Y0525747D03*
X0273455Y0517873D03*
X0273455Y0513936D03*
X0271093Y0511967D03*
X0273455Y0509999D03*
X0271093Y0508030D03*
X0271093Y0504093D03*
X0273455Y0498188D03*
X0271093Y0496219D03*
X0273455Y0494251D03*
X0273455Y0486377D03*
X0273455Y0482440D03*
X0273455Y0478503D03*
X0271093Y0476534D03*
X0271093Y0472597D03*
X0273455Y0470629D03*
X0273455Y0466692D03*
X0271093Y0464723D03*
X0273455Y0462755D03*
X0271093Y0456849D03*
X0273455Y0450944D03*
X0271093Y0448975D03*
X0273455Y0447007D03*
X0271093Y0445038D03*
X0273455Y0443070D03*
X0271093Y0437164D03*
X0271093Y0433227D03*
X0259641Y0454881D03*
X0259641Y0460786D03*
X0259641Y0474566D03*
X0259641Y0488345D03*
X0259641Y0506062D03*
X0259641Y0515904D03*
X0259641Y0519841D03*
X0227196Y0566467D03*
X0231133Y0574763D03*
X0233101Y0577125D03*
X0235070Y0574763D03*
X0237038Y0577125D03*
X0239007Y0574763D03*
X0240975Y0577125D03*
X0242944Y0574763D03*
X0244912Y0577125D03*
X0246881Y0574763D03*
X0248849Y0577125D03*
X0250818Y0574763D03*
X0252786Y0577125D03*
X0229164Y0577125D03*
X0225227Y0577125D03*
X0223259Y0574763D03*
X0221290Y0577125D03*
X0219322Y0574763D03*
X0217353Y0577125D03*
X0213416Y0577125D03*
X0211447Y0574763D03*
X0209479Y0577125D03*
X0205542Y0577125D03*
X0203573Y0574763D03*
X0201605Y0577125D03*
X0199636Y0574763D03*
X0197668Y0577125D03*
X0195699Y0574763D03*
X0189794Y0577125D03*
X0187825Y0574763D03*
X0185857Y0577125D03*
X0181920Y0577125D03*
X0168140Y0574763D03*
X0166172Y0577125D03*
X0164203Y0574763D03*
X0162235Y0577125D03*
X0158298Y0577125D03*
X0156329Y0574763D03*
X0154361Y0577125D03*
X0148455Y0574763D03*
X0146487Y0577125D03*
X0152392Y0565467D03*
X0132707Y0574763D03*
X0126802Y0577125D03*
X0122865Y0577125D03*
X0119125Y0544448D03*
X0116762Y0542479D03*
X0119125Y0540511D03*
X0116762Y0538542D03*
X0119125Y0536574D03*
X0116762Y0534605D03*
X0119125Y0532637D03*
X0116762Y0530668D03*
X0116762Y0526731D03*
X0119125Y0524763D03*
X0119125Y0520826D03*
X0116762Y0518857D03*
X0119125Y0516889D03*
X0122325Y0512952D03*
X0119125Y0509015D03*
X0116762Y0510983D03*
X0116762Y0507046D03*
X0119125Y0505078D03*
X0116762Y0503109D03*
X0119125Y0501141D03*
X0116762Y0499172D03*
X0116762Y0495235D03*
X0116762Y0491298D03*
X0119125Y0489330D03*
X0116762Y0487361D03*
X0116762Y0483424D03*
X0119125Y0481456D03*
X0116762Y0479487D03*
X0116762Y0475550D03*
X0116762Y0471613D03*
X0119125Y0469645D03*
X0116762Y0467676D03*
X0116762Y0463739D03*
X0119125Y0461771D03*
X0119125Y0457834D03*
X0116762Y0455865D03*
X0113925Y0453897D03*
X0116762Y0451928D03*
X0116762Y0447991D03*
X0119125Y0446023D03*
X0116762Y0444054D03*
X0119125Y0442086D03*
X0115422Y0418465D03*
X0116959Y0405865D03*
X0114991Y0403503D03*
X0124833Y0405865D03*
X0126802Y0403503D03*
X0130739Y0403503D03*
X0136644Y0405865D03*
X0138613Y0403503D03*
X0140581Y0405865D03*
X0146487Y0403503D03*
X0148455Y0405865D03*
X0150424Y0403503D03*
X0152392Y0405865D03*
X0158298Y0403503D03*
X0160266Y0405865D03*
X0162235Y0403503D03*
X0166172Y0403503D03*
X0168140Y0405865D03*
X0170109Y0403503D03*
X0176014Y0405865D03*
X0164203Y0415467D03*
X0156329Y0415467D03*
X0195699Y0415467D03*
X0199636Y0405865D03*
X0197668Y0403503D03*
X0201605Y0403503D03*
X0207510Y0415467D03*
X0211447Y0405865D03*
X0209479Y0403503D03*
X0213416Y0403503D03*
X0217353Y0403503D03*
X0223259Y0405865D03*
X0225227Y0403503D03*
X0227196Y0405865D03*
X0231133Y0405865D03*
X0235070Y0405865D03*
X0237038Y0403503D03*
X0244912Y0403503D03*
X0246881Y0405865D03*
X0252786Y0403503D03*
X0258692Y0405865D03*
X0260660Y0403503D03*
X0264597Y0403503D03*
X0215384Y0565467D03*
X0207510Y0565467D03*
X0121925Y0493267D03*
X0113125Y0485393D03*
X0112725Y0473582D03*
X0074841Y0476467D03*
X0074441Y0460067D03*
X0073541Y0454267D03*
X0110362Y0522794D03*
D107*
X0117196Y0571563D03*
X0286241Y0546467D03*
D108*
X0306041Y0564667D03*
X0248841Y0551067D03*
X0241641Y0546867D03*
X0164341Y0602667D03*
X0161641Y0623267D03*
X0155841Y0621667D03*
X0167841Y0635867D03*
X0174941Y0670067D03*
X0187641Y0669967D03*
X0201941Y0670267D03*
X0164241Y0692667D03*
X0152241Y0692667D03*
X0112941Y0683167D03*
X0114441Y0668367D03*
X0114141Y0657967D03*
X0100141Y0650467D03*
X0100141Y0672967D03*
X0100641Y0625967D03*
X0115141Y0604967D03*
X0085641Y0592967D03*
X0085141Y0570967D03*
X0106441Y0554867D03*
X0125641Y0552867D03*
X0133641Y0536467D03*
X0101641Y0524667D03*
X0055141Y0504467D03*
X0054641Y0555967D03*
X0025141Y0579267D03*
X0049641Y0613467D03*
X0047941Y0622667D03*
X0037641Y0620967D03*
X0049141Y0648467D03*
X0047141Y0657967D03*
X0041641Y0666967D03*
X0050641Y0669467D03*
X0049141Y0676967D03*
X0028841Y0660967D03*
X0021641Y0659467D03*
X0053041Y0725467D03*
X0056741Y0725467D03*
X0137441Y0450667D03*
X0138441Y0440267D03*
X0240041Y0442067D03*
X0244641Y0437467D03*
X0101941Y0274867D03*
X0030041Y0274267D03*
X0010041Y0274867D03*
X0010141Y0279867D03*
X0200541Y0262967D03*
X0199241Y0233267D03*
X0237841Y0232867D03*
X0240441Y0263167D03*
X0360041Y0110467D03*
X0366141Y0110467D03*
X0616541Y0233067D03*
X0425041Y0636067D03*
X0454941Y0735567D03*
D109*
X0437841Y0700367D03*
X0437241Y0696667D03*
X0418741Y0686067D03*
X0395641Y0663867D03*
X0374641Y0648367D03*
X0353341Y0630167D03*
X0319741Y0686267D03*
X0279051Y0619237D03*
X0259291Y0619237D03*
X0244141Y0644767D03*
X0437241Y0658867D03*
X0489541Y0624967D03*
X0559641Y0614467D03*
X0559841Y0597067D03*
X0567641Y0590467D03*
X0577141Y0591967D03*
X0560141Y0637967D03*
X0555741Y0669967D03*
X0583241Y0665967D03*
X0588241Y0665967D03*
X0593241Y0665967D03*
X0598341Y0665967D03*
X0629141Y0619967D03*
X0630641Y0552467D03*
X0630141Y0537467D03*
X0512041Y0528267D03*
X0510641Y0537967D03*
X0447741Y0375667D03*
X0447841Y0315067D03*
X0448641Y0245767D03*
X0449041Y0186867D03*
X0481341Y0177667D03*
X0223341Y0286967D03*
X0205241Y0286967D03*
X0191741Y0341567D03*
X0174841Y0356367D03*
X0132741Y0216667D03*
X0112841Y0215167D03*
X0041141Y0227967D03*
X0015541Y0210967D03*
X0023141Y0280467D03*
X0050141Y0578267D03*
X0509941Y0710467D03*
D110*
X0482641Y0734067D03*
X0489941Y0613167D03*
X0490541Y0585167D03*
X0522141Y0585167D03*
X0524041Y0549167D03*
X0548941Y0533967D03*
X0542741Y0502867D03*
X0563441Y0497967D03*
X0572441Y0496567D03*
X0606041Y0486667D03*
X0609541Y0490467D03*
X0627341Y0495267D03*
X0627141Y0500467D03*
X0628241Y0518467D03*
X0647241Y0518667D03*
X0289941Y0644967D03*
M02*
