G75*
%MOIN*%
%OFA0B0*%
%FSLAX25Y25*%
%IPPOS*%
%LPD*%
%AMOC8*
5,1,8,0,0,1.08239X$1,22.5*
%
%ADD10C,0.01000*%
%ADD11C,0.00000*%
D10*
X0006641Y0101967D02*
X0673141Y0101967D01*
X0673433Y0101967D02*
X0673433Y0768758D01*
X0673431Y0768856D01*
X0673425Y0768954D01*
X0673416Y0769052D01*
X0673402Y0769149D01*
X0673385Y0769246D01*
X0673364Y0769342D01*
X0673339Y0769437D01*
X0673311Y0769531D01*
X0673278Y0769623D01*
X0673243Y0769715D01*
X0673203Y0769805D01*
X0673161Y0769893D01*
X0673114Y0769980D01*
X0673065Y0770064D01*
X0673012Y0770147D01*
X0672956Y0770227D01*
X0672896Y0770306D01*
X0672834Y0770382D01*
X0672769Y0770455D01*
X0672701Y0770526D01*
X0672630Y0770594D01*
X0672557Y0770659D01*
X0672481Y0770721D01*
X0672402Y0770781D01*
X0672322Y0770837D01*
X0672239Y0770890D01*
X0672155Y0770939D01*
X0672068Y0770986D01*
X0671980Y0771028D01*
X0671890Y0771068D01*
X0671798Y0771103D01*
X0671706Y0771136D01*
X0671612Y0771164D01*
X0671517Y0771189D01*
X0671421Y0771210D01*
X0671324Y0771227D01*
X0671227Y0771241D01*
X0671129Y0771250D01*
X0671031Y0771256D01*
X0670933Y0771258D01*
X0006641Y0771258D01*
X0006543Y0771256D01*
X0006445Y0771250D01*
X0006347Y0771241D01*
X0006250Y0771227D01*
X0006153Y0771210D01*
X0006057Y0771189D01*
X0005962Y0771164D01*
X0005868Y0771136D01*
X0005776Y0771103D01*
X0005684Y0771068D01*
X0005594Y0771028D01*
X0005506Y0770986D01*
X0005419Y0770939D01*
X0005335Y0770890D01*
X0005252Y0770837D01*
X0005172Y0770781D01*
X0005093Y0770721D01*
X0005017Y0770659D01*
X0004944Y0770594D01*
X0004873Y0770526D01*
X0004805Y0770455D01*
X0004740Y0770382D01*
X0004678Y0770306D01*
X0004618Y0770227D01*
X0004562Y0770147D01*
X0004509Y0770064D01*
X0004460Y0769980D01*
X0004413Y0769893D01*
X0004371Y0769805D01*
X0004331Y0769715D01*
X0004296Y0769623D01*
X0004263Y0769531D01*
X0004235Y0769437D01*
X0004210Y0769342D01*
X0004189Y0769246D01*
X0004172Y0769149D01*
X0004158Y0769052D01*
X0004149Y0768954D01*
X0004143Y0768856D01*
X0004141Y0768758D01*
X0004141Y0104467D01*
X0004143Y0104369D01*
X0004149Y0104271D01*
X0004158Y0104173D01*
X0004172Y0104076D01*
X0004189Y0103979D01*
X0004210Y0103883D01*
X0004235Y0103788D01*
X0004263Y0103694D01*
X0004296Y0103602D01*
X0004331Y0103510D01*
X0004371Y0103420D01*
X0004413Y0103332D01*
X0004460Y0103245D01*
X0004509Y0103161D01*
X0004562Y0103078D01*
X0004618Y0102998D01*
X0004678Y0102919D01*
X0004740Y0102843D01*
X0004805Y0102770D01*
X0004873Y0102699D01*
X0004944Y0102631D01*
X0005017Y0102566D01*
X0005093Y0102504D01*
X0005172Y0102444D01*
X0005252Y0102388D01*
X0005335Y0102335D01*
X0005419Y0102286D01*
X0005506Y0102239D01*
X0005594Y0102197D01*
X0005684Y0102157D01*
X0005776Y0102122D01*
X0005868Y0102089D01*
X0005962Y0102061D01*
X0006057Y0102036D01*
X0006153Y0102015D01*
X0006250Y0101998D01*
X0006347Y0101984D01*
X0006445Y0101975D01*
X0006543Y0101969D01*
X0006641Y0101967D01*
D11*
X0549241Y0419667D02*
X0549243Y0419828D01*
X0549249Y0419988D01*
X0549259Y0420149D01*
X0549273Y0420309D01*
X0549291Y0420469D01*
X0549312Y0420628D01*
X0549338Y0420787D01*
X0549368Y0420945D01*
X0549401Y0421102D01*
X0549439Y0421259D01*
X0549480Y0421414D01*
X0549525Y0421568D01*
X0549574Y0421721D01*
X0549627Y0421873D01*
X0549683Y0422024D01*
X0549744Y0422173D01*
X0549807Y0422321D01*
X0549875Y0422467D01*
X0549946Y0422611D01*
X0550020Y0422753D01*
X0550098Y0422894D01*
X0550180Y0423032D01*
X0550265Y0423169D01*
X0550353Y0423303D01*
X0550445Y0423435D01*
X0550540Y0423565D01*
X0550638Y0423693D01*
X0550739Y0423818D01*
X0550843Y0423940D01*
X0550950Y0424060D01*
X0551060Y0424177D01*
X0551173Y0424292D01*
X0551289Y0424403D01*
X0551408Y0424512D01*
X0551529Y0424617D01*
X0551653Y0424720D01*
X0551779Y0424820D01*
X0551907Y0424916D01*
X0552038Y0425009D01*
X0552172Y0425099D01*
X0552307Y0425186D01*
X0552445Y0425269D01*
X0552584Y0425349D01*
X0552726Y0425425D01*
X0552869Y0425498D01*
X0553014Y0425567D01*
X0553161Y0425633D01*
X0553309Y0425695D01*
X0553459Y0425753D01*
X0553610Y0425808D01*
X0553763Y0425859D01*
X0553917Y0425906D01*
X0554072Y0425949D01*
X0554228Y0425988D01*
X0554384Y0426024D01*
X0554542Y0426055D01*
X0554700Y0426083D01*
X0554859Y0426107D01*
X0555019Y0426127D01*
X0555179Y0426143D01*
X0555339Y0426155D01*
X0555500Y0426163D01*
X0555661Y0426167D01*
X0555821Y0426167D01*
X0555982Y0426163D01*
X0556143Y0426155D01*
X0556303Y0426143D01*
X0556463Y0426127D01*
X0556623Y0426107D01*
X0556782Y0426083D01*
X0556940Y0426055D01*
X0557098Y0426024D01*
X0557254Y0425988D01*
X0557410Y0425949D01*
X0557565Y0425906D01*
X0557719Y0425859D01*
X0557872Y0425808D01*
X0558023Y0425753D01*
X0558173Y0425695D01*
X0558321Y0425633D01*
X0558468Y0425567D01*
X0558613Y0425498D01*
X0558756Y0425425D01*
X0558898Y0425349D01*
X0559037Y0425269D01*
X0559175Y0425186D01*
X0559310Y0425099D01*
X0559444Y0425009D01*
X0559575Y0424916D01*
X0559703Y0424820D01*
X0559829Y0424720D01*
X0559953Y0424617D01*
X0560074Y0424512D01*
X0560193Y0424403D01*
X0560309Y0424292D01*
X0560422Y0424177D01*
X0560532Y0424060D01*
X0560639Y0423940D01*
X0560743Y0423818D01*
X0560844Y0423693D01*
X0560942Y0423565D01*
X0561037Y0423435D01*
X0561129Y0423303D01*
X0561217Y0423169D01*
X0561302Y0423032D01*
X0561384Y0422894D01*
X0561462Y0422753D01*
X0561536Y0422611D01*
X0561607Y0422467D01*
X0561675Y0422321D01*
X0561738Y0422173D01*
X0561799Y0422024D01*
X0561855Y0421873D01*
X0561908Y0421721D01*
X0561957Y0421568D01*
X0562002Y0421414D01*
X0562043Y0421259D01*
X0562081Y0421102D01*
X0562114Y0420945D01*
X0562144Y0420787D01*
X0562170Y0420628D01*
X0562191Y0420469D01*
X0562209Y0420309D01*
X0562223Y0420149D01*
X0562233Y0419988D01*
X0562239Y0419828D01*
X0562241Y0419667D01*
X0562239Y0419506D01*
X0562233Y0419346D01*
X0562223Y0419185D01*
X0562209Y0419025D01*
X0562191Y0418865D01*
X0562170Y0418706D01*
X0562144Y0418547D01*
X0562114Y0418389D01*
X0562081Y0418232D01*
X0562043Y0418075D01*
X0562002Y0417920D01*
X0561957Y0417766D01*
X0561908Y0417613D01*
X0561855Y0417461D01*
X0561799Y0417310D01*
X0561738Y0417161D01*
X0561675Y0417013D01*
X0561607Y0416867D01*
X0561536Y0416723D01*
X0561462Y0416581D01*
X0561384Y0416440D01*
X0561302Y0416302D01*
X0561217Y0416165D01*
X0561129Y0416031D01*
X0561037Y0415899D01*
X0560942Y0415769D01*
X0560844Y0415641D01*
X0560743Y0415516D01*
X0560639Y0415394D01*
X0560532Y0415274D01*
X0560422Y0415157D01*
X0560309Y0415042D01*
X0560193Y0414931D01*
X0560074Y0414822D01*
X0559953Y0414717D01*
X0559829Y0414614D01*
X0559703Y0414514D01*
X0559575Y0414418D01*
X0559444Y0414325D01*
X0559310Y0414235D01*
X0559175Y0414148D01*
X0559037Y0414065D01*
X0558898Y0413985D01*
X0558756Y0413909D01*
X0558613Y0413836D01*
X0558468Y0413767D01*
X0558321Y0413701D01*
X0558173Y0413639D01*
X0558023Y0413581D01*
X0557872Y0413526D01*
X0557719Y0413475D01*
X0557565Y0413428D01*
X0557410Y0413385D01*
X0557254Y0413346D01*
X0557098Y0413310D01*
X0556940Y0413279D01*
X0556782Y0413251D01*
X0556623Y0413227D01*
X0556463Y0413207D01*
X0556303Y0413191D01*
X0556143Y0413179D01*
X0555982Y0413171D01*
X0555821Y0413167D01*
X0555661Y0413167D01*
X0555500Y0413171D01*
X0555339Y0413179D01*
X0555179Y0413191D01*
X0555019Y0413207D01*
X0554859Y0413227D01*
X0554700Y0413251D01*
X0554542Y0413279D01*
X0554384Y0413310D01*
X0554228Y0413346D01*
X0554072Y0413385D01*
X0553917Y0413428D01*
X0553763Y0413475D01*
X0553610Y0413526D01*
X0553459Y0413581D01*
X0553309Y0413639D01*
X0553161Y0413701D01*
X0553014Y0413767D01*
X0552869Y0413836D01*
X0552726Y0413909D01*
X0552584Y0413985D01*
X0552445Y0414065D01*
X0552307Y0414148D01*
X0552172Y0414235D01*
X0552038Y0414325D01*
X0551907Y0414418D01*
X0551779Y0414514D01*
X0551653Y0414614D01*
X0551529Y0414717D01*
X0551408Y0414822D01*
X0551289Y0414931D01*
X0551173Y0415042D01*
X0551060Y0415157D01*
X0550950Y0415274D01*
X0550843Y0415394D01*
X0550739Y0415516D01*
X0550638Y0415641D01*
X0550540Y0415769D01*
X0550445Y0415899D01*
X0550353Y0416031D01*
X0550265Y0416165D01*
X0550180Y0416302D01*
X0550098Y0416440D01*
X0550020Y0416581D01*
X0549946Y0416723D01*
X0549875Y0416867D01*
X0549807Y0417013D01*
X0549744Y0417161D01*
X0549683Y0417310D01*
X0549627Y0417461D01*
X0549574Y0417613D01*
X0549525Y0417766D01*
X0549480Y0417920D01*
X0549439Y0418075D01*
X0549401Y0418232D01*
X0549368Y0418389D01*
X0549338Y0418547D01*
X0549312Y0418706D01*
X0549291Y0418865D01*
X0549273Y0419025D01*
X0549259Y0419185D01*
X0549249Y0419346D01*
X0549243Y0419506D01*
X0549241Y0419667D01*
X0647841Y0419667D02*
X0647843Y0419828D01*
X0647849Y0419988D01*
X0647859Y0420149D01*
X0647873Y0420309D01*
X0647891Y0420469D01*
X0647912Y0420628D01*
X0647938Y0420787D01*
X0647968Y0420945D01*
X0648001Y0421102D01*
X0648039Y0421259D01*
X0648080Y0421414D01*
X0648125Y0421568D01*
X0648174Y0421721D01*
X0648227Y0421873D01*
X0648283Y0422024D01*
X0648344Y0422173D01*
X0648407Y0422321D01*
X0648475Y0422467D01*
X0648546Y0422611D01*
X0648620Y0422753D01*
X0648698Y0422894D01*
X0648780Y0423032D01*
X0648865Y0423169D01*
X0648953Y0423303D01*
X0649045Y0423435D01*
X0649140Y0423565D01*
X0649238Y0423693D01*
X0649339Y0423818D01*
X0649443Y0423940D01*
X0649550Y0424060D01*
X0649660Y0424177D01*
X0649773Y0424292D01*
X0649889Y0424403D01*
X0650008Y0424512D01*
X0650129Y0424617D01*
X0650253Y0424720D01*
X0650379Y0424820D01*
X0650507Y0424916D01*
X0650638Y0425009D01*
X0650772Y0425099D01*
X0650907Y0425186D01*
X0651045Y0425269D01*
X0651184Y0425349D01*
X0651326Y0425425D01*
X0651469Y0425498D01*
X0651614Y0425567D01*
X0651761Y0425633D01*
X0651909Y0425695D01*
X0652059Y0425753D01*
X0652210Y0425808D01*
X0652363Y0425859D01*
X0652517Y0425906D01*
X0652672Y0425949D01*
X0652828Y0425988D01*
X0652984Y0426024D01*
X0653142Y0426055D01*
X0653300Y0426083D01*
X0653459Y0426107D01*
X0653619Y0426127D01*
X0653779Y0426143D01*
X0653939Y0426155D01*
X0654100Y0426163D01*
X0654261Y0426167D01*
X0654421Y0426167D01*
X0654582Y0426163D01*
X0654743Y0426155D01*
X0654903Y0426143D01*
X0655063Y0426127D01*
X0655223Y0426107D01*
X0655382Y0426083D01*
X0655540Y0426055D01*
X0655698Y0426024D01*
X0655854Y0425988D01*
X0656010Y0425949D01*
X0656165Y0425906D01*
X0656319Y0425859D01*
X0656472Y0425808D01*
X0656623Y0425753D01*
X0656773Y0425695D01*
X0656921Y0425633D01*
X0657068Y0425567D01*
X0657213Y0425498D01*
X0657356Y0425425D01*
X0657498Y0425349D01*
X0657637Y0425269D01*
X0657775Y0425186D01*
X0657910Y0425099D01*
X0658044Y0425009D01*
X0658175Y0424916D01*
X0658303Y0424820D01*
X0658429Y0424720D01*
X0658553Y0424617D01*
X0658674Y0424512D01*
X0658793Y0424403D01*
X0658909Y0424292D01*
X0659022Y0424177D01*
X0659132Y0424060D01*
X0659239Y0423940D01*
X0659343Y0423818D01*
X0659444Y0423693D01*
X0659542Y0423565D01*
X0659637Y0423435D01*
X0659729Y0423303D01*
X0659817Y0423169D01*
X0659902Y0423032D01*
X0659984Y0422894D01*
X0660062Y0422753D01*
X0660136Y0422611D01*
X0660207Y0422467D01*
X0660275Y0422321D01*
X0660338Y0422173D01*
X0660399Y0422024D01*
X0660455Y0421873D01*
X0660508Y0421721D01*
X0660557Y0421568D01*
X0660602Y0421414D01*
X0660643Y0421259D01*
X0660681Y0421102D01*
X0660714Y0420945D01*
X0660744Y0420787D01*
X0660770Y0420628D01*
X0660791Y0420469D01*
X0660809Y0420309D01*
X0660823Y0420149D01*
X0660833Y0419988D01*
X0660839Y0419828D01*
X0660841Y0419667D01*
X0660839Y0419506D01*
X0660833Y0419346D01*
X0660823Y0419185D01*
X0660809Y0419025D01*
X0660791Y0418865D01*
X0660770Y0418706D01*
X0660744Y0418547D01*
X0660714Y0418389D01*
X0660681Y0418232D01*
X0660643Y0418075D01*
X0660602Y0417920D01*
X0660557Y0417766D01*
X0660508Y0417613D01*
X0660455Y0417461D01*
X0660399Y0417310D01*
X0660338Y0417161D01*
X0660275Y0417013D01*
X0660207Y0416867D01*
X0660136Y0416723D01*
X0660062Y0416581D01*
X0659984Y0416440D01*
X0659902Y0416302D01*
X0659817Y0416165D01*
X0659729Y0416031D01*
X0659637Y0415899D01*
X0659542Y0415769D01*
X0659444Y0415641D01*
X0659343Y0415516D01*
X0659239Y0415394D01*
X0659132Y0415274D01*
X0659022Y0415157D01*
X0658909Y0415042D01*
X0658793Y0414931D01*
X0658674Y0414822D01*
X0658553Y0414717D01*
X0658429Y0414614D01*
X0658303Y0414514D01*
X0658175Y0414418D01*
X0658044Y0414325D01*
X0657910Y0414235D01*
X0657775Y0414148D01*
X0657637Y0414065D01*
X0657498Y0413985D01*
X0657356Y0413909D01*
X0657213Y0413836D01*
X0657068Y0413767D01*
X0656921Y0413701D01*
X0656773Y0413639D01*
X0656623Y0413581D01*
X0656472Y0413526D01*
X0656319Y0413475D01*
X0656165Y0413428D01*
X0656010Y0413385D01*
X0655854Y0413346D01*
X0655698Y0413310D01*
X0655540Y0413279D01*
X0655382Y0413251D01*
X0655223Y0413227D01*
X0655063Y0413207D01*
X0654903Y0413191D01*
X0654743Y0413179D01*
X0654582Y0413171D01*
X0654421Y0413167D01*
X0654261Y0413167D01*
X0654100Y0413171D01*
X0653939Y0413179D01*
X0653779Y0413191D01*
X0653619Y0413207D01*
X0653459Y0413227D01*
X0653300Y0413251D01*
X0653142Y0413279D01*
X0652984Y0413310D01*
X0652828Y0413346D01*
X0652672Y0413385D01*
X0652517Y0413428D01*
X0652363Y0413475D01*
X0652210Y0413526D01*
X0652059Y0413581D01*
X0651909Y0413639D01*
X0651761Y0413701D01*
X0651614Y0413767D01*
X0651469Y0413836D01*
X0651326Y0413909D01*
X0651184Y0413985D01*
X0651045Y0414065D01*
X0650907Y0414148D01*
X0650772Y0414235D01*
X0650638Y0414325D01*
X0650507Y0414418D01*
X0650379Y0414514D01*
X0650253Y0414614D01*
X0650129Y0414717D01*
X0650008Y0414822D01*
X0649889Y0414931D01*
X0649773Y0415042D01*
X0649660Y0415157D01*
X0649550Y0415274D01*
X0649443Y0415394D01*
X0649339Y0415516D01*
X0649238Y0415641D01*
X0649140Y0415769D01*
X0649045Y0415899D01*
X0648953Y0416031D01*
X0648865Y0416165D01*
X0648780Y0416302D01*
X0648698Y0416440D01*
X0648620Y0416581D01*
X0648546Y0416723D01*
X0648475Y0416867D01*
X0648407Y0417013D01*
X0648344Y0417161D01*
X0648283Y0417310D01*
X0648227Y0417461D01*
X0648174Y0417613D01*
X0648125Y0417766D01*
X0648080Y0417920D01*
X0648039Y0418075D01*
X0648001Y0418232D01*
X0647968Y0418389D01*
X0647938Y0418547D01*
X0647912Y0418706D01*
X0647891Y0418865D01*
X0647873Y0419025D01*
X0647859Y0419185D01*
X0647849Y0419346D01*
X0647843Y0419506D01*
X0647841Y0419667D01*
M02*
