G75*
%MOIN*%
%OFA0B0*%
%FSLAX25Y25*%
%IPPOS*%
%LPD*%
%AMOC8*
5,1,8,0,0,1.08239X$1,22.5*
%
%ADD10R,0.06706X0.05918*%
%ADD11C,0.08200*%
%ADD12C,0.20800*%
%ADD13OC8,0.06115*%
%ADD14C,0.13461*%
%ADD15OC8,0.04639*%
%ADD16C,0.08477*%
%ADD17C,0.06200*%
%ADD18C,0.23800*%
%ADD19OC8,0.11430*%
%ADD20OC8,0.06800*%
%ADD21C,0.13800*%
%ADD22OC8,0.10249*%
%ADD23C,0.06200*%
%ADD24C,0.13900*%
%ADD25OC8,0.06200*%
%ADD26C,0.06800*%
%ADD27OC8,0.02600*%
%ADD28OC8,0.03753*%
%ADD29OC8,0.04343*%
%ADD30OC8,0.03800*%
%ADD31OC8,0.03100*%
D10*
X0130582Y0439664D03*
X0130582Y0447145D03*
X0105300Y0453989D03*
X0105300Y0461469D03*
X0147082Y0518264D03*
X0147082Y0525745D03*
X0132500Y0543389D03*
X0132500Y0550869D03*
X0184782Y0495345D03*
X0184782Y0487864D03*
X0196282Y0495064D03*
X0196282Y0502545D03*
X0219182Y0518864D03*
X0219182Y0526345D03*
X0228882Y0525945D03*
X0228882Y0518464D03*
X0239434Y0530264D03*
X0239434Y0537745D03*
X0233241Y0452807D03*
X0233241Y0445327D03*
D11*
X0201696Y0708167D03*
X0192681Y0708167D03*
X0183665Y0708167D03*
X0174649Y0708167D03*
X0165633Y0708167D03*
X0161145Y0718167D03*
X0165633Y0728167D03*
X0174649Y0728167D03*
X0170161Y0718167D03*
X0179177Y0718167D03*
X0188192Y0718167D03*
X0192681Y0728167D03*
X0201696Y0728167D03*
X0197208Y0718167D03*
X0183665Y0728167D03*
D12*
X0231854Y0718167D03*
X0133429Y0718167D03*
X0439141Y0722967D03*
X0537741Y0722967D03*
X0562341Y0722967D03*
X0660941Y0722967D03*
D13*
X0291027Y0726110D03*
X0291027Y0735952D03*
X0264255Y0735952D03*
X0264255Y0726110D03*
D14*
X0251106Y0747763D03*
X0277641Y0750873D03*
X0304177Y0747763D03*
D15*
X0387531Y0601153D03*
X0387531Y0595602D03*
X0387531Y0590051D03*
X0387531Y0584500D03*
X0387531Y0578949D03*
X0387531Y0573397D03*
X0387531Y0567846D03*
X0387531Y0562295D03*
X0387531Y0556744D03*
X0387531Y0551193D03*
X0387531Y0545641D03*
X0387531Y0540090D03*
X0387531Y0534539D03*
X0387531Y0528988D03*
X0387531Y0523437D03*
X0387531Y0517886D03*
X0387531Y0512334D03*
X0387531Y0506783D03*
X0387531Y0501232D03*
X0387531Y0495681D03*
X0387531Y0490130D03*
X0387531Y0484578D03*
X0387531Y0479027D03*
X0387531Y0473476D03*
X0387531Y0467925D03*
X0387531Y0462374D03*
X0387531Y0456823D03*
X0387531Y0451271D03*
X0387531Y0445720D03*
X0387531Y0440169D03*
X0387531Y0434618D03*
X0387531Y0429067D03*
X0387531Y0423515D03*
X0387531Y0417964D03*
X0387531Y0412413D03*
X0387531Y0406862D03*
D16*
X0113684Y0737817D02*
X0113684Y0745494D01*
X0116047Y0757108D02*
X0116047Y0764786D01*
X0054236Y0764786D02*
X0054236Y0757108D01*
X0056598Y0745494D02*
X0056598Y0737817D01*
D17*
X0282441Y0702667D02*
X0282441Y0697267D01*
X0292441Y0697267D02*
X0292441Y0702667D01*
X0302441Y0702667D02*
X0302441Y0697267D01*
X0032841Y0244167D02*
X0032841Y0238767D01*
X0022841Y0238767D02*
X0022841Y0244167D01*
X0021841Y0222667D02*
X0021841Y0217267D01*
X0031841Y0217267D02*
X0031841Y0222667D01*
D18*
X0029141Y0121258D03*
X0266141Y0200367D03*
X0474386Y0414567D03*
X0649141Y0641258D03*
X0256041Y0679658D03*
X0029141Y0731258D03*
X0649141Y0121258D03*
D19*
X0033932Y0759567D03*
X0018341Y0759567D03*
D20*
X0466841Y0717967D03*
X0477641Y0717967D03*
X0488441Y0717967D03*
X0499241Y0717967D03*
X0510041Y0717967D03*
X0504641Y0727967D03*
X0493841Y0727967D03*
X0483041Y0727967D03*
X0472241Y0727967D03*
X0590041Y0717967D03*
X0600841Y0717967D03*
X0611641Y0717967D03*
X0622441Y0717967D03*
X0633241Y0717967D03*
X0627841Y0727967D03*
X0617041Y0727967D03*
X0606241Y0727967D03*
X0595441Y0727967D03*
X0594241Y0425267D03*
X0605041Y0425267D03*
X0599641Y0414067D03*
X0588841Y0414067D03*
X0583441Y0425267D03*
X0610441Y0414067D03*
X0615841Y0425267D03*
X0626641Y0425267D03*
X0621241Y0414067D03*
D21*
X0654341Y0419667D03*
X0555741Y0419667D03*
D22*
X0067400Y0183386D03*
X0052833Y0191260D03*
X0045747Y0183386D03*
X0031180Y0191260D03*
X0021731Y0183386D03*
D23*
X0064791Y0151467D03*
X0074591Y0151467D03*
X0082491Y0151467D03*
X0092291Y0151467D03*
X0132391Y0151467D03*
X0142191Y0151467D03*
X0150091Y0151467D03*
X0159891Y0151467D03*
D24*
X0171991Y0140767D03*
X0120291Y0140767D03*
X0104391Y0140767D03*
X0052691Y0140767D03*
D25*
X0060141Y0222467D03*
X0060141Y0232467D03*
X0060141Y0242467D03*
X0060141Y0252467D03*
X0060141Y0262467D03*
X0070141Y0262467D03*
X0070141Y0252467D03*
X0070141Y0242467D03*
X0070141Y0232467D03*
X0070141Y0222467D03*
X0127741Y0222467D03*
X0127741Y0232467D03*
X0127741Y0242467D03*
X0127741Y0252467D03*
X0127741Y0262467D03*
X0137741Y0262467D03*
X0137741Y0252467D03*
X0137741Y0242467D03*
X0137741Y0232467D03*
X0137741Y0222467D03*
X0164941Y0191867D03*
X0174941Y0191867D03*
X0174941Y0181867D03*
X0164941Y0181867D03*
X0184941Y0181867D03*
X0184941Y0191867D03*
X0229941Y0304567D03*
X0229941Y0314567D03*
X0239941Y0314567D03*
X0239941Y0304567D03*
X0239941Y0324567D03*
X0239941Y0334567D03*
X0239941Y0344567D03*
X0229941Y0344567D03*
X0229941Y0334567D03*
X0229941Y0324567D03*
X0044162Y0442875D03*
X0034162Y0442875D03*
X0034162Y0452875D03*
X0034162Y0462875D03*
X0034162Y0472875D03*
X0034162Y0482875D03*
X0044162Y0482875D03*
X0044162Y0472875D03*
X0044162Y0462875D03*
X0044162Y0452875D03*
X0425221Y0455149D03*
X0425221Y0465149D03*
X0425221Y0475149D03*
X0435221Y0475149D03*
X0435221Y0465149D03*
X0435221Y0455149D03*
X0435221Y0445149D03*
X0425221Y0445149D03*
X0425221Y0435149D03*
X0435221Y0435149D03*
X0435221Y0425149D03*
X0425221Y0425149D03*
X0425221Y0485149D03*
X0425221Y0495149D03*
X0425221Y0505149D03*
X0425221Y0515149D03*
X0435221Y0515149D03*
X0435221Y0505149D03*
X0435221Y0495149D03*
X0435221Y0485149D03*
X0435221Y0525149D03*
X0435221Y0535149D03*
X0435221Y0545149D03*
X0435221Y0555149D03*
X0425221Y0555149D03*
X0425221Y0545149D03*
X0425221Y0535149D03*
X0425221Y0525149D03*
X0425221Y0565149D03*
X0425221Y0575149D03*
X0425221Y0585149D03*
X0425221Y0595149D03*
X0435221Y0595149D03*
X0435221Y0585149D03*
X0435221Y0575149D03*
X0435221Y0565149D03*
X0435221Y0605149D03*
X0435221Y0615149D03*
X0425221Y0615149D03*
X0425221Y0605149D03*
X0511641Y0486967D03*
X0511641Y0476967D03*
X0521641Y0476967D03*
X0521641Y0486967D03*
X0521641Y0466967D03*
X0521641Y0456967D03*
X0521641Y0446967D03*
X0521641Y0436967D03*
X0511641Y0436967D03*
X0511641Y0446967D03*
X0511641Y0456967D03*
X0511641Y0466967D03*
X0511641Y0426967D03*
X0521641Y0426967D03*
X0566441Y0352767D03*
X0566441Y0342767D03*
X0566441Y0332767D03*
X0566441Y0322767D03*
X0576441Y0322767D03*
X0576441Y0332767D03*
X0576441Y0342767D03*
X0576441Y0352767D03*
X0576441Y0312767D03*
X0576441Y0302767D03*
X0576441Y0292767D03*
X0576441Y0282767D03*
X0566441Y0282767D03*
X0566441Y0292767D03*
X0566441Y0302767D03*
X0566441Y0312767D03*
X0566441Y0272767D03*
X0566441Y0262767D03*
X0566441Y0252767D03*
X0566441Y0242767D03*
X0576441Y0242767D03*
X0576441Y0252767D03*
X0576441Y0262767D03*
X0576441Y0272767D03*
X0576441Y0232767D03*
X0576441Y0222767D03*
X0576441Y0212767D03*
X0576441Y0202767D03*
X0566441Y0202767D03*
X0566441Y0212767D03*
X0566441Y0222767D03*
X0566441Y0232767D03*
X0566441Y0192767D03*
X0566441Y0182767D03*
X0566441Y0172767D03*
X0566441Y0162767D03*
X0576441Y0162767D03*
X0576441Y0172767D03*
X0576441Y0182767D03*
X0576441Y0192767D03*
D26*
X0291741Y0573367D02*
X0291741Y0579367D01*
X0281741Y0579367D02*
X0281741Y0573367D01*
X0271741Y0573367D02*
X0271741Y0579367D01*
X0261741Y0579367D02*
X0261741Y0573367D01*
D27*
X0252786Y0577125D03*
X0250818Y0574763D03*
X0248849Y0577125D03*
X0246881Y0574763D03*
X0244912Y0577125D03*
X0242944Y0574763D03*
X0240975Y0577125D03*
X0239007Y0574763D03*
X0237038Y0577125D03*
X0235070Y0574763D03*
X0233101Y0577125D03*
X0231133Y0574763D03*
X0229164Y0577125D03*
X0225227Y0577125D03*
X0223259Y0574763D03*
X0221290Y0577125D03*
X0219322Y0574763D03*
X0217353Y0577125D03*
X0213416Y0577125D03*
X0211447Y0574763D03*
X0209479Y0577125D03*
X0205542Y0577125D03*
X0203573Y0574763D03*
X0201605Y0577125D03*
X0199636Y0574763D03*
X0197668Y0577125D03*
X0195699Y0574763D03*
X0189794Y0577125D03*
X0187825Y0574763D03*
X0185857Y0577125D03*
X0181920Y0577125D03*
X0168140Y0574763D03*
X0166172Y0577125D03*
X0164203Y0574763D03*
X0162235Y0577125D03*
X0158298Y0577125D03*
X0156329Y0574763D03*
X0154361Y0577125D03*
X0148455Y0574763D03*
X0146487Y0577125D03*
X0152392Y0565467D03*
X0132707Y0574763D03*
X0126802Y0577125D03*
X0122865Y0577125D03*
X0119125Y0544448D03*
X0116762Y0542479D03*
X0119125Y0540511D03*
X0116762Y0538542D03*
X0119125Y0536574D03*
X0116762Y0534605D03*
X0119125Y0532637D03*
X0116762Y0530668D03*
X0116762Y0526731D03*
X0119125Y0524763D03*
X0119125Y0520826D03*
X0116762Y0518857D03*
X0119125Y0516889D03*
X0122325Y0512952D03*
X0119125Y0509015D03*
X0116762Y0510983D03*
X0116762Y0507046D03*
X0119125Y0505078D03*
X0116762Y0503109D03*
X0119125Y0501141D03*
X0116762Y0499172D03*
X0116762Y0495235D03*
X0116762Y0491298D03*
X0119125Y0489330D03*
X0116762Y0487361D03*
X0116762Y0483424D03*
X0119125Y0481456D03*
X0116762Y0479487D03*
X0116762Y0475550D03*
X0116762Y0471613D03*
X0119125Y0469645D03*
X0116762Y0467676D03*
X0116762Y0463739D03*
X0119125Y0461771D03*
X0119125Y0457834D03*
X0116762Y0455865D03*
X0113925Y0453897D03*
X0116762Y0451928D03*
X0116762Y0447991D03*
X0119125Y0446023D03*
X0116762Y0444054D03*
X0119125Y0442086D03*
X0115422Y0418465D03*
X0116959Y0405865D03*
X0114991Y0403503D03*
X0124833Y0405865D03*
X0126802Y0403503D03*
X0130739Y0403503D03*
X0136644Y0405865D03*
X0138613Y0403503D03*
X0140581Y0405865D03*
X0146487Y0403503D03*
X0148455Y0405865D03*
X0150424Y0403503D03*
X0152392Y0405865D03*
X0158298Y0403503D03*
X0160266Y0405865D03*
X0162235Y0403503D03*
X0166172Y0403503D03*
X0168140Y0405865D03*
X0170109Y0403503D03*
X0176014Y0405865D03*
X0164203Y0415467D03*
X0156329Y0415467D03*
X0195699Y0415467D03*
X0199636Y0405865D03*
X0197668Y0403503D03*
X0201605Y0403503D03*
X0207510Y0415467D03*
X0211447Y0405865D03*
X0209479Y0403503D03*
X0213416Y0403503D03*
X0217353Y0403503D03*
X0223259Y0405865D03*
X0225227Y0403503D03*
X0227196Y0405865D03*
X0231133Y0405865D03*
X0235070Y0405865D03*
X0237038Y0403503D03*
X0244912Y0403503D03*
X0246881Y0405865D03*
X0252786Y0403503D03*
X0258692Y0405865D03*
X0260660Y0403503D03*
X0264597Y0403503D03*
X0271093Y0433227D03*
X0271093Y0437164D03*
X0273455Y0443070D03*
X0271093Y0445038D03*
X0273455Y0447007D03*
X0271093Y0448975D03*
X0273455Y0450944D03*
X0271093Y0456849D03*
X0273455Y0462755D03*
X0271093Y0464723D03*
X0273455Y0466692D03*
X0273455Y0470629D03*
X0271093Y0472597D03*
X0271093Y0476534D03*
X0273455Y0478503D03*
X0273455Y0482440D03*
X0273455Y0486377D03*
X0273455Y0494251D03*
X0271093Y0496219D03*
X0273455Y0498188D03*
X0271093Y0504093D03*
X0271093Y0508030D03*
X0273455Y0509999D03*
X0271093Y0511967D03*
X0273455Y0513936D03*
X0273455Y0517873D03*
X0273455Y0525747D03*
X0271093Y0527715D03*
X0271093Y0531652D03*
X0273455Y0533621D03*
X0273455Y0541495D03*
X0271093Y0543464D03*
X0271093Y0547401D03*
X0273455Y0549369D03*
X0271093Y0551338D03*
X0273455Y0553306D03*
X0271093Y0555275D03*
X0273455Y0557243D03*
X0259641Y0519841D03*
X0259641Y0515904D03*
X0259641Y0506062D03*
X0259641Y0488345D03*
X0259641Y0474566D03*
X0259641Y0460786D03*
X0259641Y0454881D03*
X0227196Y0566467D03*
X0215384Y0565467D03*
X0207510Y0565467D03*
X0121925Y0493267D03*
X0113125Y0485393D03*
X0112725Y0473582D03*
X0074841Y0476467D03*
X0074441Y0460067D03*
X0073541Y0454267D03*
X0110362Y0522794D03*
D28*
X0117196Y0571563D03*
X0286241Y0546467D03*
D29*
X0306041Y0564667D03*
X0248841Y0551067D03*
X0241641Y0546867D03*
X0164341Y0602667D03*
X0161641Y0623267D03*
X0155841Y0621667D03*
X0167841Y0635867D03*
X0174941Y0670067D03*
X0187641Y0669967D03*
X0201941Y0670267D03*
X0164241Y0692667D03*
X0152241Y0692667D03*
X0112941Y0683167D03*
X0114441Y0668367D03*
X0114141Y0657967D03*
X0100141Y0650467D03*
X0100141Y0672967D03*
X0100641Y0625967D03*
X0115141Y0604967D03*
X0085641Y0592967D03*
X0085141Y0570967D03*
X0106441Y0554867D03*
X0125641Y0552867D03*
X0133641Y0536467D03*
X0101641Y0524667D03*
X0055141Y0504467D03*
X0054641Y0555967D03*
X0025141Y0579267D03*
X0049641Y0613467D03*
X0047941Y0622667D03*
X0037641Y0620967D03*
X0049141Y0648467D03*
X0047141Y0657967D03*
X0041641Y0666967D03*
X0050641Y0669467D03*
X0049141Y0676967D03*
X0028841Y0660967D03*
X0021641Y0659467D03*
X0053041Y0725467D03*
X0056741Y0725467D03*
X0137441Y0450667D03*
X0138441Y0440267D03*
X0240041Y0442067D03*
X0244641Y0437467D03*
X0101941Y0274867D03*
X0030041Y0274267D03*
X0010041Y0274867D03*
X0010141Y0279867D03*
X0200541Y0262967D03*
X0199241Y0233267D03*
X0237841Y0232867D03*
X0240441Y0263167D03*
X0360041Y0110467D03*
X0366141Y0110467D03*
X0616541Y0233067D03*
X0425041Y0636067D03*
X0454941Y0735567D03*
D30*
X0437841Y0700367D03*
X0437241Y0696667D03*
X0418741Y0686067D03*
X0395641Y0663867D03*
X0374641Y0648367D03*
X0353341Y0630167D03*
X0319741Y0686267D03*
X0279051Y0619237D03*
X0259291Y0619237D03*
X0244141Y0644767D03*
X0437241Y0658867D03*
X0489541Y0624967D03*
X0559641Y0614467D03*
X0559841Y0597067D03*
X0567641Y0590467D03*
X0577141Y0591967D03*
X0560141Y0637967D03*
X0555741Y0669967D03*
X0583241Y0665967D03*
X0588241Y0665967D03*
X0593241Y0665967D03*
X0598341Y0665967D03*
X0629141Y0619967D03*
X0630641Y0552467D03*
X0630141Y0537467D03*
X0512041Y0528267D03*
X0510641Y0537967D03*
X0447741Y0375667D03*
X0447841Y0315067D03*
X0448641Y0245767D03*
X0449041Y0186867D03*
X0481341Y0177667D03*
X0223341Y0286967D03*
X0205241Y0286967D03*
X0191741Y0341567D03*
X0174841Y0356367D03*
X0132741Y0216667D03*
X0112841Y0215167D03*
X0041141Y0227967D03*
X0015541Y0210967D03*
X0023141Y0280467D03*
X0050141Y0578267D03*
X0509941Y0710467D03*
D31*
X0482641Y0734067D03*
X0489941Y0613167D03*
X0490541Y0585167D03*
X0522141Y0585167D03*
X0524041Y0549167D03*
X0548941Y0533967D03*
X0542741Y0502867D03*
X0563441Y0497967D03*
X0572441Y0496567D03*
X0606041Y0486667D03*
X0609541Y0490467D03*
X0627341Y0495267D03*
X0627141Y0500467D03*
X0628241Y0518467D03*
X0647241Y0518667D03*
X0289941Y0644967D03*
M02*
