G75*
%MOIN*%
%OFA0B0*%
%FSLAX25Y25*%
%IPPOS*%
%LPD*%
%AMOC8*
5,1,8,0,0,1.08239X$1,22.5*
%
%ADD10R,0.05906X0.05118*%
%ADD11C,0.07400*%
%ADD12C,0.20000*%
%ADD13OC8,0.05315*%
%ADD14C,0.12661*%
%ADD15OC8,0.03839*%
%ADD16C,0.07677*%
%ADD17C,0.05400*%
%ADD18C,0.23000*%
%ADD19OC8,0.10630*%
%ADD20OC8,0.06000*%
%ADD21OC8,0.09449*%
%ADD22C,0.05400*%
%ADD23C,0.13100*%
%ADD24OC8,0.05400*%
%ADD25C,0.06000*%
%ADD26OC8,0.01800*%
%ADD27OC8,0.02953*%
%ADD28C,0.00984*%
%ADD29C,0.00787*%
%ADD30C,0.02400*%
%ADD31OC8,0.03543*%
%ADD32C,0.01200*%
%ADD33C,0.00800*%
%ADD34OC8,0.03000*%
%ADD35OC8,0.02300*%
%ADD36C,0.01000*%
%ADD37C,0.02000*%
%ADD38C,0.01600*%
%ADD39C,0.04000*%
%ADD40C,0.03200*%
%ADD41C,0.01800*%
%ADD42C,0.00700*%
D10*
X0130582Y0439664D03*
X0130582Y0447145D03*
X0105300Y0453989D03*
X0105300Y0461469D03*
X0147082Y0518264D03*
X0147082Y0525745D03*
X0132500Y0543389D03*
X0132500Y0550869D03*
X0184782Y0495345D03*
X0184782Y0487864D03*
X0196282Y0495064D03*
X0196282Y0502545D03*
X0219182Y0518864D03*
X0219182Y0526345D03*
X0228882Y0525945D03*
X0228882Y0518464D03*
X0239434Y0530264D03*
X0239434Y0537745D03*
X0233241Y0452807D03*
X0233241Y0445327D03*
D11*
X0201696Y0708167D03*
X0192681Y0708167D03*
X0183665Y0708167D03*
X0174649Y0708167D03*
X0165633Y0708167D03*
X0161145Y0718167D03*
X0165633Y0728167D03*
X0174649Y0728167D03*
X0170161Y0718167D03*
X0179177Y0718167D03*
X0188192Y0718167D03*
X0192681Y0728167D03*
X0201696Y0728167D03*
X0197208Y0718167D03*
X0183665Y0728167D03*
D12*
X0231854Y0718167D03*
X0133429Y0718167D03*
X0439141Y0722967D03*
X0537741Y0722967D03*
X0562341Y0722967D03*
X0660941Y0722967D03*
D13*
X0291027Y0726110D03*
X0291027Y0735952D03*
X0264255Y0735952D03*
X0264255Y0726110D03*
D14*
X0251106Y0747763D03*
X0277641Y0750873D03*
X0304177Y0747763D03*
D15*
X0387531Y0601153D03*
X0387531Y0595602D03*
X0387531Y0590051D03*
X0387531Y0584500D03*
X0387531Y0578949D03*
X0387531Y0573397D03*
X0387531Y0567846D03*
X0387531Y0562295D03*
X0387531Y0556744D03*
X0387531Y0551193D03*
X0387531Y0545641D03*
X0387531Y0540090D03*
X0387531Y0534539D03*
X0387531Y0528988D03*
X0387531Y0523437D03*
X0387531Y0517886D03*
X0387531Y0512334D03*
X0387531Y0506783D03*
X0387531Y0501232D03*
X0387531Y0495681D03*
X0387531Y0490130D03*
X0387531Y0484578D03*
X0387531Y0479027D03*
X0387531Y0473476D03*
X0387531Y0467925D03*
X0387531Y0462374D03*
X0387531Y0456823D03*
X0387531Y0451271D03*
X0387531Y0445720D03*
X0387531Y0440169D03*
X0387531Y0434618D03*
X0387531Y0429067D03*
X0387531Y0423515D03*
X0387531Y0417964D03*
X0387531Y0412413D03*
X0387531Y0406862D03*
D16*
X0113684Y0737817D02*
X0113684Y0745494D01*
X0116047Y0757108D02*
X0116047Y0764786D01*
X0054236Y0764786D02*
X0054236Y0757108D01*
X0056598Y0745494D02*
X0056598Y0737817D01*
D17*
X0282441Y0702667D02*
X0282441Y0697267D01*
X0292441Y0697267D02*
X0292441Y0702667D01*
X0302441Y0702667D02*
X0302441Y0697267D01*
X0032841Y0244167D02*
X0032841Y0238767D01*
X0022841Y0238767D02*
X0022841Y0244167D01*
X0021841Y0222667D02*
X0021841Y0217267D01*
X0031841Y0217267D02*
X0031841Y0222667D01*
D18*
X0029141Y0121258D03*
X0266141Y0200367D03*
X0474386Y0414567D03*
X0649141Y0641258D03*
X0256041Y0679658D03*
X0029141Y0731258D03*
X0649141Y0121258D03*
D19*
X0033932Y0759567D03*
X0018341Y0759567D03*
D20*
X0466841Y0717967D03*
X0477641Y0717967D03*
X0488441Y0717967D03*
X0499241Y0717967D03*
X0510041Y0717967D03*
X0504641Y0727967D03*
X0493841Y0727967D03*
X0483041Y0727967D03*
X0472241Y0727967D03*
X0590041Y0717967D03*
X0600841Y0717967D03*
X0611641Y0717967D03*
X0622441Y0717967D03*
X0633241Y0717967D03*
X0627841Y0727967D03*
X0617041Y0727967D03*
X0606241Y0727967D03*
X0595441Y0727967D03*
X0594241Y0425267D03*
X0605041Y0425267D03*
X0599641Y0414067D03*
X0588841Y0414067D03*
X0583441Y0425267D03*
X0610441Y0414067D03*
X0615841Y0425267D03*
X0626641Y0425267D03*
X0621241Y0414067D03*
D21*
X0067400Y0183386D03*
X0052833Y0191260D03*
X0045747Y0183386D03*
X0031180Y0191260D03*
X0021731Y0183386D03*
D22*
X0064791Y0151467D03*
X0074591Y0151467D03*
X0082491Y0151467D03*
X0092291Y0151467D03*
X0132391Y0151467D03*
X0142191Y0151467D03*
X0150091Y0151467D03*
X0159891Y0151467D03*
D23*
X0171991Y0140767D03*
X0120291Y0140767D03*
X0104391Y0140767D03*
X0052691Y0140767D03*
D24*
X0060141Y0222467D03*
X0060141Y0232467D03*
X0060141Y0242467D03*
X0060141Y0252467D03*
X0060141Y0262467D03*
X0070141Y0262467D03*
X0070141Y0252467D03*
X0070141Y0242467D03*
X0070141Y0232467D03*
X0070141Y0222467D03*
X0127741Y0222467D03*
X0127741Y0232467D03*
X0127741Y0242467D03*
X0127741Y0252467D03*
X0127741Y0262467D03*
X0137741Y0262467D03*
X0137741Y0252467D03*
X0137741Y0242467D03*
X0137741Y0232467D03*
X0137741Y0222467D03*
X0164941Y0191867D03*
X0174941Y0191867D03*
X0174941Y0181867D03*
X0164941Y0181867D03*
X0184941Y0181867D03*
X0184941Y0191867D03*
X0229941Y0304567D03*
X0229941Y0314567D03*
X0239941Y0314567D03*
X0239941Y0304567D03*
X0239941Y0324567D03*
X0239941Y0334567D03*
X0239941Y0344567D03*
X0229941Y0344567D03*
X0229941Y0334567D03*
X0229941Y0324567D03*
X0044162Y0442875D03*
X0034162Y0442875D03*
X0034162Y0452875D03*
X0034162Y0462875D03*
X0034162Y0472875D03*
X0034162Y0482875D03*
X0044162Y0482875D03*
X0044162Y0472875D03*
X0044162Y0462875D03*
X0044162Y0452875D03*
X0425221Y0455149D03*
X0425221Y0465149D03*
X0425221Y0475149D03*
X0435221Y0475149D03*
X0435221Y0465149D03*
X0435221Y0455149D03*
X0435221Y0445149D03*
X0425221Y0445149D03*
X0425221Y0435149D03*
X0435221Y0435149D03*
X0435221Y0425149D03*
X0425221Y0425149D03*
X0425221Y0485149D03*
X0425221Y0495149D03*
X0425221Y0505149D03*
X0425221Y0515149D03*
X0435221Y0515149D03*
X0435221Y0505149D03*
X0435221Y0495149D03*
X0435221Y0485149D03*
X0435221Y0525149D03*
X0435221Y0535149D03*
X0435221Y0545149D03*
X0435221Y0555149D03*
X0425221Y0555149D03*
X0425221Y0545149D03*
X0425221Y0535149D03*
X0425221Y0525149D03*
X0425221Y0565149D03*
X0425221Y0575149D03*
X0425221Y0585149D03*
X0425221Y0595149D03*
X0435221Y0595149D03*
X0435221Y0585149D03*
X0435221Y0575149D03*
X0435221Y0565149D03*
X0435221Y0605149D03*
X0435221Y0615149D03*
X0425221Y0615149D03*
X0425221Y0605149D03*
X0511641Y0486967D03*
X0511641Y0476967D03*
X0521641Y0476967D03*
X0521641Y0486967D03*
X0521641Y0466967D03*
X0521641Y0456967D03*
X0521641Y0446967D03*
X0521641Y0436967D03*
X0511641Y0436967D03*
X0511641Y0446967D03*
X0511641Y0456967D03*
X0511641Y0466967D03*
X0511641Y0426967D03*
X0521641Y0426967D03*
X0566441Y0352767D03*
X0566441Y0342767D03*
X0566441Y0332767D03*
X0566441Y0322767D03*
X0576441Y0322767D03*
X0576441Y0332767D03*
X0576441Y0342767D03*
X0576441Y0352767D03*
X0576441Y0312767D03*
X0576441Y0302767D03*
X0576441Y0292767D03*
X0576441Y0282767D03*
X0566441Y0282767D03*
X0566441Y0292767D03*
X0566441Y0302767D03*
X0566441Y0312767D03*
X0566441Y0272767D03*
X0566441Y0262767D03*
X0566441Y0252767D03*
X0566441Y0242767D03*
X0576441Y0242767D03*
X0576441Y0252767D03*
X0576441Y0262767D03*
X0576441Y0272767D03*
X0576441Y0232767D03*
X0576441Y0222767D03*
X0576441Y0212767D03*
X0576441Y0202767D03*
X0566441Y0202767D03*
X0566441Y0212767D03*
X0566441Y0222767D03*
X0566441Y0232767D03*
X0566441Y0192767D03*
X0566441Y0182767D03*
X0566441Y0172767D03*
X0566441Y0162767D03*
X0576441Y0162767D03*
X0576441Y0172767D03*
X0576441Y0182767D03*
X0576441Y0192767D03*
D25*
X0291741Y0573367D02*
X0291741Y0579367D01*
X0281741Y0579367D02*
X0281741Y0573367D01*
X0271741Y0573367D02*
X0271741Y0579367D01*
X0261741Y0579367D02*
X0261741Y0573367D01*
D26*
X0252786Y0577125D03*
X0250818Y0574763D03*
X0248849Y0577125D03*
X0246881Y0574763D03*
X0244912Y0577125D03*
X0242944Y0574763D03*
X0240975Y0577125D03*
X0239007Y0574763D03*
X0237038Y0577125D03*
X0235070Y0574763D03*
X0233101Y0577125D03*
X0231133Y0574763D03*
X0229164Y0577125D03*
X0225227Y0577125D03*
X0223259Y0574763D03*
X0221290Y0577125D03*
X0219322Y0574763D03*
X0217353Y0577125D03*
X0213416Y0577125D03*
X0211447Y0574763D03*
X0209479Y0577125D03*
X0205542Y0577125D03*
X0203573Y0574763D03*
X0201605Y0577125D03*
X0199636Y0574763D03*
X0197668Y0577125D03*
X0195699Y0574763D03*
X0189794Y0577125D03*
X0187825Y0574763D03*
X0185857Y0577125D03*
X0181920Y0577125D03*
X0177741Y0577067D03*
X0175941Y0574667D03*
X0179741Y0565767D03*
X0170141Y0565767D03*
X0168140Y0574763D03*
X0166172Y0577125D03*
X0164203Y0574763D03*
X0162235Y0577125D03*
X0158298Y0577125D03*
X0156329Y0574763D03*
X0154361Y0577125D03*
X0148455Y0574763D03*
X0146487Y0577125D03*
X0138641Y0577267D03*
X0136741Y0574767D03*
X0132707Y0574763D03*
X0126802Y0577125D03*
X0122865Y0577125D03*
X0111041Y0585667D03*
X0123341Y0597167D03*
X0130141Y0597256D03*
X0130441Y0594267D03*
X0143241Y0590067D03*
X0132241Y0609367D03*
X0124341Y0629367D03*
X0126841Y0633267D03*
X0128041Y0635767D03*
X0175041Y0596367D03*
X0178241Y0602267D03*
X0183441Y0600667D03*
X0181541Y0594667D03*
X0169841Y0586067D03*
X0152392Y0565467D03*
X0151441Y0532667D03*
X0159282Y0524763D03*
X0163219Y0528700D03*
X0167141Y0528867D03*
X0167041Y0524867D03*
X0167156Y0520826D03*
X0171093Y0520826D03*
X0171093Y0524763D03*
X0175030Y0524763D03*
X0175030Y0528700D03*
X0178967Y0528700D03*
X0182904Y0528700D03*
X0186841Y0528700D03*
X0190778Y0528700D03*
X0194715Y0528700D03*
X0198652Y0528700D03*
X0202589Y0528700D03*
X0206526Y0528700D03*
X0206526Y0524763D03*
X0210463Y0524763D03*
X0206526Y0520826D03*
X0202589Y0520826D03*
X0198652Y0520826D03*
X0194715Y0520826D03*
X0194715Y0524763D03*
X0190778Y0524763D03*
X0186841Y0524763D03*
X0182904Y0524763D03*
X0182741Y0521067D03*
X0178967Y0520826D03*
X0178941Y0516967D03*
X0182841Y0516967D03*
X0182741Y0513167D03*
X0178967Y0512952D03*
X0175030Y0512952D03*
X0175030Y0509015D03*
X0175041Y0505067D03*
X0175030Y0501141D03*
X0171093Y0501141D03*
X0171093Y0505078D03*
X0167156Y0505078D03*
X0167156Y0509015D03*
X0163219Y0509015D03*
X0163219Y0512952D03*
X0159282Y0512952D03*
X0155345Y0516889D03*
X0167156Y0516889D03*
X0171093Y0516889D03*
X0178967Y0524763D03*
X0186841Y0520826D03*
X0190778Y0520826D03*
X0190778Y0516889D03*
X0194715Y0516889D03*
X0198652Y0516889D03*
X0202589Y0516889D03*
X0206526Y0516889D03*
X0202589Y0512952D03*
X0198652Y0512952D03*
X0194715Y0512952D03*
X0190778Y0509015D03*
X0186841Y0509015D03*
X0186841Y0512952D03*
X0182904Y0505078D03*
X0182904Y0501141D03*
X0178967Y0497204D03*
X0178967Y0493267D03*
X0178967Y0489330D03*
X0175030Y0489330D03*
X0171093Y0489330D03*
X0171093Y0493267D03*
X0171093Y0497204D03*
X0167156Y0497204D03*
X0167156Y0501141D03*
X0163219Y0501141D03*
X0163219Y0505078D03*
X0155345Y0505078D03*
X0163219Y0497204D03*
X0163219Y0493267D03*
X0159282Y0493267D03*
X0155345Y0489330D03*
X0159282Y0485393D03*
X0163219Y0485393D03*
X0163219Y0489330D03*
X0167156Y0489330D03*
X0167156Y0493267D03*
X0167156Y0485393D03*
X0171093Y0485393D03*
X0171093Y0481456D03*
X0167156Y0481456D03*
X0163219Y0481456D03*
X0159282Y0481456D03*
X0155345Y0481456D03*
X0159282Y0477519D03*
X0163219Y0477519D03*
X0167156Y0477519D03*
X0163219Y0473582D03*
X0159282Y0469645D03*
X0163219Y0465708D03*
X0167156Y0465708D03*
X0167156Y0469645D03*
X0171093Y0469645D03*
X0171093Y0473582D03*
X0175030Y0473582D03*
X0178967Y0473582D03*
X0182904Y0473582D03*
X0182904Y0477519D03*
X0186741Y0477467D03*
X0186841Y0473567D03*
X0186841Y0469645D03*
X0190641Y0469667D03*
X0190778Y0465708D03*
X0186841Y0465708D03*
X0182904Y0469645D03*
X0178967Y0469645D03*
X0175030Y0469645D03*
X0175030Y0465708D03*
X0171093Y0465708D03*
X0171093Y0461771D03*
X0167156Y0461771D03*
X0163219Y0461771D03*
X0159282Y0461771D03*
X0155345Y0457834D03*
X0167156Y0457834D03*
X0175030Y0457834D03*
X0175030Y0461771D03*
X0178967Y0461771D03*
X0178967Y0465708D03*
X0178967Y0457834D03*
X0182904Y0457834D03*
X0186841Y0457834D03*
X0190778Y0461771D03*
X0194715Y0465708D03*
X0194715Y0469645D03*
X0194715Y0473582D03*
X0191041Y0473667D03*
X0190778Y0477519D03*
X0190778Y0481456D03*
X0190778Y0485393D03*
X0182904Y0481456D03*
X0178967Y0481456D03*
X0194715Y0477519D03*
X0198652Y0473582D03*
X0202589Y0473582D03*
X0202589Y0469645D03*
X0198652Y0469645D03*
X0198652Y0465708D03*
X0202589Y0465708D03*
X0206526Y0465708D03*
X0206526Y0469645D03*
X0210463Y0473582D03*
X0210463Y0477519D03*
X0210463Y0481456D03*
X0210463Y0485393D03*
X0206526Y0485393D03*
X0206526Y0489330D03*
X0206526Y0493267D03*
X0206526Y0497204D03*
X0206526Y0501141D03*
X0206526Y0505078D03*
X0206526Y0509015D03*
X0210463Y0509015D03*
X0210463Y0512952D03*
X0214400Y0509015D03*
X0214400Y0505078D03*
X0210463Y0505078D03*
X0210463Y0501141D03*
X0214400Y0501141D03*
X0218337Y0501141D03*
X0218337Y0497204D03*
X0214400Y0497204D03*
X0210463Y0497204D03*
X0210463Y0493267D03*
X0214400Y0493267D03*
X0218337Y0493267D03*
X0222274Y0493267D03*
X0222274Y0497204D03*
X0222274Y0489330D03*
X0218337Y0489330D03*
X0214400Y0489330D03*
X0214400Y0485393D03*
X0218337Y0485393D03*
X0222274Y0485393D03*
X0218337Y0481456D03*
X0214400Y0481456D03*
X0206526Y0481456D03*
X0202589Y0481456D03*
X0202589Y0485393D03*
X0202589Y0489330D03*
X0202589Y0493267D03*
X0202589Y0504941D03*
X0198652Y0509015D03*
X0190778Y0505078D03*
X0190778Y0501141D03*
X0206526Y0477519D03*
X0214400Y0473582D03*
X0218337Y0473582D03*
X0222274Y0473582D03*
X0222274Y0477519D03*
X0222274Y0469645D03*
X0218337Y0469645D03*
X0214400Y0469645D03*
X0210463Y0465708D03*
X0210463Y0461771D03*
X0206526Y0461771D03*
X0202589Y0461771D03*
X0198652Y0457834D03*
X0194715Y0457834D03*
X0206526Y0457834D03*
X0210463Y0457834D03*
X0214400Y0457834D03*
X0214400Y0461771D03*
X0218337Y0465708D03*
X0222274Y0465708D03*
X0222274Y0461771D03*
X0218337Y0457834D03*
X0207510Y0415467D03*
X0211447Y0405865D03*
X0209479Y0403503D03*
X0213416Y0403503D03*
X0217353Y0403503D03*
X0223259Y0405865D03*
X0225227Y0403503D03*
X0227196Y0405865D03*
X0231133Y0405865D03*
X0235070Y0405865D03*
X0237038Y0403503D03*
X0244912Y0403503D03*
X0246881Y0405865D03*
X0252786Y0403503D03*
X0258692Y0405865D03*
X0260660Y0403503D03*
X0264597Y0403503D03*
X0271093Y0433227D03*
X0271093Y0437164D03*
X0273455Y0443070D03*
X0271093Y0445038D03*
X0273455Y0447007D03*
X0271093Y0448975D03*
X0273455Y0450944D03*
X0271093Y0456849D03*
X0273455Y0462755D03*
X0271093Y0464723D03*
X0273455Y0466692D03*
X0273455Y0470629D03*
X0271093Y0472597D03*
X0271093Y0476534D03*
X0273455Y0478503D03*
X0273455Y0482440D03*
X0273455Y0486377D03*
X0273455Y0494251D03*
X0271093Y0496219D03*
X0273455Y0498188D03*
X0271093Y0504093D03*
X0271093Y0508030D03*
X0273455Y0509999D03*
X0271093Y0511967D03*
X0273455Y0513936D03*
X0273455Y0517873D03*
X0273455Y0525747D03*
X0271093Y0527715D03*
X0271093Y0531652D03*
X0273455Y0533621D03*
X0273455Y0541495D03*
X0271093Y0543464D03*
X0271093Y0547401D03*
X0273455Y0549369D03*
X0271093Y0551338D03*
X0273455Y0553306D03*
X0271093Y0555275D03*
X0273455Y0557243D03*
X0259641Y0519841D03*
X0259641Y0515904D03*
X0259641Y0506062D03*
X0259641Y0488345D03*
X0259641Y0474566D03*
X0259641Y0460786D03*
X0259641Y0454881D03*
X0199636Y0405865D03*
X0197668Y0403503D03*
X0201605Y0403503D03*
X0191141Y0406067D03*
X0189141Y0403467D03*
X0187241Y0405667D03*
X0185341Y0403567D03*
X0181141Y0405567D03*
X0179241Y0403467D03*
X0176741Y0403567D03*
X0176014Y0405865D03*
X0170109Y0403503D03*
X0168140Y0405865D03*
X0166172Y0403503D03*
X0162235Y0403503D03*
X0160266Y0405865D03*
X0158298Y0403503D03*
X0152392Y0405865D03*
X0150424Y0403503D03*
X0148455Y0405865D03*
X0146487Y0403503D03*
X0140581Y0405865D03*
X0138613Y0403503D03*
X0136644Y0405865D03*
X0130739Y0403503D03*
X0126802Y0403503D03*
X0124833Y0405865D03*
X0116959Y0405865D03*
X0114991Y0403503D03*
X0115422Y0418465D03*
X0105641Y0400867D03*
X0093041Y0408267D03*
X0093041Y0389267D03*
X0093041Y0378467D03*
X0104641Y0381667D03*
X0120141Y0375167D03*
X0146641Y0350167D03*
X0146841Y0344967D03*
X0146841Y0340067D03*
X0146741Y0325567D03*
X0146841Y0320967D03*
X0146841Y0315967D03*
X0146741Y0311067D03*
X0137141Y0295467D03*
X0120641Y0295467D03*
X0087641Y0295467D03*
X0055641Y0295467D03*
X0040641Y0266467D03*
X0037141Y0266467D03*
X0044641Y0236967D03*
X0029741Y0322867D03*
X0050041Y0334667D03*
X0022641Y0350167D03*
X0040941Y0372967D03*
X0048841Y0375667D03*
X0049241Y0382067D03*
X0048841Y0391267D03*
X0039741Y0385767D03*
X0039841Y0410267D03*
X0058241Y0420467D03*
X0061441Y0409467D03*
X0061441Y0404467D03*
X0073541Y0454267D03*
X0074441Y0460067D03*
X0074841Y0476467D03*
X0112725Y0473582D03*
X0116762Y0475550D03*
X0116762Y0471613D03*
X0119125Y0469645D03*
X0116762Y0467676D03*
X0116762Y0463739D03*
X0119125Y0461771D03*
X0119125Y0457834D03*
X0116762Y0455865D03*
X0113925Y0453897D03*
X0116762Y0451928D03*
X0116762Y0447991D03*
X0119125Y0446023D03*
X0116762Y0444054D03*
X0119125Y0442086D03*
X0116762Y0479487D03*
X0119125Y0481456D03*
X0116762Y0483424D03*
X0116762Y0487361D03*
X0119125Y0489330D03*
X0116762Y0491298D03*
X0116762Y0495235D03*
X0116762Y0499172D03*
X0119125Y0501141D03*
X0116762Y0503109D03*
X0119125Y0505078D03*
X0116762Y0507046D03*
X0119125Y0509015D03*
X0116762Y0510983D03*
X0122325Y0512952D03*
X0119125Y0516889D03*
X0116762Y0518857D03*
X0119125Y0520826D03*
X0119125Y0524763D03*
X0116762Y0526731D03*
X0116762Y0530668D03*
X0119125Y0532637D03*
X0116762Y0534605D03*
X0119125Y0536574D03*
X0116762Y0538542D03*
X0119125Y0540511D03*
X0116762Y0542479D03*
X0119125Y0544448D03*
X0110362Y0522794D03*
X0121925Y0493267D03*
X0113125Y0485393D03*
X0072041Y0525267D03*
X0066041Y0530467D03*
X0068441Y0535667D03*
X0065641Y0519267D03*
X0041441Y0536167D03*
X0040541Y0546567D03*
X0022841Y0520067D03*
X0039941Y0507067D03*
X0039841Y0491767D03*
X0092841Y0550867D03*
X0207510Y0565467D03*
X0215384Y0565467D03*
X0227196Y0566467D03*
X0215041Y0603067D03*
X0206541Y0691367D03*
X0180141Y0691367D03*
X0104841Y0725467D03*
X0099441Y0701767D03*
X0076741Y0701667D03*
X0071641Y0701667D03*
X0066541Y0701667D03*
X0156329Y0415467D03*
X0164203Y0415467D03*
X0156441Y0391867D03*
X0172077Y0379803D03*
X0195699Y0415467D03*
X0173541Y0342067D03*
X0173541Y0334367D03*
X0173541Y0331667D03*
X0173841Y0324067D03*
X0173841Y0321367D03*
X0173641Y0315867D03*
X0168941Y0305167D03*
X0204141Y0315467D03*
X0205641Y0318367D03*
X0205441Y0326367D03*
X0206541Y0334067D03*
X0220641Y0337767D03*
X0219841Y0327567D03*
X0220241Y0318267D03*
X0274341Y0261267D03*
X0276741Y0231067D03*
X0390841Y0233667D03*
X0390941Y0228867D03*
X0391241Y0223667D03*
X0390741Y0238867D03*
X0390741Y0251267D03*
X0390741Y0256267D03*
X0390741Y0261467D03*
X0390741Y0266167D03*
X0390741Y0279367D03*
X0390741Y0283767D03*
X0390741Y0288867D03*
X0390741Y0294067D03*
X0390741Y0307067D03*
X0390741Y0311167D03*
X0390741Y0316267D03*
X0390741Y0321567D03*
X0390741Y0334567D03*
X0390741Y0339167D03*
X0390741Y0344867D03*
X0390741Y0348867D03*
X0444441Y0345967D03*
X0444441Y0343567D03*
X0444541Y0353767D03*
X0444441Y0356367D03*
X0444641Y0363967D03*
X0452441Y0341467D03*
X0455341Y0341467D03*
X0458141Y0341567D03*
X0461441Y0341667D03*
X0465141Y0341567D03*
X0459341Y0336667D03*
X0444441Y0303067D03*
X0444441Y0295367D03*
X0444341Y0292767D03*
X0444441Y0285067D03*
X0444441Y0282567D03*
X0453241Y0280067D03*
X0456341Y0280167D03*
X0459241Y0280167D03*
X0462041Y0280067D03*
X0465141Y0280067D03*
X0459941Y0275667D03*
X0444241Y0236767D03*
X0444641Y0229167D03*
X0444641Y0226567D03*
X0444441Y0218867D03*
X0444441Y0216267D03*
X0453641Y0213667D03*
X0456941Y0213867D03*
X0460141Y0213767D03*
X0463241Y0213767D03*
X0466041Y0213867D03*
X0459941Y0209567D03*
X0443941Y0175967D03*
X0443841Y0168367D03*
X0443941Y0165767D03*
X0443941Y0158167D03*
X0443841Y0155567D03*
X0459141Y0149067D03*
X0484241Y0152067D03*
X0390941Y0146367D03*
X0390641Y0151167D03*
X0390741Y0155967D03*
X0390741Y0168567D03*
X0390741Y0173867D03*
X0390741Y0178967D03*
X0390741Y0183767D03*
X0390741Y0196167D03*
X0390741Y0201367D03*
X0390741Y0206267D03*
X0391141Y0141367D03*
X0571141Y0469967D03*
X0573541Y0537067D03*
X0573741Y0551667D03*
X0588641Y0566967D03*
X0595641Y0583967D03*
X0604141Y0583967D03*
X0603641Y0598967D03*
X0590641Y0598967D03*
X0585641Y0613967D03*
X0603641Y0613967D03*
X0549441Y0551667D03*
X0542841Y0559067D03*
X0538841Y0556767D03*
X0544541Y0542467D03*
X0538741Y0537067D03*
X0510741Y0551567D03*
X0510041Y0554267D03*
X0501541Y0543767D03*
X0490141Y0549467D03*
X0484541Y0543567D03*
X0486841Y0541267D03*
X0466141Y0541467D03*
X0466141Y0536467D03*
X0466141Y0530967D03*
X0466141Y0525467D03*
X0465941Y0518067D03*
X0466141Y0512867D03*
X0465941Y0507967D03*
X0465941Y0503067D03*
X0466341Y0494267D03*
X0466141Y0489267D03*
X0466141Y0484267D03*
X0466141Y0479267D03*
X0466141Y0549467D03*
X0466141Y0554967D03*
X0466141Y0559467D03*
X0466141Y0564467D03*
X0466141Y0572467D03*
X0465041Y0577667D03*
X0466141Y0595467D03*
X0466641Y0605967D03*
X0491041Y0602967D03*
X0491041Y0600467D03*
X0491041Y0593067D03*
X0491241Y0590267D03*
X0491041Y0610267D03*
X0513041Y0603067D03*
X0521741Y0607867D03*
X0532441Y0604267D03*
X0528641Y0593167D03*
X0530341Y0642067D03*
X0525941Y0642067D03*
X0520241Y0642267D03*
X0501641Y0641467D03*
X0496441Y0641567D03*
X0491541Y0641467D03*
X0486641Y0641567D03*
X0545241Y0642667D03*
X0545341Y0647567D03*
X0545341Y0652867D03*
X0402941Y0648567D03*
X0382841Y0648467D03*
X0366841Y0648067D03*
X0353441Y0648267D03*
X0343041Y0648367D03*
X0333441Y0648167D03*
X0328041Y0650267D03*
X0090441Y0337867D03*
D27*
X0117196Y0571563D03*
X0286241Y0546467D03*
D28*
X0230148Y0510983D02*
X0212432Y0510983D01*
X0210463Y0509015D01*
X0208495Y0507046D02*
X0230148Y0507046D01*
X0230148Y0505078D02*
X0214400Y0505078D01*
X0216369Y0503109D02*
X0214400Y0501141D01*
X0216369Y0503109D02*
X0230148Y0503109D01*
X0230148Y0501141D02*
X0218337Y0501141D01*
X0220306Y0499172D02*
X0230148Y0499172D01*
X0230148Y0497204D02*
X0222274Y0497204D01*
X0220306Y0499172D02*
X0218337Y0497204D01*
X0220306Y0495235D02*
X0230148Y0495235D01*
X0230148Y0491298D02*
X0216369Y0491298D01*
X0214400Y0489330D01*
X0218337Y0493267D02*
X0220306Y0495235D01*
X0222274Y0489330D02*
X0230148Y0489330D01*
X0230148Y0487361D02*
X0220306Y0487361D01*
X0218337Y0485393D01*
X0216369Y0483424D02*
X0214400Y0481456D01*
X0216369Y0483424D02*
X0230148Y0483424D01*
X0230148Y0481456D02*
X0218337Y0481456D01*
X0222274Y0485393D02*
X0230148Y0485393D01*
X0230148Y0479487D02*
X0212432Y0479487D01*
X0210463Y0477519D01*
X0206526Y0469645D02*
X0208495Y0467676D01*
X0208495Y0449960D01*
X0206526Y0449960D02*
X0206526Y0457834D01*
X0202589Y0461771D02*
X0202589Y0449960D01*
X0200621Y0449960D02*
X0200621Y0463739D01*
X0198652Y0465708D01*
X0196684Y0463739D02*
X0196684Y0449960D01*
X0198652Y0449960D02*
X0198652Y0457834D01*
X0194715Y0457834D02*
X0194715Y0449960D01*
X0192747Y0449960D02*
X0192747Y0463739D01*
X0190778Y0465708D01*
X0188810Y0467676D02*
X0186841Y0469645D01*
X0184873Y0467676D02*
X0182904Y0469645D01*
X0184873Y0467676D02*
X0184873Y0449960D01*
X0182904Y0449960D02*
X0182904Y0457834D01*
X0178967Y0457834D02*
X0178967Y0449960D01*
X0176999Y0449960D02*
X0176999Y0459802D01*
X0175030Y0461771D01*
X0171093Y0461771D02*
X0171093Y0449960D01*
X0169125Y0449960D02*
X0169125Y0467676D01*
X0167156Y0469645D01*
X0171093Y0469645D02*
X0173062Y0467676D01*
X0173062Y0449960D01*
X0175030Y0449960D02*
X0175030Y0457834D01*
X0180936Y0463739D02*
X0180936Y0449960D01*
X0188810Y0449960D02*
X0188810Y0467676D01*
X0194715Y0465708D02*
X0196684Y0463739D01*
X0202589Y0465708D02*
X0204558Y0463739D01*
X0204558Y0449960D01*
X0212432Y0449960D02*
X0212432Y0463739D01*
X0210463Y0465708D01*
X0214400Y0461771D02*
X0216369Y0459802D01*
X0216369Y0449960D01*
X0218337Y0449960D02*
X0218337Y0457834D01*
X0214400Y0457834D02*
X0214400Y0449960D01*
X0218337Y0465708D02*
X0220306Y0467676D01*
X0230148Y0467676D01*
X0230148Y0465708D02*
X0222274Y0465708D01*
X0222274Y0469645D02*
X0230148Y0469645D01*
X0230148Y0473582D02*
X0222274Y0473582D01*
X0220306Y0475550D02*
X0230148Y0475550D01*
X0220306Y0475550D02*
X0218337Y0473582D01*
X0206526Y0505078D02*
X0208495Y0507046D01*
X0214400Y0509015D02*
X0230148Y0509015D01*
X0210463Y0524763D02*
X0210463Y0536574D01*
X0206526Y0536574D02*
X0206526Y0528700D01*
X0202589Y0528700D02*
X0202589Y0536574D01*
X0200621Y0536574D02*
X0200621Y0522794D01*
X0202589Y0520826D01*
X0204558Y0522794D02*
X0204558Y0536574D01*
X0196684Y0536574D02*
X0196684Y0522794D01*
X0198652Y0520826D01*
X0194715Y0524763D02*
X0192747Y0526731D01*
X0192747Y0536574D01*
X0194715Y0536574D02*
X0194715Y0528700D01*
X0190778Y0524763D02*
X0188810Y0526731D01*
X0188810Y0536574D01*
X0186841Y0536574D02*
X0186841Y0528700D01*
X0178967Y0528700D02*
X0178967Y0536574D01*
X0176999Y0536574D02*
X0176999Y0526731D01*
X0178967Y0524763D01*
X0175030Y0528700D02*
X0175030Y0536574D01*
X0173062Y0536574D02*
X0173062Y0514920D01*
X0175030Y0512952D01*
X0171093Y0520826D02*
X0169125Y0522794D01*
X0169125Y0536574D01*
X0171093Y0536574D02*
X0171093Y0524763D01*
X0159282Y0524763D02*
X0159282Y0536574D01*
X0159282Y0512952D02*
X0143534Y0512952D01*
X0143534Y0510983D02*
X0161251Y0510983D01*
X0163219Y0512952D01*
X0163219Y0509015D02*
X0143534Y0509015D01*
X0143534Y0505078D02*
X0155345Y0505078D01*
X0163219Y0501141D02*
X0143534Y0501141D01*
X0143534Y0503109D02*
X0165188Y0503109D01*
X0167156Y0505078D01*
X0167156Y0501141D02*
X0165188Y0499172D01*
X0143534Y0499172D01*
X0143534Y0497204D02*
X0163219Y0497204D01*
X0165188Y0495235D02*
X0143534Y0495235D01*
X0143534Y0493267D02*
X0159282Y0493267D01*
X0161251Y0491298D02*
X0143534Y0491298D01*
X0143534Y0489330D02*
X0155345Y0489330D01*
X0159282Y0485393D02*
X0143534Y0485393D01*
X0143534Y0487361D02*
X0161251Y0487361D01*
X0163219Y0489330D01*
X0161251Y0491298D02*
X0163219Y0493267D01*
X0165188Y0495235D02*
X0167156Y0497204D01*
X0163219Y0485393D02*
X0161251Y0483424D01*
X0143534Y0483424D01*
X0143534Y0481456D02*
X0155345Y0481456D01*
X0157314Y0479487D02*
X0143534Y0479487D01*
X0143534Y0475550D02*
X0165188Y0475550D01*
X0167156Y0477519D01*
X0163219Y0473582D02*
X0143534Y0473582D01*
X0143534Y0469645D02*
X0159282Y0469645D01*
X0163219Y0465708D02*
X0165188Y0463739D01*
X0165188Y0449960D01*
X0159282Y0449960D02*
X0159282Y0461771D01*
X0155345Y0457834D02*
X0155345Y0449960D01*
X0178967Y0465708D02*
X0180936Y0463739D01*
X0159282Y0481456D02*
X0157314Y0479487D01*
X0186841Y0512952D02*
X0184873Y0514920D01*
X0184873Y0536574D01*
X0204558Y0522794D02*
X0206526Y0520826D01*
D29*
X0206526Y0536574D02*
X0242944Y0572991D01*
X0242944Y0574763D01*
X0240975Y0572991D02*
X0240975Y0577125D01*
X0240975Y0572991D02*
X0204558Y0536574D01*
X0202589Y0536574D02*
X0231133Y0565117D01*
X0231133Y0574763D01*
X0229164Y0577125D02*
X0229164Y0565117D01*
X0200621Y0536574D01*
X0196684Y0536574D02*
X0219322Y0559212D01*
X0219322Y0574763D01*
X0209479Y0577125D02*
X0209479Y0551338D01*
X0194715Y0536574D01*
X0192747Y0536574D02*
X0207510Y0551338D01*
X0207510Y0565467D01*
X0197668Y0577125D02*
X0197668Y0545432D01*
X0188810Y0536574D01*
X0187825Y0537558D02*
X0187825Y0574763D01*
X0185857Y0577125D02*
X0185857Y0537558D01*
X0184873Y0536574D01*
X0186841Y0536574D02*
X0187825Y0537558D01*
X0178967Y0536574D02*
X0166172Y0549369D01*
X0166172Y0577125D01*
X0164203Y0574763D02*
X0164203Y0549369D01*
X0176999Y0536574D01*
X0175030Y0536574D02*
X0156329Y0555275D01*
X0156329Y0574763D01*
X0154361Y0577125D02*
X0154361Y0555275D01*
X0173062Y0536574D01*
X0171093Y0536574D02*
X0146487Y0561180D01*
X0146487Y0577125D01*
X0144518Y0574763D02*
X0144518Y0561180D01*
X0169125Y0536574D01*
X0159282Y0536574D02*
X0126802Y0569054D01*
X0126802Y0577125D01*
X0121881Y0534605D02*
X0116762Y0534605D01*
X0119125Y0532637D02*
X0121881Y0532637D01*
X0143534Y0510983D01*
X0143534Y0509015D02*
X0121881Y0530668D01*
X0116762Y0530668D01*
X0121881Y0534605D02*
X0143534Y0512952D01*
X0143534Y0505078D02*
X0125818Y0522794D01*
X0110362Y0522794D01*
X0119125Y0520826D02*
X0125818Y0520826D01*
X0143534Y0503109D01*
X0143534Y0501141D02*
X0129755Y0514920D01*
X0116762Y0514920D01*
X0122325Y0512952D02*
X0129755Y0512952D01*
X0143534Y0499172D01*
X0143534Y0497204D02*
X0135660Y0505078D01*
X0119125Y0505078D01*
X0116762Y0503109D02*
X0135660Y0503109D01*
X0143534Y0495235D01*
X0143534Y0493267D02*
X0139597Y0497204D01*
X0119125Y0497204D01*
X0116762Y0495235D02*
X0139597Y0495235D01*
X0143534Y0491298D01*
X0143534Y0489330D02*
X0139597Y0485393D01*
X0113125Y0485393D01*
X0116762Y0483424D02*
X0139597Y0483424D01*
X0143534Y0487361D01*
X0143534Y0485393D02*
X0135660Y0477519D01*
X0119125Y0477519D01*
X0116762Y0475550D02*
X0135660Y0475550D01*
X0143534Y0483424D01*
X0143534Y0481456D02*
X0127786Y0465708D01*
X0119125Y0465708D01*
X0116762Y0463739D02*
X0127786Y0463739D01*
X0143534Y0479487D01*
X0143534Y0475550D02*
X0125818Y0457834D01*
X0119125Y0457834D01*
X0116762Y0451928D02*
X0121881Y0451928D01*
X0143534Y0473582D01*
X0143534Y0469645D02*
X0123849Y0449960D01*
X0119125Y0449960D01*
X0138613Y0417479D02*
X0138613Y0403503D01*
X0140581Y0405865D02*
X0140581Y0417479D01*
X0173062Y0449960D01*
X0175030Y0449960D02*
X0150424Y0425353D01*
X0150424Y0403503D01*
X0152392Y0405865D02*
X0152392Y0425353D01*
X0176999Y0449960D01*
X0178967Y0449960D02*
X0162235Y0433227D01*
X0162235Y0403503D01*
X0172077Y0405865D02*
X0172077Y0439133D01*
X0182904Y0449960D01*
X0180936Y0449960D02*
X0164203Y0433227D01*
X0164203Y0415467D01*
X0174046Y0403503D02*
X0174046Y0439133D01*
X0184873Y0449960D01*
X0188810Y0449960D02*
X0183888Y0445038D01*
X0192747Y0449960D02*
X0193731Y0448975D01*
X0193731Y0403503D01*
X0203573Y0405865D02*
X0203573Y0441101D01*
X0194715Y0449960D01*
X0196684Y0449960D02*
X0205542Y0441101D01*
X0205542Y0403503D01*
X0215384Y0405865D02*
X0215384Y0433227D01*
X0198652Y0449960D01*
X0200621Y0449960D02*
X0217353Y0433227D01*
X0217353Y0403503D01*
X0225227Y0403503D02*
X0225227Y0427322D01*
X0202589Y0449960D01*
X0204558Y0449960D02*
X0227196Y0427322D01*
X0227196Y0405865D01*
X0233101Y0403503D02*
X0233101Y0423385D01*
X0206526Y0449960D01*
X0208495Y0449960D02*
X0235070Y0423385D01*
X0235070Y0405865D01*
X0240975Y0403503D02*
X0240975Y0421416D01*
X0212432Y0449960D01*
X0214400Y0449960D02*
X0246881Y0417479D01*
X0246881Y0405865D01*
X0248849Y0403503D02*
X0248849Y0417479D01*
X0216369Y0449960D01*
X0218337Y0449960D02*
X0254755Y0413542D01*
X0254755Y0405865D01*
X0254755Y0441101D02*
X0271093Y0441101D01*
X0273455Y0443070D02*
X0254755Y0443070D01*
X0230148Y0467676D01*
X0230148Y0465708D02*
X0254755Y0441101D01*
X0250818Y0448975D02*
X0271093Y0448975D01*
X0273455Y0458818D02*
X0244912Y0458818D01*
X0230148Y0473582D01*
X0230148Y0475550D02*
X0244912Y0460786D01*
X0259641Y0460786D01*
X0271093Y0468660D02*
X0240975Y0468660D01*
X0230148Y0479487D01*
X0230148Y0481456D02*
X0233101Y0478503D01*
X0273455Y0478503D01*
X0271093Y0480471D02*
X0233101Y0480471D01*
X0230148Y0483424D01*
X0230148Y0485393D02*
X0233101Y0488345D01*
X0259641Y0488345D01*
X0273455Y0490314D02*
X0233101Y0490314D01*
X0230148Y0487361D01*
X0230148Y0489330D02*
X0239007Y0498188D01*
X0273455Y0498188D01*
X0271093Y0500156D02*
X0239007Y0500156D01*
X0230148Y0491298D01*
X0230148Y0495235D02*
X0244912Y0509999D01*
X0273455Y0509999D01*
X0273455Y0521810D02*
X0252786Y0521810D01*
X0230148Y0499172D01*
X0230148Y0497204D02*
X0252786Y0519841D01*
X0259641Y0519841D01*
X0258692Y0529684D02*
X0273455Y0529684D01*
X0271093Y0531652D02*
X0258692Y0531652D01*
X0230148Y0503109D01*
X0230148Y0501141D02*
X0258692Y0529684D01*
X0260660Y0535589D02*
X0265293Y0535589D01*
X0260660Y0535589D02*
X0230148Y0505078D01*
X0230148Y0507046D02*
X0260660Y0537558D01*
X0273455Y0537558D01*
X0273455Y0545432D02*
X0266566Y0545432D01*
X0230148Y0509015D01*
X0230148Y0510983D02*
X0266566Y0547401D01*
X0271093Y0547401D01*
X0246881Y0572991D02*
X0246881Y0574763D01*
X0246881Y0572991D02*
X0210463Y0536574D01*
X0230148Y0469645D02*
X0250818Y0448975D01*
X0171093Y0449960D02*
X0138613Y0417479D01*
X0130739Y0411574D02*
X0130739Y0403503D01*
X0124833Y0405865D02*
X0124833Y0409605D01*
X0165188Y0449960D01*
X0169125Y0449960D02*
X0130739Y0411574D01*
X0118928Y0409605D02*
X0118928Y0403503D01*
X0114991Y0403503D02*
X0114991Y0409605D01*
X0155345Y0449960D01*
X0159282Y0449960D02*
X0118928Y0409605D01*
D30*
X0130641Y0439605D02*
X0130582Y0439664D01*
X0131184Y0440267D01*
X0138441Y0440267D01*
X0133919Y0447145D02*
X0137441Y0450667D01*
X0133919Y0447145D02*
X0130582Y0447145D01*
X0130294Y0446856D01*
X0116762Y0455865D02*
X0111159Y0461469D01*
X0105300Y0461469D01*
X0147082Y0518264D02*
X0153970Y0518264D01*
X0155345Y0516889D01*
X0147082Y0525745D02*
X0145041Y0525745D01*
X0143841Y0526945D01*
X0144363Y0525745D02*
X0133641Y0536467D01*
X0132500Y0543389D01*
X0132503Y0550867D02*
X0132500Y0550869D01*
X0127639Y0550869D01*
X0125641Y0552867D01*
X0144363Y0525745D02*
X0145041Y0525745D01*
X0210463Y0512952D02*
X0216376Y0518864D01*
X0219182Y0518864D01*
X0219582Y0518464D01*
X0228882Y0518464D01*
X0228882Y0525945D02*
X0228482Y0526345D01*
X0219182Y0526345D01*
X0219963Y0526345D01*
X0220241Y0526067D01*
X0217641Y0526067D01*
X0217519Y0525945D01*
X0217119Y0526345D01*
X0217119Y0525545D01*
X0219182Y0526345D02*
X0219919Y0526345D01*
X0233241Y0541267D01*
X0237534Y0545559D01*
X0240193Y0545559D01*
X0241641Y0546867D01*
X0240193Y0545559D02*
X0239434Y0544874D01*
X0239434Y0537745D01*
X0239434Y0530264D02*
X0244839Y0530264D01*
X0248841Y0534267D01*
X0248841Y0551067D01*
X0279051Y0619237D02*
X0278341Y0619947D01*
X0278341Y0630167D01*
X0263741Y0644767D01*
X0244141Y0644767D01*
X0106341Y0725467D02*
X0104841Y0725467D01*
X0233241Y0452807D02*
X0239101Y0452807D01*
X0245641Y0446267D01*
X0244641Y0437467D01*
X0240041Y0442067D02*
X0236781Y0445327D01*
X0233241Y0445327D01*
X0101941Y0274867D02*
X0030641Y0274867D01*
X0030041Y0274267D01*
X0041141Y0227967D02*
X0041141Y0214567D01*
X0034441Y0207867D01*
X0020241Y0207867D01*
X0015341Y0202967D01*
X0015341Y0202767D01*
X0014841Y0202267D01*
X0014841Y0173467D01*
X0034241Y0154067D01*
X0062191Y0154067D01*
X0064791Y0151467D01*
X0065641Y0150617D01*
X0065641Y0128467D01*
X0071141Y0122967D01*
X0127141Y0122967D01*
X0132391Y0128217D01*
X0132391Y0151467D01*
X0064791Y0151467D02*
X0064641Y0151617D01*
X0437241Y0666167D02*
X0441041Y0669967D01*
X0555741Y0669967D01*
X0560141Y0637967D02*
X0559641Y0637467D01*
X0559641Y0614467D01*
D31*
X0454941Y0735567D03*
X0425041Y0636067D03*
X0306041Y0564667D03*
X0248841Y0551067D03*
X0241641Y0546867D03*
X0164341Y0602667D03*
X0161641Y0623267D03*
X0155841Y0621667D03*
X0167841Y0635867D03*
X0174941Y0670067D03*
X0187641Y0669967D03*
X0201941Y0670267D03*
X0164241Y0692667D03*
X0152241Y0692667D03*
X0112941Y0683167D03*
X0114441Y0668367D03*
X0114141Y0657967D03*
X0100141Y0650467D03*
X0100141Y0672967D03*
X0100641Y0625967D03*
X0115141Y0604967D03*
X0085641Y0592967D03*
X0085141Y0570967D03*
X0106441Y0554867D03*
X0125641Y0552867D03*
X0133641Y0536467D03*
X0101641Y0524667D03*
X0055141Y0504467D03*
X0054641Y0555967D03*
X0025141Y0579267D03*
X0049641Y0613467D03*
X0047941Y0622667D03*
X0037641Y0620967D03*
X0049141Y0648467D03*
X0047141Y0657967D03*
X0041641Y0666967D03*
X0050641Y0669467D03*
X0049141Y0676967D03*
X0028841Y0660967D03*
X0021641Y0659467D03*
X0053041Y0725467D03*
X0056741Y0725467D03*
X0137441Y0450667D03*
X0138441Y0440267D03*
X0240041Y0442067D03*
X0244641Y0437467D03*
X0101941Y0274867D03*
X0030041Y0274267D03*
X0010041Y0274867D03*
X0010141Y0279867D03*
X0200541Y0262967D03*
X0199241Y0233267D03*
X0237841Y0232867D03*
X0240441Y0263167D03*
X0360041Y0110467D03*
X0366141Y0110467D03*
X0616541Y0233067D03*
D32*
X0595141Y0403967D02*
X0578641Y0403967D01*
X0571141Y0411467D01*
X0571141Y0469967D01*
X0605041Y0485667D02*
X0606041Y0486667D01*
X0605041Y0485667D02*
X0605041Y0425267D01*
X0609541Y0431567D02*
X0609541Y0490467D01*
X0609541Y0431567D02*
X0615841Y0425267D01*
X0599641Y0414067D02*
X0598641Y0413067D01*
X0598641Y0407467D01*
X0595141Y0403967D01*
X0521741Y0607867D02*
X0521741Y0638867D01*
X0520891Y0639717D01*
X0526741Y0701867D02*
X0517441Y0711167D01*
X0517441Y0734967D01*
X0516041Y0736367D01*
X0484941Y0736367D01*
X0482641Y0734067D01*
X0485041Y0740767D02*
X0472241Y0727967D01*
X0485041Y0740767D02*
X0519541Y0740767D01*
X0522141Y0738167D01*
X0522141Y0711467D01*
X0528241Y0705367D01*
X0584941Y0705367D01*
X0588241Y0702067D01*
X0588241Y0665967D01*
X0583241Y0665967D02*
X0583241Y0700567D01*
X0581941Y0701867D01*
X0526741Y0701867D01*
X0589741Y0711467D02*
X0593241Y0707967D01*
X0593241Y0665967D01*
X0598341Y0665967D02*
X0598341Y0710267D01*
X0595341Y0713267D01*
X0595341Y0727867D01*
X0595441Y0727967D01*
X0590041Y0717967D02*
X0589741Y0717667D01*
X0589741Y0711467D01*
X0202589Y0489330D02*
X0196855Y0495064D01*
X0196282Y0495064D01*
X0196282Y0502545D02*
X0196282Y0504426D01*
X0194641Y0506067D01*
X0194641Y0508267D01*
X0193841Y0509067D01*
X0190830Y0509067D01*
X0190778Y0509015D01*
X0184782Y0495345D02*
X0184782Y0495326D01*
X0184873Y0495235D01*
X0180936Y0495235D01*
X0178967Y0493267D01*
X0184782Y0487864D02*
X0184782Y0486008D01*
X0182441Y0483667D01*
X0182441Y0481919D01*
X0182904Y0481456D01*
X0156441Y0391867D02*
X0156441Y0389167D01*
X0090141Y0322867D01*
X0029741Y0322867D01*
X0040941Y0372967D02*
X0117941Y0372967D01*
X0120141Y0375167D01*
D33*
X0110841Y0391667D02*
X0070841Y0391667D01*
X0034162Y0428345D01*
X0034162Y0442875D01*
X0064441Y0415267D02*
X0085641Y0394067D01*
X0110041Y0394067D01*
X0116959Y0400985D01*
X0116959Y0405865D01*
X0118928Y0403503D02*
X0118928Y0399753D01*
X0110841Y0391667D01*
X0115422Y0418465D02*
X0073643Y0418465D01*
X0067641Y0424467D01*
X0067641Y0528867D01*
X0066041Y0530467D01*
X0068441Y0535667D02*
X0074041Y0530067D01*
X0074041Y0523267D01*
X0072041Y0521267D01*
X0072041Y0458467D01*
X0076441Y0454067D01*
X0080441Y0454067D01*
X0092082Y0465708D01*
X0119125Y0465708D01*
X0113833Y0453989D02*
X0113925Y0453897D01*
X0113833Y0453989D02*
X0105300Y0453989D01*
X0116762Y0447991D02*
X0090766Y0447991D01*
X0081641Y0438867D01*
X0074841Y0438867D01*
X0069641Y0444067D01*
X0069641Y0522867D01*
X0072041Y0525267D01*
X0065641Y0519267D02*
X0064441Y0518067D01*
X0064441Y0415267D01*
X0075548Y0449960D02*
X0073541Y0454267D01*
X0075548Y0449960D02*
X0119125Y0449960D01*
X0119125Y0477519D02*
X0091893Y0477519D01*
X0074441Y0460067D01*
X0074841Y0476467D02*
X0076841Y0476467D01*
X0097578Y0497204D01*
X0119125Y0497204D01*
X0119125Y0505078D02*
X0118936Y0505267D01*
X0116762Y0514920D02*
X0103095Y0514920D01*
X0093041Y0524974D01*
X0093041Y0547067D01*
X0090941Y0549167D01*
X0045341Y0549167D01*
X0042341Y0546167D01*
X0042341Y0537567D01*
X0041441Y0536667D01*
X0041441Y0536167D01*
X0040541Y0546567D02*
X0044841Y0550867D01*
X0092841Y0550867D01*
X0116762Y0530668D02*
X0116761Y0530667D01*
X0119095Y0532667D02*
X0119125Y0532637D01*
X0136741Y0565167D02*
X0165241Y0536667D01*
X0165241Y0526867D01*
X0167041Y0524867D01*
X0167141Y0528867D02*
X0166941Y0529067D01*
X0166941Y0536867D01*
X0138641Y0565167D01*
X0138641Y0577267D01*
X0136741Y0574767D02*
X0136741Y0565167D01*
X0144518Y0574763D02*
X0144518Y0588789D01*
X0143241Y0590067D01*
X0130441Y0594267D02*
X0128141Y0596567D01*
X0128141Y0603967D01*
X0119641Y0612467D01*
X0119641Y0687967D01*
X0113141Y0694467D01*
X0080341Y0694467D01*
X0071641Y0701667D01*
X0066541Y0701667D02*
X0077241Y0692467D01*
X0112641Y0692467D01*
X0118141Y0686967D01*
X0118141Y0611467D01*
X0126141Y0603467D01*
X0126141Y0599967D01*
X0123341Y0597167D01*
X0123141Y0596967D01*
X0130141Y0597256D02*
X0130141Y0603967D01*
X0121141Y0612967D01*
X0121141Y0688467D01*
X0113641Y0695967D01*
X0083941Y0695967D01*
X0076741Y0701667D01*
X0099441Y0701767D02*
X0103841Y0697967D01*
X0113941Y0697967D01*
X0122941Y0688967D01*
X0122941Y0633867D01*
X0125641Y0631167D01*
X0160041Y0631167D01*
X0168541Y0622667D01*
X0168541Y0618067D01*
X0171341Y0615267D01*
X0175141Y0615267D01*
X0183341Y0607067D01*
X0183341Y0600767D01*
X0183441Y0600667D01*
X0183241Y0600867D01*
X0178241Y0602267D02*
X0178141Y0602367D01*
X0178141Y0608567D01*
X0173341Y0613367D01*
X0170641Y0613367D01*
X0166741Y0617267D01*
X0166741Y0622167D01*
X0159541Y0629367D01*
X0124341Y0629367D01*
X0126841Y0633267D02*
X0160341Y0633267D01*
X0170041Y0623567D01*
X0170041Y0618867D01*
X0172141Y0616767D01*
X0175841Y0616767D01*
X0187841Y0604767D01*
X0187841Y0597767D01*
X0186541Y0596467D01*
X0175141Y0596467D01*
X0175041Y0596367D01*
X0178241Y0602267D02*
X0177941Y0602567D01*
X0181641Y0594767D02*
X0181541Y0594667D01*
X0187941Y0594667D01*
X0190341Y0597067D01*
X0190341Y0604467D01*
X0176541Y0618267D01*
X0173141Y0618267D01*
X0171541Y0619867D01*
X0171541Y0624367D01*
X0160141Y0635767D01*
X0128041Y0635767D01*
X0175941Y0574667D02*
X0175941Y0541667D01*
X0180941Y0536667D01*
X0180941Y0522867D01*
X0182741Y0521067D01*
X0186841Y0524667D02*
X0188841Y0522667D01*
X0188841Y0503067D01*
X0184841Y0499267D01*
X0180841Y0499267D01*
X0175041Y0505067D01*
X0190778Y0509015D02*
X0192747Y0510983D01*
X0192747Y0518857D01*
X0194715Y0520826D01*
X0186841Y0524667D02*
X0186841Y0524763D01*
X0195699Y0574763D02*
X0195699Y0582125D01*
X0210841Y0597267D01*
X0216441Y0597267D01*
X0231641Y0612467D01*
X0309241Y0612467D01*
X0333441Y0636667D01*
X0333441Y0648167D01*
X0328041Y0650267D02*
X0364641Y0650267D01*
X0366841Y0648067D01*
X0376741Y0639667D02*
X0382841Y0645767D01*
X0382841Y0648467D01*
X0376741Y0639667D02*
X0344841Y0639667D01*
X0312841Y0607667D01*
X0262041Y0607667D01*
X0259641Y0605267D01*
X0232841Y0605267D01*
X0205542Y0577967D01*
X0205542Y0577125D01*
X0209479Y0577125D02*
X0209479Y0579504D01*
X0233641Y0603667D01*
X0260441Y0603667D01*
X0262841Y0606067D01*
X0313641Y0606067D01*
X0345541Y0637967D01*
X0395141Y0637967D01*
X0402941Y0645767D01*
X0402941Y0648567D01*
X0411241Y0631267D02*
X0446841Y0631267D01*
X0465141Y0612967D01*
X0465141Y0606967D01*
X0466641Y0605967D01*
X0463641Y0612467D02*
X0463641Y0597967D01*
X0466141Y0595467D01*
X0453141Y0598967D02*
X0453141Y0559467D01*
X0462641Y0549967D01*
X0462641Y0544967D01*
X0466141Y0541467D01*
X0466141Y0536467D02*
X0460641Y0541967D01*
X0460641Y0549467D01*
X0451141Y0558967D01*
X0451141Y0598467D01*
X0450341Y0599267D01*
X0395641Y0599267D01*
X0385241Y0609667D01*
X0344041Y0609667D01*
X0324241Y0589867D01*
X0324241Y0574867D01*
X0279059Y0529684D01*
X0273455Y0529684D01*
X0273455Y0525747D02*
X0278522Y0525747D01*
X0336841Y0584067D01*
X0364441Y0584067D01*
X0367641Y0587267D01*
X0385641Y0587267D01*
X0389641Y0587267D02*
X0393607Y0591232D01*
X0445876Y0591232D01*
X0449141Y0587967D01*
X0449141Y0557967D01*
X0458641Y0548467D01*
X0458641Y0538467D01*
X0466141Y0530967D01*
X0466141Y0525467D02*
X0457141Y0534967D01*
X0457141Y0547567D01*
X0447141Y0557467D01*
X0447141Y0587467D01*
X0445376Y0589232D01*
X0397607Y0589232D01*
X0390041Y0581717D01*
X0385641Y0581717D02*
X0337641Y0581667D01*
X0277784Y0521810D01*
X0273455Y0521810D01*
X0273455Y0517873D02*
X0277047Y0517873D01*
X0335241Y0576067D01*
X0385641Y0576167D01*
X0389641Y0576167D02*
X0394807Y0581232D01*
X0444376Y0581232D01*
X0445641Y0579967D01*
X0445641Y0557067D01*
X0455841Y0546967D01*
X0455841Y0528167D01*
X0465941Y0518067D01*
X0466141Y0512867D02*
X0454441Y0524667D01*
X0454441Y0546467D01*
X0444241Y0556567D01*
X0444241Y0579067D01*
X0443676Y0579632D01*
X0398407Y0579632D01*
X0389241Y0570617D01*
X0385641Y0570617D02*
X0333241Y0570467D01*
X0276710Y0513936D01*
X0273455Y0513936D01*
X0271093Y0508030D02*
X0282005Y0508030D01*
X0333641Y0559667D01*
X0385641Y0559517D01*
X0389641Y0559517D02*
X0392841Y0562867D01*
X0394841Y0562867D01*
X0403207Y0571232D01*
X0441076Y0571232D01*
X0442941Y0569367D01*
X0442941Y0555867D01*
X0453141Y0545667D01*
X0453141Y0520767D01*
X0465941Y0507967D01*
X0465941Y0503067D02*
X0451741Y0517267D01*
X0451741Y0544967D01*
X0441341Y0555367D01*
X0441341Y0568567D01*
X0440676Y0569232D01*
X0415131Y0569232D01*
X0411731Y0565832D01*
X0402207Y0565832D01*
X0390441Y0553967D01*
X0385241Y0553967D02*
X0330441Y0554067D01*
X0280468Y0504093D01*
X0271093Y0504093D01*
X0271093Y0500156D02*
X0278931Y0500156D01*
X0327241Y0548467D01*
X0384841Y0548417D01*
X0389641Y0548417D02*
X0417891Y0548417D01*
X0420641Y0551167D01*
X0443441Y0551167D01*
X0450341Y0544267D01*
X0450341Y0510267D01*
X0466341Y0494267D01*
X0466141Y0489267D02*
X0448941Y0506467D01*
X0448941Y0543567D01*
X0443041Y0549467D01*
X0422141Y0549467D01*
X0415541Y0542867D01*
X0389641Y0542867D01*
X0384841Y0542867D02*
X0324041Y0542867D01*
X0277394Y0496219D01*
X0271093Y0496219D01*
X0273455Y0490314D02*
X0288288Y0490314D01*
X0335241Y0537267D01*
X0385241Y0537317D01*
X0389241Y0537317D02*
X0418091Y0537317D01*
X0421741Y0540967D01*
X0445841Y0540967D01*
X0447441Y0539367D01*
X0447441Y0502967D01*
X0466141Y0484267D01*
X0466141Y0479267D02*
X0445441Y0499967D01*
X0445441Y0538367D01*
X0444341Y0539467D01*
X0422841Y0539467D01*
X0415141Y0531767D01*
X0389641Y0531767D01*
X0385241Y0531767D02*
X0332041Y0531667D01*
X0286751Y0486377D01*
X0273455Y0486377D01*
X0271093Y0480471D02*
X0366741Y0480471D01*
X0366741Y0350667D01*
X0368641Y0348867D01*
X0390741Y0348867D01*
X0390741Y0344867D02*
X0365041Y0344867D01*
X0363441Y0346467D01*
X0363441Y0476534D01*
X0271093Y0476534D01*
X0271093Y0472597D02*
X0360741Y0472597D01*
X0360741Y0342867D01*
X0364441Y0339167D01*
X0390741Y0339167D01*
X0390741Y0334567D02*
X0360641Y0334567D01*
X0357541Y0337667D01*
X0357541Y0468660D01*
X0271093Y0468660D01*
X0271093Y0464723D02*
X0355341Y0464723D01*
X0355341Y0323667D01*
X0357441Y0321567D01*
X0390741Y0321567D01*
X0390741Y0316267D02*
X0356741Y0316267D01*
X0352941Y0320067D01*
X0352941Y0458818D01*
X0273455Y0458818D01*
X0273455Y0450944D02*
X0348241Y0450944D01*
X0348241Y0310467D01*
X0351641Y0307067D01*
X0390741Y0307067D01*
X0390741Y0311167D02*
X0352741Y0311167D01*
X0350841Y0313067D01*
X0350841Y0454881D01*
X0259641Y0454881D01*
X0271093Y0445038D02*
X0284670Y0445038D01*
X0299341Y0430367D01*
X0299341Y0406167D01*
X0345941Y0359567D01*
X0345941Y0297667D01*
X0349541Y0294067D01*
X0390741Y0294067D01*
X0390741Y0288867D02*
X0347541Y0288867D01*
X0343941Y0292467D01*
X0343941Y0358867D01*
X0302741Y0400067D01*
X0302641Y0400067D01*
X0297241Y0405467D01*
X0297241Y0429336D01*
X0285476Y0441101D01*
X0271093Y0441101D01*
X0271093Y0437164D02*
X0285939Y0437164D01*
X0295341Y0427762D01*
X0295341Y0403767D01*
X0295641Y0403767D01*
X0341741Y0357667D01*
X0341741Y0286867D01*
X0344841Y0283767D01*
X0390741Y0283767D01*
X0390741Y0279367D02*
X0342841Y0279367D01*
X0339041Y0283167D01*
X0339041Y0356867D01*
X0293541Y0402367D01*
X0293541Y0424888D01*
X0285202Y0433227D01*
X0271093Y0433227D01*
X0258692Y0405865D02*
X0258692Y0395916D01*
X0261041Y0393567D01*
X0296141Y0393567D01*
X0333841Y0355867D01*
X0333841Y0264467D01*
X0336841Y0261467D01*
X0390741Y0261467D01*
X0390741Y0266167D02*
X0339241Y0266167D01*
X0336241Y0269167D01*
X0336241Y0355867D01*
X0297141Y0394967D01*
X0265841Y0394967D01*
X0264597Y0396211D01*
X0264597Y0403503D01*
X0254755Y0405865D02*
X0254755Y0393753D01*
X0256841Y0391667D01*
X0295341Y0391667D01*
X0331641Y0355367D01*
X0331641Y0260267D01*
X0335641Y0256267D01*
X0390741Y0256267D01*
X0390741Y0251267D02*
X0331441Y0251267D01*
X0329441Y0253267D01*
X0329441Y0355067D01*
X0295041Y0389467D01*
X0250241Y0389467D01*
X0248849Y0390859D01*
X0248849Y0403503D01*
X0244912Y0403503D02*
X0244912Y0389996D01*
X0247241Y0387667D01*
X0293741Y0387667D01*
X0327241Y0354167D01*
X0327241Y0243067D01*
X0331441Y0238867D01*
X0390741Y0238867D01*
X0390841Y0233667D02*
X0329841Y0233667D01*
X0325241Y0238267D01*
X0325241Y0353667D01*
X0292841Y0386067D01*
X0244441Y0386067D01*
X0240975Y0389533D01*
X0240975Y0403503D01*
X0237038Y0403503D02*
X0237038Y0386670D01*
X0239241Y0384467D01*
X0291641Y0384467D01*
X0322541Y0353567D01*
X0322541Y0231467D01*
X0325141Y0228867D01*
X0390941Y0228867D01*
X0391241Y0223667D02*
X0322441Y0223667D01*
X0319641Y0226467D01*
X0319641Y0353767D01*
X0290541Y0382867D01*
X0236041Y0382867D01*
X0233101Y0385807D01*
X0233101Y0403503D01*
X0215384Y0405865D02*
X0215384Y0394723D01*
X0230441Y0379667D01*
X0291041Y0379667D01*
X0316941Y0353767D01*
X0316941Y0209567D01*
X0320241Y0206267D01*
X0390741Y0206267D01*
X0390741Y0201367D02*
X0318141Y0201367D01*
X0314141Y0205367D01*
X0314141Y0353967D01*
X0290041Y0378067D01*
X0229641Y0378067D01*
X0213416Y0394292D01*
X0213416Y0403503D01*
X0211447Y0405865D02*
X0211447Y0393060D01*
X0228041Y0376467D01*
X0288741Y0376467D01*
X0311341Y0353867D01*
X0311341Y0199867D01*
X0315041Y0196167D01*
X0390741Y0196167D01*
X0390741Y0183767D02*
X0313141Y0183767D01*
X0308641Y0188267D01*
X0308641Y0353767D01*
X0287541Y0374867D01*
X0227241Y0374867D01*
X0207510Y0394597D01*
X0207510Y0415467D01*
X0203573Y0405865D02*
X0203573Y0393734D01*
X0225641Y0371667D01*
X0285241Y0371667D01*
X0303741Y0353167D01*
X0303741Y0179167D01*
X0309041Y0173867D01*
X0390741Y0173867D01*
X0390741Y0178967D02*
X0311641Y0178967D01*
X0306441Y0184167D01*
X0306441Y0353267D01*
X0286441Y0373267D01*
X0226441Y0373267D01*
X0205542Y0394166D01*
X0205542Y0403503D01*
X0201605Y0403503D02*
X0201605Y0386103D01*
X0217641Y0370067D01*
X0284241Y0370067D01*
X0300941Y0353367D01*
X0300941Y0172367D01*
X0304741Y0168567D01*
X0390741Y0168567D01*
X0390741Y0155967D02*
X0302741Y0155967D01*
X0298741Y0159967D01*
X0298741Y0353067D01*
X0283341Y0368467D01*
X0216041Y0368467D01*
X0199636Y0384871D01*
X0199636Y0405865D01*
X0197668Y0403503D02*
X0197668Y0382440D01*
X0213241Y0366867D01*
X0282541Y0366867D01*
X0295841Y0353567D01*
X0295841Y0154667D01*
X0299341Y0151167D01*
X0390641Y0151167D01*
X0390941Y0146367D02*
X0297441Y0146367D01*
X0293141Y0150667D01*
X0293141Y0353467D01*
X0281341Y0365267D01*
X0210841Y0365267D01*
X0195699Y0380408D01*
X0195699Y0415467D01*
X0193731Y0403503D02*
X0193731Y0375977D01*
X0206041Y0363667D01*
X0280641Y0363667D01*
X0290841Y0353467D01*
X0290841Y0147167D01*
X0296641Y0141367D01*
X0391141Y0141367D01*
X0165241Y0354967D02*
X0187241Y0376967D01*
X0187241Y0405667D01*
X0185341Y0403567D02*
X0185341Y0377467D01*
X0171241Y0363367D01*
X0150641Y0363367D01*
X0141241Y0353967D01*
X0141241Y0352767D01*
X0146641Y0350167D01*
X0144541Y0346567D02*
X0146841Y0344967D01*
X0144541Y0346567D02*
X0136941Y0351767D01*
X0150241Y0365067D01*
X0170441Y0365067D01*
X0183488Y0378114D01*
X0183488Y0405765D01*
X0183888Y0406165D01*
X0183888Y0445038D01*
X0181141Y0405567D02*
X0181141Y0378267D01*
X0169541Y0366667D01*
X0149341Y0366667D01*
X0134741Y0352067D01*
X0134741Y0350967D01*
X0146841Y0340067D01*
X0146741Y0325567D02*
X0131141Y0340667D01*
X0131141Y0350367D01*
X0148941Y0368167D01*
X0168641Y0368167D01*
X0179241Y0378767D01*
X0179241Y0403467D01*
X0176741Y0403567D02*
X0176741Y0378967D01*
X0167641Y0369867D01*
X0148541Y0369867D01*
X0128641Y0349967D01*
X0128641Y0338567D01*
X0146841Y0320967D01*
X0146841Y0315967D02*
X0126941Y0335667D01*
X0126941Y0350167D01*
X0148141Y0371367D01*
X0166641Y0371367D01*
X0174046Y0378771D01*
X0174046Y0403503D01*
X0172077Y0405865D02*
X0172077Y0379803D01*
X0165241Y0354967D02*
X0165241Y0313467D01*
X0162841Y0311067D01*
X0146741Y0311067D01*
X0265293Y0535589D02*
X0281764Y0535589D01*
X0322241Y0576067D01*
X0322241Y0590267D01*
X0343241Y0611267D01*
X0386041Y0611267D01*
X0394441Y0602867D01*
X0417641Y0602867D01*
X0419641Y0600867D01*
X0451241Y0600867D01*
X0453141Y0598967D01*
X0454641Y0607467D02*
X0454641Y0560967D01*
X0466141Y0549467D01*
X0466141Y0554967D02*
X0456141Y0564967D01*
X0456141Y0607967D01*
X0453241Y0610867D01*
X0419241Y0610867D01*
X0415641Y0614467D01*
X0341641Y0614467D01*
X0320441Y0593267D01*
X0269241Y0593267D01*
X0266841Y0590867D01*
X0256041Y0590867D01*
X0246881Y0581706D01*
X0246881Y0574763D01*
X0240975Y0577125D02*
X0240975Y0590201D01*
X0243241Y0592467D01*
X0266041Y0592467D01*
X0268441Y0594867D01*
X0282841Y0594867D01*
X0282841Y0595067D01*
X0319841Y0595067D01*
X0340841Y0616067D01*
X0411241Y0616067D01*
X0415141Y0619967D01*
X0446641Y0619967D01*
X0457641Y0608967D01*
X0457641Y0567967D01*
X0466141Y0559467D01*
X0466141Y0564467D02*
X0459141Y0571467D01*
X0459141Y0609967D01*
X0447441Y0621667D01*
X0413641Y0621667D01*
X0410341Y0617767D01*
X0339841Y0617767D01*
X0318841Y0596667D01*
X0282441Y0596667D01*
X0282441Y0596467D01*
X0283241Y0596467D01*
X0282441Y0596467D02*
X0267641Y0596467D01*
X0265241Y0594067D01*
X0238841Y0594067D01*
X0235070Y0590295D01*
X0235070Y0574763D01*
X0231133Y0574763D02*
X0231133Y0588758D01*
X0238041Y0595667D01*
X0264441Y0595667D01*
X0266841Y0598067D01*
X0317641Y0598067D01*
X0339241Y0619667D01*
X0409241Y0619667D01*
X0408441Y0621367D02*
X0338541Y0621367D01*
X0316841Y0599667D01*
X0266041Y0599667D01*
X0263641Y0597267D01*
X0236841Y0597267D01*
X0227196Y0587621D01*
X0227196Y0566467D01*
X0223259Y0574763D02*
X0223259Y0586084D01*
X0236041Y0598867D01*
X0262841Y0598867D01*
X0265241Y0601267D01*
X0316041Y0601267D01*
X0337641Y0622867D01*
X0407641Y0622867D01*
X0412841Y0628067D01*
X0446041Y0628067D01*
X0462141Y0611967D01*
X0462141Y0580567D01*
X0465041Y0577667D01*
X0460641Y0577967D02*
X0466141Y0572467D01*
X0460641Y0577967D02*
X0460641Y0611467D01*
X0445641Y0626467D01*
X0413641Y0626467D01*
X0408441Y0621367D01*
X0406841Y0624467D02*
X0336841Y0624467D01*
X0315241Y0602867D01*
X0264441Y0602867D01*
X0262041Y0600467D01*
X0235241Y0600467D01*
X0219322Y0584547D01*
X0219322Y0574763D01*
X0213416Y0577125D02*
X0213416Y0581041D01*
X0234441Y0602067D01*
X0261241Y0602067D01*
X0263641Y0604467D01*
X0314441Y0604467D01*
X0336041Y0626067D01*
X0406041Y0626067D01*
X0411241Y0631267D01*
X0412041Y0629667D02*
X0406841Y0624467D01*
X0412041Y0629667D02*
X0446441Y0629667D01*
X0463641Y0612467D01*
X0454641Y0607467D02*
X0452841Y0609267D01*
X0391241Y0609267D01*
X0387641Y0612867D01*
X0342441Y0612867D01*
X0317641Y0588067D01*
X0317641Y0585667D01*
X0277841Y0545867D01*
X0273890Y0545867D01*
X0273455Y0545432D01*
X0273455Y0537558D02*
X0281533Y0537558D01*
X0305841Y0561867D01*
X0306041Y0564667D01*
X0284041Y0594867D02*
X0282841Y0594867D01*
X0261241Y0609267D02*
X0312041Y0609267D01*
X0344241Y0641467D01*
X0349441Y0641467D01*
X0353441Y0645467D01*
X0353441Y0648267D01*
X0343041Y0648367D02*
X0343041Y0642667D01*
X0311241Y0610867D01*
X0260441Y0610867D01*
X0258041Y0608467D01*
X0231241Y0608467D01*
X0206041Y0583267D01*
X0203641Y0583267D01*
X0197668Y0577293D01*
X0197668Y0577125D01*
X0201605Y0577125D02*
X0201605Y0578830D01*
X0204441Y0581667D01*
X0206841Y0581667D01*
X0232041Y0606867D01*
X0258841Y0606867D01*
X0261241Y0609267D01*
X0215041Y0603067D02*
X0215041Y0601067D01*
X0213041Y0599067D01*
X0197841Y0599067D01*
X0192441Y0594067D01*
X0192441Y0581667D01*
X0189794Y0579019D01*
X0189794Y0577125D01*
D34*
X0244141Y0644767D03*
X0259291Y0619237D03*
X0279051Y0619237D03*
X0319741Y0686267D03*
X0353341Y0630167D03*
X0374641Y0648367D03*
X0395641Y0663867D03*
X0418741Y0686067D03*
X0437241Y0696667D03*
X0437841Y0700367D03*
X0437241Y0658867D03*
X0489541Y0624967D03*
X0559641Y0614467D03*
X0559841Y0597067D03*
X0567641Y0590467D03*
X0577141Y0591967D03*
X0560141Y0637967D03*
X0555741Y0669967D03*
X0583241Y0665967D03*
X0588241Y0665967D03*
X0593241Y0665967D03*
X0598341Y0665967D03*
X0629141Y0619967D03*
X0630641Y0552467D03*
X0630141Y0537467D03*
X0512041Y0528267D03*
X0510641Y0537967D03*
X0447741Y0375667D03*
X0447841Y0315067D03*
X0448641Y0245767D03*
X0449041Y0186867D03*
X0481341Y0177667D03*
X0223341Y0286967D03*
X0205241Y0286967D03*
X0191741Y0341567D03*
X0174841Y0356367D03*
X0132741Y0216667D03*
X0112841Y0215167D03*
X0041141Y0227967D03*
X0015541Y0210967D03*
X0023141Y0280467D03*
X0050141Y0578267D03*
X0509941Y0710467D03*
D35*
X0482641Y0734067D03*
X0489941Y0613167D03*
X0490541Y0585167D03*
X0522141Y0585167D03*
X0524041Y0549167D03*
X0548941Y0533967D03*
X0542741Y0502867D03*
X0563441Y0497967D03*
X0572441Y0496567D03*
X0606041Y0486667D03*
X0609541Y0490467D03*
X0627341Y0495267D03*
X0627141Y0500467D03*
X0628241Y0518467D03*
X0647241Y0518667D03*
X0289941Y0644967D03*
D36*
X0279641Y0697167D02*
X0282441Y0699967D01*
X0279641Y0697167D02*
X0212341Y0697167D01*
X0206541Y0691367D01*
X0188741Y0699967D02*
X0267641Y0699967D01*
X0275641Y0707967D01*
X0299641Y0707967D01*
X0303641Y0703967D01*
X0303641Y0701167D01*
X0302441Y0699967D01*
X0291027Y0725852D02*
X0291027Y0726110D01*
X0291027Y0725852D02*
X0267141Y0701967D01*
X0180849Y0701967D01*
X0174649Y0708167D01*
X0188741Y0699967D02*
X0180141Y0691367D01*
X0291741Y0576367D02*
X0291741Y0567655D01*
X0273455Y0549369D01*
X0444641Y0363967D02*
X0555241Y0363967D01*
X0566441Y0352767D01*
X0571441Y0347767D02*
X0560841Y0347767D01*
X0552241Y0356367D01*
X0444441Y0356367D01*
X0444541Y0353767D02*
X0549541Y0353767D01*
X0560641Y0342667D01*
X0566341Y0342667D01*
X0566441Y0342767D01*
X0562041Y0337667D02*
X0571341Y0337667D01*
X0576441Y0342767D01*
X0571441Y0347767D02*
X0576441Y0352767D01*
X0576441Y0332767D02*
X0571541Y0327667D01*
X0558641Y0327667D01*
X0544741Y0341567D01*
X0465141Y0341567D01*
X0462541Y0339467D02*
X0542241Y0339467D01*
X0558941Y0322767D01*
X0566441Y0322767D01*
X0571241Y0317567D02*
X0559941Y0317567D01*
X0540841Y0336667D01*
X0462541Y0336667D01*
X0458141Y0341567D01*
X0455341Y0341467D02*
X0455441Y0337567D01*
X0458541Y0333767D01*
X0538141Y0333767D01*
X0559241Y0312667D01*
X0566341Y0312667D01*
X0566441Y0312767D01*
X0570241Y0307667D02*
X0560341Y0307667D01*
X0536541Y0330967D01*
X0456941Y0330967D01*
X0452341Y0335567D01*
X0452441Y0341467D01*
X0461441Y0341667D02*
X0461441Y0340567D01*
X0462541Y0339467D01*
X0444441Y0343567D02*
X0547241Y0343567D01*
X0557641Y0333167D01*
X0566041Y0333167D01*
X0566441Y0332767D01*
X0562041Y0337667D02*
X0552941Y0345967D01*
X0444441Y0345967D01*
X0444441Y0303067D02*
X0556141Y0303067D01*
X0566441Y0292767D01*
X0562841Y0287767D02*
X0570941Y0287767D01*
X0576441Y0292767D01*
X0576441Y0282767D02*
X0571241Y0277767D01*
X0560041Y0277767D01*
X0551941Y0285067D01*
X0444441Y0285067D01*
X0444441Y0282567D02*
X0547841Y0282567D01*
X0557541Y0272867D01*
X0566341Y0272867D01*
X0566441Y0272767D01*
X0570441Y0267767D02*
X0558241Y0267767D01*
X0544541Y0280067D01*
X0465141Y0280067D01*
X0463841Y0277467D02*
X0543641Y0277467D01*
X0558241Y0262867D01*
X0566341Y0262867D01*
X0566441Y0262767D01*
X0570441Y0267767D02*
X0576441Y0272767D01*
X0576441Y0262767D02*
X0570941Y0257667D01*
X0559641Y0257667D01*
X0541641Y0275267D01*
X0463441Y0275267D01*
X0459341Y0278767D01*
X0459241Y0280167D01*
X0462041Y0280067D02*
X0462041Y0279267D01*
X0463841Y0277467D01*
X0458741Y0273267D02*
X0538841Y0273267D01*
X0558741Y0253367D01*
X0565841Y0253367D01*
X0566441Y0252767D01*
X0570541Y0247667D02*
X0560341Y0247667D01*
X0537241Y0270567D01*
X0457641Y0270567D01*
X0453241Y0274967D01*
X0453241Y0280067D01*
X0456341Y0280167D02*
X0456341Y0275667D01*
X0458741Y0273267D01*
X0444341Y0292767D02*
X0549241Y0292767D01*
X0559341Y0282667D01*
X0566341Y0282667D01*
X0566441Y0282767D01*
X0562841Y0287767D02*
X0554941Y0295367D01*
X0444441Y0295367D01*
X0444241Y0236767D02*
X0555041Y0236767D01*
X0560841Y0242567D01*
X0566241Y0242567D01*
X0566441Y0242767D01*
X0563741Y0237767D02*
X0571441Y0237767D01*
X0576441Y0242767D01*
X0570541Y0247667D02*
X0576441Y0252767D01*
X0563741Y0237767D02*
X0555141Y0229167D01*
X0444641Y0229167D01*
X0444641Y0226567D02*
X0557041Y0226567D01*
X0562241Y0231767D01*
X0565441Y0231767D01*
X0566441Y0232767D01*
X0561841Y0227367D02*
X0571041Y0227367D01*
X0576441Y0232767D01*
X0576441Y0222767D02*
X0571241Y0217567D01*
X0563941Y0217567D01*
X0558141Y0211767D01*
X0466641Y0211767D01*
X0466041Y0212367D01*
X0466041Y0213867D01*
X0463241Y0213767D02*
X0463341Y0212067D01*
X0465741Y0209667D01*
X0559541Y0209667D01*
X0566441Y0202767D01*
X0562441Y0197667D02*
X0571341Y0197667D01*
X0576441Y0202767D01*
X0576441Y0192767D02*
X0571141Y0187467D01*
X0561441Y0187467D01*
X0545341Y0203567D01*
X0457341Y0203567D01*
X0453641Y0207267D01*
X0453641Y0213667D01*
X0456941Y0213867D02*
X0456941Y0208167D01*
X0459541Y0205567D01*
X0548241Y0205567D01*
X0561241Y0192567D01*
X0566241Y0192567D01*
X0566441Y0192767D01*
X0562441Y0197667D02*
X0552741Y0207367D01*
X0465441Y0207367D01*
X0460141Y0212667D01*
X0460141Y0213767D01*
X0444441Y0216267D02*
X0556341Y0216267D01*
X0562541Y0222467D01*
X0566141Y0222467D01*
X0566441Y0222767D01*
X0561841Y0227367D02*
X0553341Y0218867D01*
X0444441Y0218867D01*
X0443941Y0175967D02*
X0443941Y0175567D01*
X0445941Y0173567D01*
X0547241Y0173567D01*
X0556841Y0183167D01*
X0566041Y0183167D01*
X0566441Y0182767D01*
X0570641Y0178067D02*
X0556441Y0178067D01*
X0547841Y0168367D01*
X0443841Y0168367D01*
X0443941Y0165767D02*
X0551841Y0165767D01*
X0558541Y0172467D01*
X0566141Y0172467D01*
X0566441Y0172767D01*
X0570641Y0178067D02*
X0576441Y0182767D01*
X0576441Y0172767D02*
X0571441Y0167767D01*
X0560141Y0167767D01*
X0550541Y0158167D01*
X0443941Y0158167D01*
X0443841Y0155567D02*
X0555241Y0155567D01*
X0562141Y0162467D01*
X0566141Y0162467D01*
X0566441Y0162767D01*
X0576441Y0162767D02*
X0565741Y0152067D01*
X0484241Y0152067D01*
X0570241Y0307667D02*
X0576441Y0312767D01*
X0571241Y0317567D02*
X0576441Y0322767D01*
X0573541Y0537067D02*
X0538741Y0537067D01*
X0544541Y0542467D02*
X0542841Y0544167D01*
X0542841Y0559067D01*
X0538841Y0556767D02*
X0525841Y0543767D01*
X0501541Y0543767D01*
X0504441Y0545767D02*
X0510241Y0551567D01*
X0510741Y0551567D01*
X0510041Y0554267D02*
X0503141Y0547467D01*
X0488341Y0547467D01*
X0484541Y0543567D01*
X0486841Y0541267D02*
X0491341Y0545767D01*
X0504441Y0545767D01*
X0491241Y0590267D02*
X0525741Y0590267D01*
X0528641Y0593167D01*
X0531241Y0603067D02*
X0532441Y0604267D01*
X0531241Y0603067D02*
X0513041Y0603067D01*
X0491041Y0602967D02*
X0486241Y0602967D01*
X0484141Y0605067D01*
X0484141Y0629267D01*
X0496441Y0641567D01*
X0491541Y0641467D02*
X0482241Y0632167D01*
X0482241Y0603867D01*
X0485641Y0600467D01*
X0491041Y0600467D01*
X0491041Y0593067D02*
X0490841Y0592867D01*
X0487441Y0592867D01*
X0480241Y0600067D01*
X0480241Y0632767D01*
X0486641Y0639167D01*
X0486641Y0641567D01*
X0501641Y0641467D02*
X0486341Y0626167D01*
X0486341Y0612367D01*
X0488441Y0610267D01*
X0491041Y0610267D01*
X0520891Y0639717D02*
X0523141Y0637467D01*
X0540641Y0637467D01*
X0545241Y0642067D01*
X0545241Y0642667D01*
X0543141Y0643567D02*
X0543141Y0646567D01*
X0544141Y0647567D01*
X0545341Y0647567D01*
X0543141Y0643567D02*
X0539241Y0639667D01*
X0527741Y0639667D01*
X0525941Y0641467D01*
X0525941Y0642067D01*
X0530341Y0642067D02*
X0539141Y0642067D01*
X0541041Y0643967D01*
X0541041Y0649367D01*
X0545341Y0652867D01*
X0520241Y0642267D02*
X0520341Y0641467D01*
X0520341Y0640267D01*
X0520891Y0639717D01*
X0585641Y0613967D02*
X0603641Y0613967D01*
X0603641Y0598967D02*
X0590641Y0598967D01*
X0595641Y0583967D02*
X0604141Y0583967D01*
X0573741Y0551667D02*
X0549441Y0551667D01*
X0229941Y0344567D02*
X0229641Y0344267D01*
X0213741Y0344267D01*
X0203841Y0334367D01*
X0173541Y0334367D01*
X0173541Y0331667D02*
X0222841Y0331667D01*
X0225641Y0334467D01*
X0229841Y0334467D01*
X0229941Y0334567D01*
X0229941Y0324567D02*
X0229441Y0324067D01*
X0173841Y0324067D01*
X0173841Y0321367D02*
X0223141Y0321367D01*
X0229941Y0314567D01*
X0220241Y0318267D02*
X0220141Y0318367D01*
X0205641Y0318367D01*
X0205441Y0326367D02*
X0218641Y0326367D01*
X0219841Y0327567D01*
X0217941Y0334067D02*
X0220641Y0337767D01*
X0217941Y0334067D02*
X0206541Y0334067D01*
X0173541Y0342067D02*
X0168941Y0338567D01*
X0168941Y0305167D01*
X0127741Y0242467D02*
X0132741Y0237467D01*
X0132741Y0216667D01*
X0142191Y0180417D02*
X0070141Y0252467D01*
X0070141Y0242467D02*
X0137641Y0174967D01*
X0137641Y0143967D01*
X0139641Y0141967D01*
X0149141Y0141967D01*
X0150091Y0142917D01*
X0150091Y0151467D01*
X0142191Y0151467D02*
X0142191Y0180417D01*
X0082491Y0195117D02*
X0082491Y0151467D01*
X0074591Y0151467D02*
X0074141Y0151917D01*
X0074141Y0199467D01*
X0067141Y0206467D01*
X0048141Y0206467D01*
X0044641Y0209967D01*
X0044641Y0236967D01*
X0044641Y0242467D02*
X0037141Y0249967D01*
X0037141Y0266467D01*
X0040641Y0266467D02*
X0040641Y0257967D01*
X0045141Y0253467D01*
X0059141Y0253467D01*
X0060141Y0252467D01*
X0060141Y0242467D02*
X0062641Y0242467D01*
X0065141Y0239967D01*
X0065141Y0212467D01*
X0082491Y0195117D01*
X0060141Y0242467D02*
X0044641Y0242467D01*
X0034162Y0462875D02*
X0038941Y0467653D01*
X0038941Y0488467D01*
X0039841Y0489367D01*
X0039841Y0491767D01*
D37*
X0047941Y0622667D02*
X0047941Y0637167D01*
X0045241Y0639867D01*
X0038941Y0639867D01*
X0032341Y0646467D01*
X0032341Y0657267D01*
X0028841Y0660967D01*
X0050641Y0669467D02*
X0050641Y0649967D01*
X0049141Y0648467D01*
X0155841Y0621667D02*
X0157441Y0623267D01*
X0161641Y0623267D01*
X0205241Y0286967D02*
X0223341Y0286967D01*
D38*
X0229941Y0277067D02*
X0229941Y0304567D01*
X0229941Y0277067D02*
X0225841Y0272967D01*
X0163341Y0272967D01*
X0158241Y0267867D01*
X0158241Y0208567D01*
X0174941Y0191867D01*
X0164941Y0191867D02*
X0145141Y0211667D01*
X0145141Y0264467D01*
X0142141Y0267467D01*
X0129641Y0267467D01*
X0127741Y0265567D01*
X0127741Y0262467D01*
X0120541Y0215167D02*
X0112841Y0215167D01*
X0120541Y0215167D02*
X0153841Y0181867D01*
X0164941Y0181867D01*
X0174941Y0181867D01*
X0184941Y0181867D01*
X0184941Y0191867D02*
X0237941Y0191867D01*
X0292741Y0137067D01*
X0562741Y0137067D01*
X0583241Y0157567D01*
X0583241Y0211767D01*
X0582241Y0212767D01*
X0576441Y0212767D01*
X0566441Y0212767D01*
X0572441Y0496567D02*
X0571041Y0497967D01*
X0563441Y0497967D01*
X0512041Y0528267D02*
X0510641Y0529667D01*
X0510641Y0537967D01*
X0494641Y0549467D02*
X0559641Y0614467D01*
X0567641Y0590467D02*
X0588641Y0569467D01*
X0588641Y0566967D01*
X0494641Y0549467D02*
X0490141Y0549467D01*
X0437841Y0699567D02*
X0437841Y0700367D01*
X0437841Y0699567D02*
X0437241Y0699567D01*
X0453441Y0715767D02*
X0458741Y0710467D01*
X0509941Y0710467D01*
X0111041Y0585667D02*
X0100741Y0585667D01*
X0097241Y0582167D01*
X0097241Y0566367D01*
X0093941Y0563067D01*
X0023241Y0563067D01*
X0018541Y0558367D01*
X0018541Y0223267D01*
X0021841Y0219967D01*
X0015141Y0211367D02*
X0015541Y0210967D01*
X0015141Y0211367D02*
X0015141Y0562167D01*
X0019541Y0566567D01*
X0047841Y0566567D01*
X0050141Y0568867D01*
X0050141Y0578267D01*
X0023141Y0280467D02*
X0022841Y0280167D01*
X0022841Y0241467D01*
D39*
X0068141Y0110467D02*
X0360041Y0110467D01*
X0366141Y0110467D01*
X0068141Y0110467D02*
X0010141Y0168467D01*
X0010141Y0279867D01*
X0053041Y0725467D02*
X0056741Y0725467D01*
X0104841Y0725467D01*
X0106341Y0725467D02*
X0114941Y0725467D01*
X0154541Y0765067D01*
X0425441Y0765067D01*
X0454941Y0735567D01*
X0455441Y0735067D01*
X0455441Y0734567D01*
X0455441Y0717767D01*
X0453441Y0715767D01*
X0437241Y0699567D01*
X0437241Y0696667D01*
X0437241Y0666167D01*
X0437241Y0658867D01*
X0437241Y0648267D01*
X0425041Y0636067D01*
D40*
X0455441Y0734567D02*
X0454941Y0735067D01*
X0454941Y0735567D01*
X0010141Y0279867D02*
X0010041Y0279767D01*
X0010041Y0274867D01*
D41*
X0409241Y0619667D03*
D42*
X0389641Y0587267D02*
X0385641Y0587267D01*
X0385641Y0581717D02*
X0390041Y0581717D01*
X0389641Y0576167D02*
X0385641Y0576167D01*
X0385641Y0570617D02*
X0389241Y0570617D01*
X0389641Y0559517D02*
X0385641Y0559517D01*
X0385241Y0553967D02*
X0390441Y0553967D01*
X0389641Y0548417D02*
X0384841Y0548417D01*
X0384841Y0542867D02*
X0389641Y0542867D01*
X0389241Y0537317D02*
X0385241Y0537317D01*
X0385241Y0531767D02*
X0389641Y0531767D01*
M02*
