%
M48
M72
T01C0.0100
T02C0.0150
T03C0.0197
T04C0.0200
T05C0.0236
T06C0.0256
T07C0.0354
T08C0.0360
T09C0.0400
T10C0.0512
T11C0.0630
T12C0.0709
T13C0.0866
T14C0.0910
T15C0.1300
T16C0.1417
%
T01
X4464Y23697
X4064Y26647
X3714Y26647
X5564Y29547
X8764Y29547
X12064Y29547
X13714Y29547
X14674Y31107
X14684Y31597
X14684Y32097
X14674Y32557
X14684Y34007
X14684Y34497
X14664Y35017
X17354Y34207
X17354Y33437
X17354Y33167
X17384Y32407
X17384Y32137
X17364Y31587
X16894Y30517
X20414Y31547
X20564Y31837
X20544Y32637
X20654Y33407
X22064Y33777
X21984Y32757
X22024Y31827
X17208Y37980
X15644Y39187
X15830Y40350
X16027Y40587
X16223Y40350
X16617Y40350
X16814Y40587
X17011Y40350
X17601Y40587
X17674Y40357
X17924Y40347
X18114Y40557
X18534Y40357
X18724Y40567
X18914Y40347
X19114Y40607
X19767Y40350
X19964Y40587
X20160Y40350
X19570Y41547
X20751Y41547
X21145Y40587
X21342Y40350
X21735Y40350
X22326Y40587
X22523Y40350
X22720Y40587
X23113Y40587
X23507Y40587
X23704Y40350
X24491Y40350
X24688Y40587
X25279Y40350
X25869Y40587
X26066Y40350
X26460Y40350
X27109Y43323
X27109Y43716
X27346Y44307
X27109Y44504
X27346Y44701
X27109Y44898
X27346Y45094
X27109Y45685
X27346Y46275
X27109Y46472
X27346Y46669
X27346Y47063
X27109Y47260
X27109Y47653
X27346Y47850
X27346Y48244
X27346Y48638
X27346Y49425
X27109Y49622
X27346Y49819
X27109Y50409
X27109Y50803
X27346Y51000
X27109Y51197
X27346Y51394
X27346Y51787
X27346Y52575
X27109Y52772
X27109Y53165
X27346Y53362
X27346Y54150
X27109Y54346
X27109Y54740
X27346Y54937
X27109Y55134
X27346Y55331
X27109Y55527
X27346Y55724
X25082Y57476
X25279Y57712
X24885Y57712
X24688Y57476
X24491Y57712
X24294Y57476
X24098Y57712
X23901Y57476
X23704Y57712
X23507Y57476
X23310Y57712
X23113Y57476
X22916Y57712
X22523Y57712
X22326Y57476
X22129Y57712
X21932Y57476
X21735Y57712
X21342Y57712
X21145Y57476
X20948Y57712
X20554Y57712
X20357Y57476
X20160Y57712
X19964Y57476
X19767Y57712
X19570Y57476
X18979Y57712
X18783Y57476
X18586Y57712
X18192Y57712
X17774Y57707
X17594Y57467
X17974Y56577
X17014Y56577
X16814Y57476
X16617Y57712
X16420Y57476
X16223Y57712
X15830Y57712
X15633Y57476
X15436Y57712
X14846Y57476
X14649Y57712
X13864Y57727
X13674Y57477
X13271Y57476
X12680Y57712
X12286Y57712
X11104Y58567
X12334Y59717
X13014Y59726
X13044Y59427
X14324Y59007
X13224Y60937
X12434Y62937
X12684Y63327
X12804Y63577
X17504Y59637
X17824Y60227
X18344Y60067
X18154Y59467
X16984Y58607
X15239Y56547
X15144Y53267
X15928Y52476
X16322Y52870
X16714Y52887
X16704Y52487
X16716Y52083
X17109Y52083
X17109Y52476
X17503Y52476
X17897Y52476
X18290Y52476
X18274Y52107
X17897Y52083
X17894Y51697
X18284Y51697
X18274Y51317
X17897Y51295
X17503Y51295
X17503Y50901
X17504Y50507
X17503Y50114
X17109Y50114
X16716Y50114
X16716Y49720
X17109Y49720
X17109Y49327
X16716Y49327
X16716Y48933
X17109Y48933
X17109Y48539
X16716Y48539
X16716Y48146
X17109Y48146
X16716Y47752
X16322Y47752
X16322Y48146
X16322Y48539
X15928Y48539
X15928Y48146
X15535Y48146
X15928Y47752
X16322Y47358
X16716Y46964
X16716Y46571
X17109Y46571
X17109Y46964
X17503Y46964
X17503Y46571
X17897Y46571
X17897Y46964
X18290Y46964
X18684Y46964
X19064Y46967
X19078Y46571
X19472Y46571
X19865Y46571
X19865Y46964
X19472Y46964
X19472Y47358
X19104Y47367
X19078Y47752
X19472Y47752
X19865Y47358
X20259Y47358
X20259Y46964
X20259Y46571
X20653Y46571
X21046Y46571
X21046Y46177
X20653Y46177
X20653Y45783
X21046Y45783
X21440Y45783
X21834Y45783
X22227Y46177
X22227Y46571
X21834Y46571
X21834Y46964
X22227Y46964
X22227Y47358
X21834Y47358
X21440Y47358
X21440Y46964
X21046Y47358
X21046Y47752
X20653Y47752
X20653Y48146
X20653Y48539
X21046Y48539
X21046Y48146
X21440Y48146
X21440Y48539
X21834Y48539
X22227Y48539
X22227Y48933
X21834Y48933
X21834Y49327
X21834Y49720
X22227Y49720
X22227Y49327
X21440Y49327
X21440Y49720
X21046Y49720
X21046Y49327
X20653Y49327
X20653Y49720
X20653Y50114
X21046Y50114
X21046Y50508
X20653Y50508
X20653Y50901
X21046Y50901
X21440Y50901
X21440Y50508
X21440Y50114
X21834Y50114
X21046Y51295
X20653Y51689
X20653Y52083
X20653Y52476
X21046Y52476
X20653Y52870
X20259Y52870
X19865Y52870
X19472Y52870
X19472Y52476
X19472Y52083
X19865Y52083
X20259Y52083
X20259Y51689
X19865Y51689
X19472Y51689
X19472Y51295
X19865Y51295
X19865Y50901
X20259Y51295
X20259Y50494
X20259Y49327
X20259Y48933
X20653Y48933
X20259Y48539
X20259Y48146
X20653Y46964
X20259Y46177
X19865Y45783
X19472Y45783
X19078Y46177
X18684Y45783
X18290Y45783
X17897Y45783
X17503Y45783
X17503Y46177
X17109Y46177
X16716Y46177
X16716Y45783
X16322Y46177
X16322Y46571
X15928Y46964
X15928Y46177
X15535Y45783
X17109Y47358
X17503Y47358
X17897Y47358
X18290Y47358
X18290Y47752
X18674Y47747
X18684Y47357
X18684Y46571
X17897Y46177
X17897Y48146
X18290Y48146
X19078Y48146
X19078Y48539
X17897Y48933
X17897Y49327
X17897Y49720
X18290Y50114
X18290Y50508
X18684Y50901
X19078Y50901
X19078Y50508
X19078Y50114
X18684Y51295
X19078Y51689
X19078Y52083
X19078Y52476
X18684Y52476
X18684Y52083
X18684Y52870
X18290Y52870
X17897Y52870
X17503Y52870
X17109Y51689
X16716Y51689
X16322Y51295
X16322Y50901
X16322Y50508
X16716Y50508
X17109Y50508
X16716Y50901
X16322Y50114
X16322Y49720
X16322Y49327
X15928Y49327
X15535Y48933
X16322Y48933
X17503Y48933
X15535Y50508
X15928Y51295
X15535Y51689
X12232Y51295
X11912Y50901
X11676Y50705
X11912Y50508
X11676Y50311
X11912Y50114
X11676Y49917
X11676Y49524
X11676Y49130
X11912Y48933
X11676Y48736
X11676Y48342
X11912Y48146
X11676Y47949
X11676Y47555
X11676Y47161
X11912Y46964
X11676Y46768
X11676Y46374
X11912Y46177
X11912Y45783
X11676Y45587
X11392Y45390
X11676Y45193
X11676Y44799
X11912Y44602
X11676Y44405
X11912Y44209
X11542Y41847
X11696Y40587
X11499Y40350
X12483Y40587
X12680Y40350
X13074Y40350
X13664Y40587
X13861Y40350
X14058Y40587
X14649Y40350
X14846Y40587
X15042Y40350
X15239Y40587
X15633Y41547
X16420Y41547
X20948Y40350
X21440Y46177
X22227Y47752
X21834Y48146
X21440Y48933
X19078Y52870
X20751Y56547
X21538Y56547
X22720Y56647
X21504Y60307
X25964Y51984
X25964Y51590
X25964Y50606
X25964Y48835
X25964Y47457
X25964Y46079
X25964Y45488
X39074Y34887
X39074Y34487
X39074Y33917
X39074Y33457
X39074Y32157
X39074Y31627
X39074Y31117
X39074Y30707
X39074Y29407
X39074Y28887
X39074Y28377
X39074Y27937
X39074Y26617
X39074Y26147
X39074Y25627
X39074Y25127
X39074Y23887
X39084Y23367
X39094Y22887
X39124Y22367
X39074Y20627
X39074Y20137
X39074Y19617
X39074Y18377
X39074Y17897
X39074Y17387
X39074Y16857
X39074Y15597
X39064Y15117
X39094Y14637
X39114Y14137
X44384Y15557
X44394Y15817
X44394Y16577
X44384Y16837
X44394Y17597
X45914Y14907
X48424Y15207
X45994Y20957
X46014Y21377
X46324Y21377
X46604Y21387
X45694Y21387
X45364Y21367
X44444Y21627
X44444Y21887
X44464Y22657
X44464Y22917
X44424Y23677
X45994Y27567
X45924Y28017
X46204Y28007
X46514Y28007
X45634Y28017
X45324Y28007
X44444Y28257
X44444Y28507
X44434Y29277
X44444Y29537
X44444Y30307
X45934Y33667
X45814Y34157
X45534Y34147
X45244Y34147
X46144Y34167
X46514Y34157
X44444Y34357
X44444Y34597
X44454Y35377
X44444Y35637
X44464Y36397
X46614Y47927
X46614Y48427
X46614Y48927
X46634Y49427
X46594Y50307
X46594Y50797
X46614Y51287
X46594Y51807
X46614Y52547
X46614Y53097
X46614Y53647
X46614Y54147
X46614Y54947
X46614Y55497
X46614Y55947
X46614Y56447
X46614Y57247
X46504Y57767
X46614Y59547
X46664Y60597
X49104Y60297
X49104Y60047
X49104Y59307
X49124Y59027
X49104Y61027
X51304Y60307
X52174Y60787
X53244Y60427
X52864Y59317
X54284Y55907
X53884Y55677
X54944Y55167
X54454Y54247
X53874Y53707
X51074Y55157
X51004Y55427
X50154Y54377
X49014Y54947
X48454Y54357
X48684Y54127
X57354Y53707
X57374Y55167
X58864Y56697
X59564Y58397
X60414Y58397
X60364Y59897
X59064Y59897
X58564Y61397
X60364Y61397
X54524Y64267
X54534Y64757
X54534Y65287
X53034Y64207
X52594Y64207
X52024Y64227
X50164Y64147
X49644Y64157
X49154Y64147
X48664Y64157
X40924Y61967
X40294Y64857
X38284Y64847
X36684Y64807
X35344Y64827
X34304Y64837
X33344Y64817
X32804Y65027
X20654Y69137
X18014Y69137
X10484Y72547
X9944Y70177
X7674Y70167
X7164Y70167
X6654Y70167
X9284Y55087
X6844Y53567
X6604Y53047
X7204Y52527
X6564Y51927
X4144Y53617
X4054Y54657
X2284Y52007
X3994Y50707
X3984Y49177
X7354Y45427
X7444Y46007
X7484Y47647
X11272Y47358
X11312Y48539
X12192Y49327
X11676Y51098
X11912Y51689
X11676Y51886
X11912Y52083
X11912Y52476
X11676Y52673
X11676Y53067
X11912Y53264
X11676Y53461
X11912Y53657
X11676Y53854
X11912Y54051
X11676Y54248
X11912Y54445
X11036Y52279
X5824Y42047
X6144Y40947
X6144Y40447
X4884Y39127
X4924Y38207
X4884Y37567
X4094Y37297
X3974Y38577
X3984Y41027
X2264Y35017
X2974Y32287
X5004Y33467
X9044Y33787
X9304Y37847
X9304Y38927
X10464Y38167
X12014Y37517
X10564Y40087
X9304Y40827
X27434Y26127
X27674Y23107
X57114Y46997
T02
X57244Y49657
X56344Y49797
X54274Y50287
X54894Y53397
X52404Y54917
X52214Y58517
X49054Y58517
X48994Y61317
X48264Y73407
X62824Y51847
X62714Y50047
X62734Y49527
X60954Y49047
X60604Y48667
X64724Y51867
X28994Y64497
T03
X28624Y54647
X11720Y57156
T04
X5014Y57827
X17484Y35637
X19174Y34157
X20524Y28697
X22334Y28697
X13274Y21667
X11284Y21517
X4114Y22797
X1554Y21097
X2314Y28047
X25929Y61924
X27905Y61924
X24414Y64477
X31974Y68627
X35334Y63017
X37464Y64837
X39564Y66387
X41874Y68607
X43724Y69667
X43784Y70037
X43724Y65887
X48954Y62497
X55964Y61447
X55984Y59707
X56764Y59047
X57714Y59197
X56014Y63797
X55574Y66997
X58324Y66597
X58824Y66597
X59324Y66597
X59834Y66597
X62914Y61997
X63064Y55247
X63014Y53747
X51204Y52827
X51064Y53797
X44774Y37567
X44784Y31507
X44864Y24577
X44904Y18687
X48134Y17767
X50994Y71047
T05
X45494Y73557
X42504Y63607
X30604Y56467
X24884Y55107
X24164Y54687
X16434Y60267
X16164Y62327
X15584Y62167
X16784Y63587
X17494Y67007
X18764Y66997
X20194Y67027
X16424Y69267
X15224Y69267
X11294Y68317
X11444Y66837
X11414Y65797
X10014Y65047
X10014Y67297
X10064Y62597
X11514Y60497
X8564Y59297
X8514Y57097
X10644Y55487
X12564Y55287
X13364Y53647
X10164Y52467
X5514Y50447
X5464Y55597
X2514Y57927
X4964Y61347
X4794Y62267
X3764Y62097
X4914Y64847
X4714Y65797
X4164Y66697
X5064Y66947
X4914Y67697
X2884Y66097
X2164Y65947
X5304Y72547
X5674Y72547
X13744Y45067
X13844Y44027
X24004Y44207
X24464Y43747
X10194Y27487
X3004Y27427
X1004Y27487
X1014Y27987
X20054Y26297
X19924Y23327
X23784Y23287
X24044Y26317
X36004Y11047
X36614Y11047
X61654Y23307
T06
X38753Y40686
X38753Y41241
X38753Y41796
X38753Y42352
X38753Y42907
X38753Y43462
X38753Y44017
X38753Y44572
X38753Y45127
X38753Y45682
X38753Y46237
X38753Y46792
X38753Y47348
X38753Y47903
X38753Y48458
X38753Y49013
X38753Y49568
X38753Y50123
X38753Y50678
X38753Y51233
X38753Y51789
X38753Y52344
X38753Y52899
X38753Y53454
X38753Y54009
X38753Y54564
X38753Y55119
X38753Y55674
X38753Y56230
X38753Y56785
X38753Y57340
X38753Y57895
X38753Y58450
X38753Y59005
X38753Y59560
X38753Y60115
T07
X29103Y72611
X29103Y73595
X26426Y73595
X26426Y72611
T08
X28244Y69997
X29244Y69997
X30244Y69997
X42522Y61515
X43522Y61515
X43522Y60515
X42522Y60515
X42522Y59515
X43522Y59515
X43522Y58515
X42522Y58515
X42522Y57515
X43522Y57515
X43522Y56515
X42522Y56515
X42522Y55515
X43522Y55515
X43522Y54515
X42522Y54515
X42522Y53515
X43522Y53515
X43522Y52515
X42522Y52515
X42522Y51515
X43522Y51515
X43522Y50515
X42522Y50515
X42522Y49515
X43522Y49515
X43522Y48515
X42522Y48515
X42522Y47515
X43522Y47515
X43522Y46515
X42522Y46515
X42522Y45515
X43522Y45515
X43522Y44515
X42522Y44515
X42522Y43515
X43522Y43515
X43522Y42515
X42522Y42515
X51164Y42697
X51164Y43697
X51164Y44697
X51164Y45697
X51164Y46697
X51164Y47697
X51164Y48697
X52164Y48697
X52164Y47697
X52164Y46697
X52164Y45697
X52164Y44697
X52164Y43697
X52164Y42697
X56644Y35277
X56644Y34277
X56644Y33277
X56644Y32277
X57644Y32277
X57644Y33277
X57644Y34277
X57644Y35277
X57644Y31277
X57644Y30277
X57644Y29277
X57644Y28277
X56644Y28277
X56644Y29277
X56644Y30277
X56644Y31277
X56644Y27277
X56644Y26277
X56644Y25277
X56644Y24277
X57644Y24277
X57644Y25277
X57644Y26277
X57644Y27277
X57644Y23277
X57644Y22277
X57644Y21277
X57644Y20277
X56644Y20277
X56644Y21277
X56644Y22277
X56644Y23277
X56644Y19277
X56644Y18277
X56644Y17277
X56644Y16277
X57644Y16277
X57644Y17277
X57644Y18277
X57644Y19277
X23994Y30457
X23994Y31457
X22994Y31457
X22994Y30457
X22994Y32457
X22994Y33457
X22994Y34457
X23994Y34457
X23994Y33457
X23994Y32457
X13774Y26247
X13774Y25247
X13774Y24247
X12774Y24247
X12774Y25247
X12774Y26247
X12774Y23247
X12774Y22247
X13774Y22247
X13774Y23247
X16494Y19187
X17494Y19187
X17494Y18187
X16494Y18187
X18494Y18187
X18494Y19187
X15989Y15147
X15009Y15147
X14219Y15147
X13239Y15147
X9229Y15147
X8249Y15147
X7459Y15147
X6479Y15147
X6014Y22247
X6014Y23247
X6014Y24247
X6014Y25247
X6014Y26247
X7014Y26247
X7014Y25247
X7014Y24247
X7014Y23247
X7014Y22247
X3184Y21997
X2184Y21997
X2284Y24147
X3284Y24147
X3416Y44287
X4416Y44287
X4416Y45287
X3416Y45287
X3416Y46287
X4416Y46287
X4416Y47287
X3416Y47287
X3416Y48287
X4416Y48287
T09
X16563Y70817
X17465Y70817
X18366Y70817
X19268Y70817
X20170Y70817
X19721Y71817
X20170Y72817
X19268Y72817
X18366Y72817
X17918Y71817
X18819Y71817
X17465Y72817
X16563Y72817
X16115Y71817
X17016Y71817
X26174Y57637
X27174Y57637
X28174Y57637
X29174Y57637
X46684Y71797
X47764Y71797
X48844Y71797
X49924Y71797
X51004Y71797
X50464Y72797
X49384Y72797
X48304Y72797
X47224Y72797
X59004Y71797
X60084Y71797
X61164Y71797
X62244Y71797
X63324Y71797
X62784Y72797
X61704Y72797
X60624Y72797
X59544Y72797
X59424Y42527
X60504Y42527
X59964Y41407
X58884Y41407
X58344Y42527
X61044Y41407
X61584Y42527
X62664Y42527
X62124Y41407
T10
X11605Y76095
X11368Y74166
X5660Y74166
X5424Y76095
T11
X5283Y19126
X4575Y18339
X3118Y19126
X2173Y18339
X6740Y18339
T12
X3393Y75957
X1834Y75957
T13
X25111Y74776
X27764Y75087
X30418Y74776
T14
X17199Y14077
X12029Y14077
X10439Y14077
X5269Y14077
T15
X13343Y71817
X23185Y71817
X43914Y72297
X53774Y72297
X56234Y72297
X66094Y72297
X65434Y41967
X55574Y41967
T16
X2914Y12126
X26614Y20037
X47439Y41457
X64914Y64126
X25604Y67966
X2914Y73126
X64914Y12126
M30
