G75*
%MOIN*%
%OFA0B0*%
%FSLAX25Y25*%
%IPPOS*%
%LPD*%
%AMOC8*
5,1,8,0,0,1.08239X$1,22.5*
%
%ADD10C,0.01000*%
%ADD11C,0.23800*%
%ADD12C,0.06115*%
%ADD13C,0.00000*%
%ADD14C,0.10800*%
%ADD15C,0.11725*%
%ADD16C,0.08083*%
%ADD17OC8,0.06200*%
%ADD18OC8,0.11430*%
%ADD19C,0.06200*%
%ADD20C,0.13800*%
%ADD21OC8,0.04343*%
%ADD22OC8,0.03800*%
%ADD23OC8,0.02800*%
%ADD24C,0.02800*%
D10*
X0004000Y0002343D02*
X0570300Y0002343D01*
X0570398Y0002345D01*
X0570496Y0002351D01*
X0570594Y0002360D01*
X0570691Y0002374D01*
X0570788Y0002391D01*
X0570884Y0002412D01*
X0570979Y0002437D01*
X0571073Y0002465D01*
X0571165Y0002498D01*
X0571257Y0002533D01*
X0571347Y0002573D01*
X0571435Y0002615D01*
X0571522Y0002662D01*
X0571606Y0002711D01*
X0571689Y0002764D01*
X0571769Y0002820D01*
X0571848Y0002880D01*
X0571924Y0002942D01*
X0571997Y0003007D01*
X0572068Y0003075D01*
X0572136Y0003146D01*
X0572201Y0003219D01*
X0572263Y0003295D01*
X0572323Y0003374D01*
X0572379Y0003454D01*
X0572432Y0003537D01*
X0572481Y0003621D01*
X0572528Y0003708D01*
X0572570Y0003796D01*
X0572610Y0003886D01*
X0572645Y0003978D01*
X0572678Y0004070D01*
X0572706Y0004164D01*
X0572731Y0004259D01*
X0572752Y0004355D01*
X0572769Y0004452D01*
X0572783Y0004549D01*
X0572792Y0004647D01*
X0572798Y0004745D01*
X0572800Y0004843D01*
X0572800Y0157343D01*
X0572798Y0157441D01*
X0572792Y0157539D01*
X0572783Y0157637D01*
X0572769Y0157734D01*
X0572752Y0157831D01*
X0572731Y0157927D01*
X0572706Y0158022D01*
X0572678Y0158116D01*
X0572645Y0158208D01*
X0572610Y0158300D01*
X0572570Y0158390D01*
X0572528Y0158478D01*
X0572481Y0158565D01*
X0572432Y0158649D01*
X0572379Y0158732D01*
X0572323Y0158812D01*
X0572263Y0158891D01*
X0572201Y0158967D01*
X0572136Y0159040D01*
X0572068Y0159111D01*
X0571997Y0159179D01*
X0571924Y0159244D01*
X0571848Y0159306D01*
X0571769Y0159366D01*
X0571689Y0159422D01*
X0571606Y0159475D01*
X0571522Y0159524D01*
X0571435Y0159571D01*
X0571347Y0159613D01*
X0571257Y0159653D01*
X0571165Y0159688D01*
X0571073Y0159721D01*
X0570979Y0159749D01*
X0570884Y0159774D01*
X0570788Y0159795D01*
X0570691Y0159812D01*
X0570594Y0159826D01*
X0570496Y0159835D01*
X0570398Y0159841D01*
X0570300Y0159843D01*
X0004000Y0159843D01*
X0003902Y0159841D01*
X0003804Y0159835D01*
X0003706Y0159826D01*
X0003609Y0159812D01*
X0003512Y0159795D01*
X0003416Y0159774D01*
X0003321Y0159749D01*
X0003227Y0159721D01*
X0003135Y0159688D01*
X0003043Y0159653D01*
X0002953Y0159613D01*
X0002865Y0159571D01*
X0002778Y0159524D01*
X0002694Y0159475D01*
X0002611Y0159422D01*
X0002531Y0159366D01*
X0002452Y0159306D01*
X0002376Y0159244D01*
X0002303Y0159179D01*
X0002232Y0159111D01*
X0002164Y0159040D01*
X0002099Y0158967D01*
X0002037Y0158891D01*
X0001977Y0158812D01*
X0001921Y0158732D01*
X0001868Y0158649D01*
X0001819Y0158565D01*
X0001772Y0158478D01*
X0001730Y0158390D01*
X0001690Y0158300D01*
X0001655Y0158208D01*
X0001622Y0158116D01*
X0001594Y0158022D01*
X0001569Y0157927D01*
X0001548Y0157831D01*
X0001531Y0157734D01*
X0001517Y0157637D01*
X0001508Y0157539D01*
X0001502Y0157441D01*
X0001500Y0157343D01*
X0001500Y0004843D01*
X0001502Y0004745D01*
X0001508Y0004647D01*
X0001517Y0004549D01*
X0001531Y0004452D01*
X0001548Y0004355D01*
X0001569Y0004259D01*
X0001594Y0004164D01*
X0001622Y0004070D01*
X0001655Y0003978D01*
X0001690Y0003886D01*
X0001730Y0003796D01*
X0001772Y0003708D01*
X0001819Y0003621D01*
X0001868Y0003537D01*
X0001921Y0003454D01*
X0001977Y0003374D01*
X0002037Y0003295D01*
X0002099Y0003219D01*
X0002164Y0003146D01*
X0002232Y0003075D01*
X0002303Y0003007D01*
X0002376Y0002942D01*
X0002452Y0002880D01*
X0002531Y0002820D01*
X0002611Y0002764D01*
X0002694Y0002711D01*
X0002778Y0002662D01*
X0002865Y0002615D01*
X0002953Y0002573D01*
X0003043Y0002533D01*
X0003135Y0002498D01*
X0003227Y0002465D01*
X0003321Y0002437D01*
X0003416Y0002412D01*
X0003512Y0002391D01*
X0003609Y0002374D01*
X0003706Y0002360D01*
X0003804Y0002351D01*
X0003902Y0002345D01*
X0004000Y0002343D01*
D11*
X0155300Y0068235D03*
X0338405Y0111580D03*
X0548400Y0029835D03*
D12*
X0498400Y0132243D03*
X0488400Y0132243D03*
X0478400Y0132243D03*
X0468400Y0132243D03*
X0458400Y0132243D03*
X0448400Y0132243D03*
X0438400Y0132243D03*
X0428400Y0132243D03*
X0418400Y0132243D03*
X0408400Y0132243D03*
X0398400Y0132243D03*
X0388400Y0132243D03*
X0378400Y0132243D03*
X0368400Y0132243D03*
X0358400Y0132243D03*
X0358400Y0152243D03*
X0368400Y0152243D03*
X0378400Y0152243D03*
X0388400Y0152243D03*
X0398400Y0152243D03*
X0408400Y0152243D03*
X0418400Y0152243D03*
X0428400Y0152243D03*
X0438400Y0152243D03*
X0448400Y0152243D03*
X0458400Y0152243D03*
X0468400Y0152243D03*
X0478400Y0152243D03*
X0488400Y0152243D03*
X0498400Y0152243D03*
X0233300Y0100443D03*
X0219300Y0100443D03*
X0205300Y0100443D03*
X0191300Y0100443D03*
X0177300Y0100443D03*
X0163300Y0100443D03*
X0149300Y0100443D03*
X0156300Y0112567D03*
X0170300Y0112567D03*
X0184300Y0112567D03*
X0198300Y0112567D03*
X0212300Y0112567D03*
X0226300Y0112567D03*
D13*
X0263800Y0142943D02*
X0263802Y0143084D01*
X0263808Y0143225D01*
X0263818Y0143365D01*
X0263832Y0143505D01*
X0263850Y0143645D01*
X0263871Y0143784D01*
X0263897Y0143923D01*
X0263926Y0144061D01*
X0263960Y0144197D01*
X0263997Y0144333D01*
X0264038Y0144468D01*
X0264083Y0144602D01*
X0264132Y0144734D01*
X0264184Y0144865D01*
X0264240Y0144994D01*
X0264300Y0145121D01*
X0264363Y0145247D01*
X0264429Y0145371D01*
X0264500Y0145494D01*
X0264573Y0145614D01*
X0264650Y0145732D01*
X0264730Y0145848D01*
X0264814Y0145961D01*
X0264900Y0146072D01*
X0264990Y0146181D01*
X0265083Y0146287D01*
X0265178Y0146390D01*
X0265277Y0146491D01*
X0265378Y0146589D01*
X0265482Y0146684D01*
X0265589Y0146776D01*
X0265698Y0146865D01*
X0265810Y0146950D01*
X0265924Y0147033D01*
X0266040Y0147113D01*
X0266159Y0147189D01*
X0266280Y0147261D01*
X0266402Y0147331D01*
X0266527Y0147396D01*
X0266653Y0147459D01*
X0266781Y0147517D01*
X0266911Y0147572D01*
X0267042Y0147624D01*
X0267175Y0147671D01*
X0267309Y0147715D01*
X0267444Y0147756D01*
X0267580Y0147792D01*
X0267717Y0147824D01*
X0267855Y0147853D01*
X0267993Y0147878D01*
X0268133Y0147898D01*
X0268273Y0147915D01*
X0268413Y0147928D01*
X0268554Y0147937D01*
X0268694Y0147942D01*
X0268835Y0147943D01*
X0268976Y0147940D01*
X0269117Y0147933D01*
X0269257Y0147922D01*
X0269397Y0147907D01*
X0269537Y0147888D01*
X0269676Y0147866D01*
X0269814Y0147839D01*
X0269952Y0147809D01*
X0270088Y0147774D01*
X0270224Y0147736D01*
X0270358Y0147694D01*
X0270492Y0147648D01*
X0270624Y0147599D01*
X0270754Y0147545D01*
X0270883Y0147488D01*
X0271010Y0147428D01*
X0271136Y0147364D01*
X0271259Y0147296D01*
X0271381Y0147225D01*
X0271501Y0147151D01*
X0271618Y0147073D01*
X0271733Y0146992D01*
X0271846Y0146908D01*
X0271957Y0146821D01*
X0272065Y0146730D01*
X0272170Y0146637D01*
X0272273Y0146540D01*
X0272373Y0146441D01*
X0272470Y0146339D01*
X0272564Y0146234D01*
X0272655Y0146127D01*
X0272743Y0146017D01*
X0272828Y0145905D01*
X0272910Y0145790D01*
X0272989Y0145673D01*
X0273064Y0145554D01*
X0273136Y0145433D01*
X0273204Y0145310D01*
X0273269Y0145185D01*
X0273331Y0145058D01*
X0273388Y0144929D01*
X0273443Y0144799D01*
X0273493Y0144668D01*
X0273540Y0144535D01*
X0273583Y0144401D01*
X0273622Y0144265D01*
X0273657Y0144129D01*
X0273689Y0143992D01*
X0273716Y0143854D01*
X0273740Y0143715D01*
X0273760Y0143575D01*
X0273776Y0143435D01*
X0273788Y0143295D01*
X0273796Y0143154D01*
X0273800Y0143013D01*
X0273800Y0142873D01*
X0273796Y0142732D01*
X0273788Y0142591D01*
X0273776Y0142451D01*
X0273760Y0142311D01*
X0273740Y0142171D01*
X0273716Y0142032D01*
X0273689Y0141894D01*
X0273657Y0141757D01*
X0273622Y0141621D01*
X0273583Y0141485D01*
X0273540Y0141351D01*
X0273493Y0141218D01*
X0273443Y0141087D01*
X0273388Y0140957D01*
X0273331Y0140828D01*
X0273269Y0140701D01*
X0273204Y0140576D01*
X0273136Y0140453D01*
X0273064Y0140332D01*
X0272989Y0140213D01*
X0272910Y0140096D01*
X0272828Y0139981D01*
X0272743Y0139869D01*
X0272655Y0139759D01*
X0272564Y0139652D01*
X0272470Y0139547D01*
X0272373Y0139445D01*
X0272273Y0139346D01*
X0272170Y0139249D01*
X0272065Y0139156D01*
X0271957Y0139065D01*
X0271846Y0138978D01*
X0271733Y0138894D01*
X0271618Y0138813D01*
X0271501Y0138735D01*
X0271381Y0138661D01*
X0271259Y0138590D01*
X0271136Y0138522D01*
X0271010Y0138458D01*
X0270883Y0138398D01*
X0270754Y0138341D01*
X0270624Y0138287D01*
X0270492Y0138238D01*
X0270358Y0138192D01*
X0270224Y0138150D01*
X0270088Y0138112D01*
X0269952Y0138077D01*
X0269814Y0138047D01*
X0269676Y0138020D01*
X0269537Y0137998D01*
X0269397Y0137979D01*
X0269257Y0137964D01*
X0269117Y0137953D01*
X0268976Y0137946D01*
X0268835Y0137943D01*
X0268694Y0137944D01*
X0268554Y0137949D01*
X0268413Y0137958D01*
X0268273Y0137971D01*
X0268133Y0137988D01*
X0267993Y0138008D01*
X0267855Y0138033D01*
X0267717Y0138062D01*
X0267580Y0138094D01*
X0267444Y0138130D01*
X0267309Y0138171D01*
X0267175Y0138215D01*
X0267042Y0138262D01*
X0266911Y0138314D01*
X0266781Y0138369D01*
X0266653Y0138427D01*
X0266527Y0138490D01*
X0266402Y0138555D01*
X0266280Y0138625D01*
X0266159Y0138697D01*
X0266040Y0138773D01*
X0265924Y0138853D01*
X0265810Y0138936D01*
X0265698Y0139021D01*
X0265589Y0139110D01*
X0265482Y0139202D01*
X0265378Y0139297D01*
X0265277Y0139395D01*
X0265178Y0139496D01*
X0265083Y0139599D01*
X0264990Y0139705D01*
X0264900Y0139814D01*
X0264814Y0139925D01*
X0264730Y0140038D01*
X0264650Y0140154D01*
X0264573Y0140272D01*
X0264500Y0140392D01*
X0264429Y0140515D01*
X0264363Y0140639D01*
X0264300Y0140765D01*
X0264240Y0140892D01*
X0264184Y0141021D01*
X0264132Y0141152D01*
X0264083Y0141284D01*
X0264038Y0141418D01*
X0263997Y0141553D01*
X0263960Y0141689D01*
X0263926Y0141825D01*
X0263897Y0141963D01*
X0263871Y0142102D01*
X0263850Y0142241D01*
X0263832Y0142381D01*
X0263818Y0142521D01*
X0263808Y0142661D01*
X0263802Y0142802D01*
X0263800Y0142943D01*
X0108800Y0142943D02*
X0108802Y0143084D01*
X0108808Y0143225D01*
X0108818Y0143365D01*
X0108832Y0143505D01*
X0108850Y0143645D01*
X0108871Y0143784D01*
X0108897Y0143923D01*
X0108926Y0144061D01*
X0108960Y0144197D01*
X0108997Y0144333D01*
X0109038Y0144468D01*
X0109083Y0144602D01*
X0109132Y0144734D01*
X0109184Y0144865D01*
X0109240Y0144994D01*
X0109300Y0145121D01*
X0109363Y0145247D01*
X0109429Y0145371D01*
X0109500Y0145494D01*
X0109573Y0145614D01*
X0109650Y0145732D01*
X0109730Y0145848D01*
X0109814Y0145961D01*
X0109900Y0146072D01*
X0109990Y0146181D01*
X0110083Y0146287D01*
X0110178Y0146390D01*
X0110277Y0146491D01*
X0110378Y0146589D01*
X0110482Y0146684D01*
X0110589Y0146776D01*
X0110698Y0146865D01*
X0110810Y0146950D01*
X0110924Y0147033D01*
X0111040Y0147113D01*
X0111159Y0147189D01*
X0111280Y0147261D01*
X0111402Y0147331D01*
X0111527Y0147396D01*
X0111653Y0147459D01*
X0111781Y0147517D01*
X0111911Y0147572D01*
X0112042Y0147624D01*
X0112175Y0147671D01*
X0112309Y0147715D01*
X0112444Y0147756D01*
X0112580Y0147792D01*
X0112717Y0147824D01*
X0112855Y0147853D01*
X0112993Y0147878D01*
X0113133Y0147898D01*
X0113273Y0147915D01*
X0113413Y0147928D01*
X0113554Y0147937D01*
X0113694Y0147942D01*
X0113835Y0147943D01*
X0113976Y0147940D01*
X0114117Y0147933D01*
X0114257Y0147922D01*
X0114397Y0147907D01*
X0114537Y0147888D01*
X0114676Y0147866D01*
X0114814Y0147839D01*
X0114952Y0147809D01*
X0115088Y0147774D01*
X0115224Y0147736D01*
X0115358Y0147694D01*
X0115492Y0147648D01*
X0115624Y0147599D01*
X0115754Y0147545D01*
X0115883Y0147488D01*
X0116010Y0147428D01*
X0116136Y0147364D01*
X0116259Y0147296D01*
X0116381Y0147225D01*
X0116501Y0147151D01*
X0116618Y0147073D01*
X0116733Y0146992D01*
X0116846Y0146908D01*
X0116957Y0146821D01*
X0117065Y0146730D01*
X0117170Y0146637D01*
X0117273Y0146540D01*
X0117373Y0146441D01*
X0117470Y0146339D01*
X0117564Y0146234D01*
X0117655Y0146127D01*
X0117743Y0146017D01*
X0117828Y0145905D01*
X0117910Y0145790D01*
X0117989Y0145673D01*
X0118064Y0145554D01*
X0118136Y0145433D01*
X0118204Y0145310D01*
X0118269Y0145185D01*
X0118331Y0145058D01*
X0118388Y0144929D01*
X0118443Y0144799D01*
X0118493Y0144668D01*
X0118540Y0144535D01*
X0118583Y0144401D01*
X0118622Y0144265D01*
X0118657Y0144129D01*
X0118689Y0143992D01*
X0118716Y0143854D01*
X0118740Y0143715D01*
X0118760Y0143575D01*
X0118776Y0143435D01*
X0118788Y0143295D01*
X0118796Y0143154D01*
X0118800Y0143013D01*
X0118800Y0142873D01*
X0118796Y0142732D01*
X0118788Y0142591D01*
X0118776Y0142451D01*
X0118760Y0142311D01*
X0118740Y0142171D01*
X0118716Y0142032D01*
X0118689Y0141894D01*
X0118657Y0141757D01*
X0118622Y0141621D01*
X0118583Y0141485D01*
X0118540Y0141351D01*
X0118493Y0141218D01*
X0118443Y0141087D01*
X0118388Y0140957D01*
X0118331Y0140828D01*
X0118269Y0140701D01*
X0118204Y0140576D01*
X0118136Y0140453D01*
X0118064Y0140332D01*
X0117989Y0140213D01*
X0117910Y0140096D01*
X0117828Y0139981D01*
X0117743Y0139869D01*
X0117655Y0139759D01*
X0117564Y0139652D01*
X0117470Y0139547D01*
X0117373Y0139445D01*
X0117273Y0139346D01*
X0117170Y0139249D01*
X0117065Y0139156D01*
X0116957Y0139065D01*
X0116846Y0138978D01*
X0116733Y0138894D01*
X0116618Y0138813D01*
X0116501Y0138735D01*
X0116381Y0138661D01*
X0116259Y0138590D01*
X0116136Y0138522D01*
X0116010Y0138458D01*
X0115883Y0138398D01*
X0115754Y0138341D01*
X0115624Y0138287D01*
X0115492Y0138238D01*
X0115358Y0138192D01*
X0115224Y0138150D01*
X0115088Y0138112D01*
X0114952Y0138077D01*
X0114814Y0138047D01*
X0114676Y0138020D01*
X0114537Y0137998D01*
X0114397Y0137979D01*
X0114257Y0137964D01*
X0114117Y0137953D01*
X0113976Y0137946D01*
X0113835Y0137943D01*
X0113694Y0137944D01*
X0113554Y0137949D01*
X0113413Y0137958D01*
X0113273Y0137971D01*
X0113133Y0137988D01*
X0112993Y0138008D01*
X0112855Y0138033D01*
X0112717Y0138062D01*
X0112580Y0138094D01*
X0112444Y0138130D01*
X0112309Y0138171D01*
X0112175Y0138215D01*
X0112042Y0138262D01*
X0111911Y0138314D01*
X0111781Y0138369D01*
X0111653Y0138427D01*
X0111527Y0138490D01*
X0111402Y0138555D01*
X0111280Y0138625D01*
X0111159Y0138697D01*
X0111040Y0138773D01*
X0110924Y0138853D01*
X0110810Y0138936D01*
X0110698Y0139021D01*
X0110589Y0139110D01*
X0110482Y0139202D01*
X0110378Y0139297D01*
X0110277Y0139395D01*
X0110178Y0139496D01*
X0110083Y0139599D01*
X0109990Y0139705D01*
X0109900Y0139814D01*
X0109814Y0139925D01*
X0109730Y0140038D01*
X0109650Y0140154D01*
X0109573Y0140272D01*
X0109500Y0140392D01*
X0109429Y0140515D01*
X0109363Y0140639D01*
X0109300Y0140765D01*
X0109240Y0140892D01*
X0109184Y0141021D01*
X0109132Y0141152D01*
X0109083Y0141284D01*
X0109038Y0141418D01*
X0108997Y0141553D01*
X0108960Y0141689D01*
X0108926Y0141825D01*
X0108897Y0141963D01*
X0108871Y0142102D01*
X0108850Y0142241D01*
X0108832Y0142381D01*
X0108818Y0142521D01*
X0108808Y0142661D01*
X0108802Y0142802D01*
X0108800Y0142943D01*
X0087758Y0154043D02*
X0087760Y0154163D01*
X0087766Y0154284D01*
X0087776Y0154404D01*
X0087790Y0154523D01*
X0087808Y0154642D01*
X0087829Y0154761D01*
X0087855Y0154879D01*
X0087885Y0154995D01*
X0087918Y0155111D01*
X0087955Y0155226D01*
X0087996Y0155339D01*
X0088041Y0155451D01*
X0088089Y0155561D01*
X0088141Y0155670D01*
X0088197Y0155776D01*
X0088256Y0155881D01*
X0088319Y0155984D01*
X0088384Y0156085D01*
X0088454Y0156184D01*
X0088526Y0156280D01*
X0088601Y0156374D01*
X0088680Y0156465D01*
X0088762Y0156554D01*
X0088846Y0156639D01*
X0088933Y0156723D01*
X0089023Y0156803D01*
X0089116Y0156880D01*
X0089211Y0156954D01*
X0089308Y0157024D01*
X0089408Y0157092D01*
X0089510Y0157156D01*
X0089614Y0157217D01*
X0089720Y0157274D01*
X0089828Y0157328D01*
X0089937Y0157378D01*
X0090048Y0157425D01*
X0090161Y0157468D01*
X0090275Y0157507D01*
X0090390Y0157542D01*
X0090506Y0157574D01*
X0090623Y0157601D01*
X0090741Y0157625D01*
X0090860Y0157645D01*
X0090979Y0157661D01*
X0091099Y0157673D01*
X0091219Y0157681D01*
X0091340Y0157685D01*
X0091460Y0157685D01*
X0091581Y0157681D01*
X0091701Y0157673D01*
X0091821Y0157661D01*
X0091940Y0157645D01*
X0092059Y0157625D01*
X0092177Y0157601D01*
X0092294Y0157574D01*
X0092410Y0157542D01*
X0092525Y0157507D01*
X0092639Y0157468D01*
X0092752Y0157425D01*
X0092863Y0157378D01*
X0092972Y0157328D01*
X0093080Y0157274D01*
X0093186Y0157217D01*
X0093290Y0157156D01*
X0093392Y0157092D01*
X0093492Y0157024D01*
X0093589Y0156954D01*
X0093684Y0156880D01*
X0093777Y0156803D01*
X0093867Y0156723D01*
X0093954Y0156639D01*
X0094038Y0156554D01*
X0094120Y0156465D01*
X0094199Y0156374D01*
X0094274Y0156280D01*
X0094346Y0156184D01*
X0094416Y0156085D01*
X0094481Y0155984D01*
X0094544Y0155881D01*
X0094603Y0155776D01*
X0094659Y0155670D01*
X0094711Y0155561D01*
X0094759Y0155451D01*
X0094804Y0155339D01*
X0094845Y0155226D01*
X0094882Y0155111D01*
X0094915Y0154995D01*
X0094945Y0154879D01*
X0094971Y0154761D01*
X0094992Y0154642D01*
X0095010Y0154523D01*
X0095024Y0154404D01*
X0095034Y0154284D01*
X0095040Y0154163D01*
X0095042Y0154043D01*
X0095040Y0153923D01*
X0095034Y0153802D01*
X0095024Y0153682D01*
X0095010Y0153563D01*
X0094992Y0153444D01*
X0094971Y0153325D01*
X0094945Y0153207D01*
X0094915Y0153091D01*
X0094882Y0152975D01*
X0094845Y0152860D01*
X0094804Y0152747D01*
X0094759Y0152635D01*
X0094711Y0152525D01*
X0094659Y0152416D01*
X0094603Y0152310D01*
X0094544Y0152205D01*
X0094481Y0152102D01*
X0094416Y0152001D01*
X0094346Y0151902D01*
X0094274Y0151806D01*
X0094199Y0151712D01*
X0094120Y0151621D01*
X0094038Y0151532D01*
X0093954Y0151447D01*
X0093867Y0151363D01*
X0093777Y0151283D01*
X0093684Y0151206D01*
X0093589Y0151132D01*
X0093492Y0151062D01*
X0093392Y0150994D01*
X0093290Y0150930D01*
X0093186Y0150869D01*
X0093080Y0150812D01*
X0092972Y0150758D01*
X0092863Y0150708D01*
X0092752Y0150661D01*
X0092639Y0150618D01*
X0092525Y0150579D01*
X0092410Y0150544D01*
X0092294Y0150512D01*
X0092177Y0150485D01*
X0092059Y0150461D01*
X0091940Y0150441D01*
X0091821Y0150425D01*
X0091701Y0150413D01*
X0091581Y0150405D01*
X0091460Y0150401D01*
X0091340Y0150401D01*
X0091219Y0150405D01*
X0091099Y0150413D01*
X0090979Y0150425D01*
X0090860Y0150441D01*
X0090741Y0150461D01*
X0090623Y0150485D01*
X0090506Y0150512D01*
X0090390Y0150544D01*
X0090275Y0150579D01*
X0090161Y0150618D01*
X0090048Y0150661D01*
X0089937Y0150708D01*
X0089828Y0150758D01*
X0089720Y0150812D01*
X0089614Y0150869D01*
X0089510Y0150930D01*
X0089408Y0150994D01*
X0089308Y0151062D01*
X0089211Y0151132D01*
X0089116Y0151206D01*
X0089023Y0151283D01*
X0088933Y0151363D01*
X0088846Y0151447D01*
X0088762Y0151532D01*
X0088680Y0151621D01*
X0088601Y0151712D01*
X0088526Y0151806D01*
X0088454Y0151902D01*
X0088384Y0152001D01*
X0088319Y0152102D01*
X0088256Y0152205D01*
X0088197Y0152310D01*
X0088141Y0152416D01*
X0088089Y0152525D01*
X0088041Y0152635D01*
X0087996Y0152747D01*
X0087955Y0152860D01*
X0087918Y0152975D01*
X0087885Y0153091D01*
X0087855Y0153207D01*
X0087829Y0153325D01*
X0087808Y0153444D01*
X0087790Y0153563D01*
X0087776Y0153682D01*
X0087766Y0153802D01*
X0087760Y0153923D01*
X0087758Y0154043D01*
X0067758Y0154043D02*
X0067760Y0154163D01*
X0067766Y0154284D01*
X0067776Y0154404D01*
X0067790Y0154523D01*
X0067808Y0154642D01*
X0067829Y0154761D01*
X0067855Y0154879D01*
X0067885Y0154995D01*
X0067918Y0155111D01*
X0067955Y0155226D01*
X0067996Y0155339D01*
X0068041Y0155451D01*
X0068089Y0155561D01*
X0068141Y0155670D01*
X0068197Y0155776D01*
X0068256Y0155881D01*
X0068319Y0155984D01*
X0068384Y0156085D01*
X0068454Y0156184D01*
X0068526Y0156280D01*
X0068601Y0156374D01*
X0068680Y0156465D01*
X0068762Y0156554D01*
X0068846Y0156639D01*
X0068933Y0156723D01*
X0069023Y0156803D01*
X0069116Y0156880D01*
X0069211Y0156954D01*
X0069308Y0157024D01*
X0069408Y0157092D01*
X0069510Y0157156D01*
X0069614Y0157217D01*
X0069720Y0157274D01*
X0069828Y0157328D01*
X0069937Y0157378D01*
X0070048Y0157425D01*
X0070161Y0157468D01*
X0070275Y0157507D01*
X0070390Y0157542D01*
X0070506Y0157574D01*
X0070623Y0157601D01*
X0070741Y0157625D01*
X0070860Y0157645D01*
X0070979Y0157661D01*
X0071099Y0157673D01*
X0071219Y0157681D01*
X0071340Y0157685D01*
X0071460Y0157685D01*
X0071581Y0157681D01*
X0071701Y0157673D01*
X0071821Y0157661D01*
X0071940Y0157645D01*
X0072059Y0157625D01*
X0072177Y0157601D01*
X0072294Y0157574D01*
X0072410Y0157542D01*
X0072525Y0157507D01*
X0072639Y0157468D01*
X0072752Y0157425D01*
X0072863Y0157378D01*
X0072972Y0157328D01*
X0073080Y0157274D01*
X0073186Y0157217D01*
X0073290Y0157156D01*
X0073392Y0157092D01*
X0073492Y0157024D01*
X0073589Y0156954D01*
X0073684Y0156880D01*
X0073777Y0156803D01*
X0073867Y0156723D01*
X0073954Y0156639D01*
X0074038Y0156554D01*
X0074120Y0156465D01*
X0074199Y0156374D01*
X0074274Y0156280D01*
X0074346Y0156184D01*
X0074416Y0156085D01*
X0074481Y0155984D01*
X0074544Y0155881D01*
X0074603Y0155776D01*
X0074659Y0155670D01*
X0074711Y0155561D01*
X0074759Y0155451D01*
X0074804Y0155339D01*
X0074845Y0155226D01*
X0074882Y0155111D01*
X0074915Y0154995D01*
X0074945Y0154879D01*
X0074971Y0154761D01*
X0074992Y0154642D01*
X0075010Y0154523D01*
X0075024Y0154404D01*
X0075034Y0154284D01*
X0075040Y0154163D01*
X0075042Y0154043D01*
X0075040Y0153923D01*
X0075034Y0153802D01*
X0075024Y0153682D01*
X0075010Y0153563D01*
X0074992Y0153444D01*
X0074971Y0153325D01*
X0074945Y0153207D01*
X0074915Y0153091D01*
X0074882Y0152975D01*
X0074845Y0152860D01*
X0074804Y0152747D01*
X0074759Y0152635D01*
X0074711Y0152525D01*
X0074659Y0152416D01*
X0074603Y0152310D01*
X0074544Y0152205D01*
X0074481Y0152102D01*
X0074416Y0152001D01*
X0074346Y0151902D01*
X0074274Y0151806D01*
X0074199Y0151712D01*
X0074120Y0151621D01*
X0074038Y0151532D01*
X0073954Y0151447D01*
X0073867Y0151363D01*
X0073777Y0151283D01*
X0073684Y0151206D01*
X0073589Y0151132D01*
X0073492Y0151062D01*
X0073392Y0150994D01*
X0073290Y0150930D01*
X0073186Y0150869D01*
X0073080Y0150812D01*
X0072972Y0150758D01*
X0072863Y0150708D01*
X0072752Y0150661D01*
X0072639Y0150618D01*
X0072525Y0150579D01*
X0072410Y0150544D01*
X0072294Y0150512D01*
X0072177Y0150485D01*
X0072059Y0150461D01*
X0071940Y0150441D01*
X0071821Y0150425D01*
X0071701Y0150413D01*
X0071581Y0150405D01*
X0071460Y0150401D01*
X0071340Y0150401D01*
X0071219Y0150405D01*
X0071099Y0150413D01*
X0070979Y0150425D01*
X0070860Y0150441D01*
X0070741Y0150461D01*
X0070623Y0150485D01*
X0070506Y0150512D01*
X0070390Y0150544D01*
X0070275Y0150579D01*
X0070161Y0150618D01*
X0070048Y0150661D01*
X0069937Y0150708D01*
X0069828Y0150758D01*
X0069720Y0150812D01*
X0069614Y0150869D01*
X0069510Y0150930D01*
X0069408Y0150994D01*
X0069308Y0151062D01*
X0069211Y0151132D01*
X0069116Y0151206D01*
X0069023Y0151283D01*
X0068933Y0151363D01*
X0068846Y0151447D01*
X0068762Y0151532D01*
X0068680Y0151621D01*
X0068601Y0151712D01*
X0068526Y0151806D01*
X0068454Y0151902D01*
X0068384Y0152001D01*
X0068319Y0152102D01*
X0068256Y0152205D01*
X0068197Y0152310D01*
X0068141Y0152416D01*
X0068089Y0152525D01*
X0068041Y0152635D01*
X0067996Y0152747D01*
X0067955Y0152860D01*
X0067918Y0152975D01*
X0067885Y0153091D01*
X0067855Y0153207D01*
X0067829Y0153325D01*
X0067808Y0153444D01*
X0067790Y0153563D01*
X0067776Y0153682D01*
X0067766Y0153802D01*
X0067760Y0153923D01*
X0067758Y0154043D01*
D14*
X0113800Y0142943D03*
X0268800Y0142943D03*
D15*
X0081400Y0104043D03*
X0081400Y0089043D03*
X0081400Y0074043D03*
D16*
X0071400Y0154043D03*
X0091400Y0154043D03*
D17*
X0308500Y0084343D03*
X0318500Y0084343D03*
X0328500Y0084343D03*
X0338500Y0084343D03*
X0348500Y0084343D03*
X0358500Y0084343D03*
X0368500Y0084343D03*
X0378500Y0084343D03*
X0388500Y0084343D03*
X0398500Y0084343D03*
X0408500Y0084343D03*
X0418500Y0084343D03*
X0428500Y0084343D03*
X0438500Y0084343D03*
X0448500Y0084343D03*
X0458500Y0084343D03*
X0468500Y0084343D03*
X0478500Y0084343D03*
X0488500Y0084343D03*
X0498500Y0084343D03*
X0508500Y0084343D03*
X0518500Y0084343D03*
X0528500Y0084343D03*
X0538500Y0084343D03*
X0548500Y0084343D03*
X0548500Y0074343D03*
X0538500Y0074343D03*
X0528500Y0074343D03*
X0518500Y0074343D03*
X0508500Y0074343D03*
X0498500Y0074343D03*
X0488500Y0074343D03*
X0478500Y0074343D03*
X0468500Y0074343D03*
X0458500Y0074343D03*
X0448500Y0074343D03*
X0438500Y0074343D03*
X0428500Y0074343D03*
X0418500Y0074343D03*
X0408500Y0074343D03*
X0398500Y0074343D03*
X0388500Y0074343D03*
X0378500Y0074343D03*
X0368500Y0074343D03*
X0358500Y0074343D03*
X0348500Y0074343D03*
X0338500Y0074343D03*
X0328500Y0074343D03*
X0318500Y0074343D03*
X0308500Y0074343D03*
X0307500Y0032443D03*
X0317500Y0032443D03*
X0327500Y0032443D03*
X0337500Y0032443D03*
X0347500Y0032443D03*
X0357500Y0032443D03*
X0367500Y0032443D03*
X0377500Y0032443D03*
X0387500Y0032443D03*
X0397500Y0032443D03*
X0407500Y0032443D03*
X0417500Y0032443D03*
X0427500Y0032443D03*
X0437500Y0032443D03*
X0447500Y0032443D03*
X0457500Y0032443D03*
X0467500Y0032443D03*
X0477500Y0032443D03*
X0487500Y0032443D03*
X0497500Y0032443D03*
X0497500Y0022443D03*
X0487500Y0022443D03*
X0477500Y0022443D03*
X0467500Y0022443D03*
X0457500Y0022443D03*
X0447500Y0022443D03*
X0437500Y0022443D03*
X0427500Y0022443D03*
X0417500Y0022443D03*
X0407500Y0022443D03*
X0397500Y0022443D03*
X0387500Y0022443D03*
X0377500Y0022443D03*
X0367500Y0022443D03*
X0357500Y0022443D03*
X0347500Y0022443D03*
X0337500Y0022443D03*
X0327500Y0022443D03*
X0317500Y0022443D03*
X0307500Y0022443D03*
X0253600Y0022443D03*
X0243600Y0022443D03*
X0233600Y0022443D03*
X0223600Y0022443D03*
X0213600Y0022443D03*
X0213600Y0032443D03*
X0223600Y0032443D03*
X0233600Y0032443D03*
X0243600Y0032443D03*
X0253600Y0032443D03*
D18*
X0059891Y0030243D03*
X0044300Y0030243D03*
D19*
X0039951Y0105483D03*
X0030109Y0105483D03*
X0030109Y0113283D03*
X0039951Y0113283D03*
D20*
X0058730Y0123983D03*
X0011330Y0123983D03*
D21*
X0296400Y0074443D03*
X0338600Y0064643D03*
X0329000Y0094743D03*
X0408600Y0100143D03*
X0458000Y0099643D03*
X0540200Y0096743D03*
D22*
X0285800Y0092243D03*
X0285600Y0077243D03*
D23*
X0228600Y0079543D03*
X0370500Y0094543D03*
X0329600Y0131443D03*
D24*
X0383700Y0110143D03*
X0394950Y0096393D03*
X0423700Y0088893D03*
X0438700Y0088893D03*
X0412450Y0077643D03*
X0403750Y0070943D03*
X0422450Y0065143D03*
X0413700Y0062643D03*
X0403700Y0062643D03*
X0382450Y0060143D03*
X0411200Y0050143D03*
X0401200Y0043893D03*
X0411200Y0042643D03*
X0419950Y0042643D03*
X0436200Y0040143D03*
X0439950Y0045143D03*
X0479950Y0050143D03*
X0481200Y0052643D03*
X0479950Y0055143D03*
X0489950Y0057643D03*
X0486200Y0047643D03*
X0489950Y0043893D03*
X0521400Y0044343D03*
X0504400Y0027743D03*
X0488050Y0017643D03*
X0472450Y0013893D03*
X0504400Y0011393D03*
X0441200Y0015143D03*
X0419950Y0015143D03*
X0417450Y0012643D03*
X0438700Y0027643D03*
X0389950Y0037643D03*
X0384950Y0042643D03*
X0387450Y0048893D03*
X0428600Y0060043D03*
X0451200Y0060143D03*
X0477450Y0067643D03*
X0526200Y0062643D03*
X0537450Y0091393D03*
X0516200Y0093893D03*
X0509950Y0093893D03*
X0492450Y0093893D03*
X0477450Y0096393D03*
X0477450Y0107643D03*
X0477450Y0112643D03*
X0441200Y0117643D03*
X0432450Y0113893D03*
X0428700Y0113893D03*
X0438750Y0139493D03*
M02*
