%
M48
M72
T01C0.01200
T02C0.02000
T03C0.02362
T04C0.03543
T05C0.03600
T06C0.07087
T07C0.07283
T08C0.09000
T09C0.10000
T10C0.12598
T11C0.14173
%
T01
X228600Y79543
X370500Y94543
X394950Y96393
X423700Y88893
X438700Y88893
X412450Y77643
X403750Y70943
X422450Y65143
X413700Y62643
X403700Y62643
X382450Y60143
X411200Y50143
X401200Y43893
X411200Y42643
X419950Y42643
X436200Y40143
X439950Y45143
X479950Y50143
X481200Y52643
X479950Y55143
X489950Y57643
X486200Y47643
X489950Y43893
X521400Y44343
X504400Y27743
X488050Y17643
X472450Y13893
X504400Y11393
X441200Y15143
X419950Y15143
X417450Y12643
X438700Y27643
X389950Y37643
X384950Y42643
X387450Y48893
X428600Y60043
X451200Y60143
X477450Y67643
X526200Y62643
X537450Y91393
X516200Y93893
X509950Y93893
X492450Y93893
X477450Y96393
X477450Y107643
X477450Y112643
X441200Y117643
X432450Y113893
X428700Y113893
X383700Y110143
X329600Y131443
X438750Y139493
T02
X285800Y92243
X285600Y77243
T03
X296400Y74443
X338600Y64643
X329000Y94743
X408600Y100143
X458000Y99643
X540200Y96743
T04
X498400Y132243
X488400Y132243
X478400Y132243
X468400Y132243
X458400Y132243
X448400Y132243
X438400Y132243
X428400Y132243
X418400Y132243
X408400Y132243
X398400Y132243
X388400Y132243
X378400Y132243
X368400Y132243
X358400Y132243
X358400Y152243
X368400Y152243
X378400Y152243
X388400Y152243
X398400Y152243
X408400Y152243
X418400Y152243
X428400Y152243
X438400Y152243
X448400Y152243
X458400Y152243
X468400Y152243
X478400Y152243
X488400Y152243
X498400Y152243
X233300Y100443
X219300Y100443
X205300Y100443
X191300Y100443
X177300Y100443
X163300Y100443
X149300Y100443
X156300Y112567
X170300Y112567
X184300Y112567
X198300Y112567
X212300Y112567
X226300Y112567
T05
X308500Y84343
X318500Y84343
X328500Y84343
X338500Y84343
X348500Y84343
X358500Y84343
X368500Y84343
X378500Y84343
X388500Y84343
X398500Y84343
X408500Y84343
X418500Y84343
X428500Y84343
X438500Y84343
X448500Y84343
X458500Y84343
X468500Y84343
X478500Y84343
X488500Y84343
X498500Y84343
X508500Y84343
X518500Y84343
X528500Y84343
X538500Y84343
X548500Y84343
X548500Y74343
X538500Y74343
X528500Y74343
X518500Y74343
X508500Y74343
X498500Y74343
X488500Y74343
X478500Y74343
X468500Y74343
X458500Y74343
X448500Y74343
X438500Y74343
X428500Y74343
X418500Y74343
X408500Y74343
X398500Y74343
X388500Y74343
X378500Y74343
X368500Y74343
X358500Y74343
X348500Y74343
X338500Y74343
X328500Y74343
X318500Y74343
X308500Y74343
X307500Y32443
X317500Y32443
X327500Y32443
X337500Y32443
X347500Y32443
X357500Y32443
X367500Y32443
X377500Y32443
X387500Y32443
X397500Y32443
X407500Y32443
X417500Y32443
X427500Y32443
X437500Y32443
X447500Y32443
X457500Y32443
X467500Y32443
X477500Y32443
X487500Y32443
X497500Y32443
X497500Y22443
X487500Y22443
X477500Y22443
X467500Y22443
X457500Y22443
X447500Y22443
X437500Y22443
X427500Y22443
X417500Y22443
X407500Y22443
X397500Y22443
X387500Y22443
X377500Y22443
X367500Y22443
X357500Y22443
X347500Y22443
X337500Y22443
X327500Y22443
X317500Y22443
X307500Y22443
X253600Y22443
X243600Y22443
X233600Y22443
X223600Y22443
X213600Y22443
X213600Y32443
X223600Y32443
X233600Y32443
X243600Y32443
X253600Y32443
X39951Y105483
X30109Y105483
X30109Y113283
X39951Y113283
T06
X44300Y30243
X59891Y30243
T07
X81400Y74043
X81400Y89043
X81400Y104043
X71400Y154043
X91400Y154043
T08
X58730Y123983
X11330Y123983
T09
X113800Y142943
X268800Y142943
T10
X338405Y111580
T11
X155300Y68235
X548400Y29835
M30
